%TF.GenerationSoftware,Altium Limited,Altium Designer,23.10.1 (27)*%
G04 Layer_Color=65535*
%FSLAX45Y45*%
%MOMM*%
%TF.SameCoordinates,E65562DB-48BA-4528-A783-DBC4A45482EB*%
%TF.FilePolarity,Positive*%
%TF.FileFunction,Legend,Top*%
%TF.Part,Single*%
G01*
G75*
%TA.AperFunction,NonConductor*%
%ADD54C,0.25000*%
%ADD64C,0.25400*%
%ADD65C,0.40000*%
%ADD102C,0.60000*%
%ADD103C,0.20000*%
%ADD104C,0.12700*%
%ADD105C,0.30000*%
%ADD106C,0.17000*%
G36*
X3280000Y250000D02*
X3170000Y213333D01*
Y286666D01*
X3280000Y250000D01*
D02*
G37*
D54*
X-3630000Y-2860000D02*
G03*
X-3630000Y-2860000I-12500J0D01*
G01*
X-1630000D02*
G03*
X-1630000Y-2860000I-12500J0D01*
G01*
X370000Y-2560000D02*
G03*
X370000Y-2560000I-12500J0D01*
G01*
X-3727500Y425500D02*
G03*
X-3727500Y425500I-12500J0D01*
G01*
X-932500Y-1055000D02*
G03*
X-932500Y-1055000I-12500J0D01*
G01*
X2277500Y-1200000D02*
G03*
X2277500Y-1200000I-12500J0D01*
G01*
X-3419750Y-1217500D02*
G03*
X-3419750Y-1217500I-12500J0D01*
G01*
X-5262500Y-1075000D02*
G03*
X-5262500Y-1075000I-12500J0D01*
G01*
X-5227500Y425500D02*
G03*
X-5227500Y425500I-12500J0D01*
G01*
X1992500Y-1362500D02*
G03*
X1992500Y-1362500I-12500J0D01*
G01*
X-3862500Y1125000D02*
G03*
X-3862500Y1125000I-12500J0D01*
G01*
X1947500Y2372500D02*
G03*
X1947500Y2372500I-12500J0D01*
G01*
D64*
X-4703200Y-2139700D02*
G03*
X-4703200Y-2139700I-12700J0D01*
G01*
X-4665100Y-1898400D02*
Y-1834900D01*
X-4639700D01*
X-4334900Y-2165100D02*
Y-2101600D01*
X-4360300Y-2165100D02*
X-4334900D01*
Y-1898400D02*
Y-1834900D01*
X-4360300D02*
X-4334900D01*
X-4665100Y-2165100D02*
X-4639700D01*
X-4665100D02*
Y-2101600D01*
D65*
X-3490000Y320000D02*
G03*
X-3490000Y320000I-20000J0D01*
G01*
D102*
X-3500000Y-2645000D02*
G03*
X-3500000Y-2645000I-30000J0D01*
G01*
X-1500000D02*
G03*
X-1500000Y-2645000I-30000J0D01*
G01*
X500000Y-2345000D02*
G03*
X500000Y-2345000I-30000J0D01*
G01*
X-795000Y-825000D02*
G03*
X-795000Y-825000I-30000J0D01*
G01*
X2520000Y-1345000D02*
G03*
X2520000Y-1345000I-30000J0D01*
G01*
X-3295000Y-980000D02*
G03*
X-3295000Y-980000I-30000J0D01*
G01*
X2180000Y2265000D02*
G03*
X2180000Y2265000I-30000J0D01*
G01*
D103*
X-4300000Y-1240000D02*
X-4290000D01*
X-3630000Y-2745000D02*
X-2370000Y-2745000D01*
X-3630000Y-2255000D02*
X-2370000Y-2255000D01*
X-3630000Y-2745000D02*
Y-2255000D01*
X-2370000Y-2745000D02*
Y-2255000D01*
X-1630000Y-2745000D02*
X-370000Y-2745000D01*
X-1630000Y-2255000D02*
X-370000Y-2255000D01*
X-1630000Y-2745000D02*
Y-2255000D01*
X-370000Y-2745000D02*
Y-2255000D01*
X370000Y-2445000D02*
X1630000Y-2445000D01*
X370000Y-1955000D02*
X1630000Y-1955000D01*
X370000Y-2445000D02*
Y-1955000D01*
X1630000Y-2445000D02*
Y-1955000D01*
X-3590000Y-100000D02*
Y400000D01*
X-3410000Y-100000D02*
Y400000D01*
X-3590000D02*
X-3410000D01*
X-3590000Y-100000D02*
X-3410000D01*
X925000Y925000D02*
X925000Y-925000D01*
X-925000Y-925000D02*
Y925000D01*
X925000D01*
X-925000Y-925000D02*
X925000Y-925000D01*
X-1854000Y-2565000D02*
Y-2483500D01*
X-1920000Y-2565000D02*
X-1854000D01*
X-2146000D02*
Y-2483500D01*
Y-2565000D02*
X-2080000D01*
X146000D02*
Y-2483500D01*
X80000Y-2565000D02*
X146000D01*
X-146000D02*
Y-2483500D01*
Y-2565000D02*
X-80000D01*
X2390000Y-1755000D02*
Y-1245000D01*
X2710000Y-1755000D02*
Y-1245000D01*
X2390000D02*
X2710000D01*
X2390000Y-1755000D02*
X2710000D01*
X-3425000Y-1080000D02*
X-1575000D01*
X-3425000Y-420000D02*
X-1575000D01*
X-3425000Y-1080000D02*
Y-420000D01*
X-1575000Y-1080000D02*
Y-420000D01*
X-4175000Y-2025000D02*
Y-1975000D01*
X-3825000Y-2025000D02*
Y-1975000D01*
X-5175000Y-2025000D02*
Y-1975000D01*
X-4825000Y-2025000D02*
Y-1975000D01*
X3170000Y213333D02*
X3280000Y250000D01*
X3170000Y213333D02*
Y286666D01*
X3170001D02*
X3280000Y250000D01*
X-5254999Y-1020000D02*
X-5200001Y-1075000D01*
X-5255000Y-350000D02*
X-4945000Y-350000D01*
X-5000000Y-1075000D02*
X-4945000Y-1020000D01*
X-5200001Y-1075000D02*
X-5000000D01*
X-5255000Y-580000D02*
X-5255000Y-350000D01*
X-4945000Y-350000D02*
X-4945000Y-580000D01*
X-4945000Y-1020000D02*
X-4945000Y-820000D01*
X-5255000Y-820000D02*
X-5254999Y-1020000D01*
X-5090000Y-100000D02*
X-4910000D01*
X-5090000Y400000D02*
X-4910000D01*
Y-100000D02*
Y400000D01*
X-5090000Y-100000D02*
Y400000D01*
X1955000Y-1550000D02*
Y-1450000D01*
X1645000Y-1550000D02*
Y-1450000D01*
X1955000D01*
X1645000Y-1550000D02*
X1955000D01*
X-4800000Y-2760000D02*
X-4700000D01*
X-4800000D02*
Y-2475000D01*
X-4200000Y-1525000D02*
Y-1240000D01*
X-4290000D02*
X-4200000D01*
X-4825000Y-1525000D02*
Y-1475000D01*
X-5175000Y-1525000D02*
Y-1475000D01*
X-3855000Y1380000D02*
X-3854999Y1180000D01*
X-3545000Y1180000D02*
X-3545000Y1380000D01*
X-3545000Y1850000D02*
X-3545000Y1620000D01*
X-3855000Y1620000D02*
X-3855000Y1850000D01*
X-3800001Y1125000D02*
X-3600000D01*
X-3545000Y1180000D01*
X-3855000Y1850000D02*
X-3545000Y1850000D01*
X-3854999Y1180000D02*
X-3800001Y1125000D01*
X2050000Y135000D02*
X2950000Y135000D01*
X2050000Y2365000D02*
X2950000Y2365000D01*
Y135000D02*
Y2365000D01*
X2050000Y135000D02*
Y2365000D01*
D104*
X-2165800Y1116300D02*
X-2165800Y989300D01*
X-3334200Y1116300D02*
X-2165800D01*
X-2686500Y875000D02*
X-2635700D01*
X-2686500Y798800D02*
Y951200D01*
X-2775400Y1002000D02*
X-2724600D01*
Y748000D02*
Y1002000D01*
X-2775400Y748000D02*
X-2724600D01*
X-2775400D02*
Y1002000D01*
X-2813500Y798800D02*
Y951200D01*
X-2864300Y875000D02*
X-2813500D01*
X-2165800Y633700D02*
X-2165800Y760700D01*
X-3334200D02*
X-3334200Y633700D01*
X-3334200Y989300D02*
X-3334200Y1116300D01*
Y633700D02*
X-2165800D01*
D105*
X3332500Y729500D02*
X3967500D01*
X3332500Y-1429500D02*
X3967500D01*
X3332500D02*
Y729500D01*
X3967500Y-1429500D02*
Y729500D01*
D106*
X-2775000Y544978D02*
Y533315D01*
X-2751674Y509989D01*
X-2728348Y533315D01*
Y544978D01*
X-2751674Y509989D02*
Y475000D01*
X-2705023D02*
X-2681697D01*
X-2693360D01*
Y544978D01*
X-2705023Y533315D01*
X-2316547Y1283315D02*
X-2328210Y1294978D01*
X-2351536D01*
X-2363199Y1283315D01*
Y1236663D01*
X-2351536Y1225000D01*
X-2328210D01*
X-2316547Y1236663D01*
X-2246570Y1225000D02*
X-2293221D01*
X-2246570Y1271652D01*
Y1283315D01*
X-2258233Y1294978D01*
X-2281559D01*
X-2293221Y1283315D01*
X-2223244D02*
X-2211581Y1294978D01*
X-2188255D01*
X-2176592Y1283315D01*
Y1271652D01*
X-2188255Y1259989D01*
X-2199918D01*
X-2188255D01*
X-2176592Y1248326D01*
Y1236663D01*
X-2188255Y1225000D01*
X-2211581D01*
X-2223244Y1236663D01*
X-3253348Y1283315D02*
X-3265011Y1294978D01*
X-3288337D01*
X-3300000Y1283315D01*
Y1236663D01*
X-3288337Y1225000D01*
X-3265011D01*
X-3253348Y1236663D01*
X-3183371Y1225000D02*
X-3230022D01*
X-3183371Y1271652D01*
Y1283315D01*
X-3195034Y1294978D01*
X-3218360D01*
X-3230022Y1283315D01*
X-3160045Y1225000D02*
X-3136719D01*
X-3148382D01*
Y1294978D01*
X-3160045Y1283315D01*
X-4451801Y125000D02*
Y194978D01*
X-4416812D01*
X-4405149Y183315D01*
Y159989D01*
X-4416812Y148326D01*
X-4451801D01*
X-4428475D02*
X-4405149Y125000D01*
X-4381823D02*
X-4358498D01*
X-4370160D01*
Y194978D01*
X-4381823Y183315D01*
X-4276857Y125000D02*
X-4323509D01*
X-4276857Y171652D01*
Y183315D01*
X-4288520Y194978D01*
X-4311846D01*
X-4323509Y183315D01*
X-3300000Y1475000D02*
Y1544978D01*
X-3265011D01*
X-3253348Y1533315D01*
Y1509989D01*
X-3265011Y1498326D01*
X-3300000D01*
X-3276674D02*
X-3253348Y1475000D01*
X-3230022Y1544978D02*
X-3183371D01*
Y1533315D01*
X-3230022Y1486663D01*
Y1475000D01*
X-3300000Y1600000D02*
Y1669978D01*
X-3265011D01*
X-3253348Y1658315D01*
Y1634989D01*
X-3265011Y1623326D01*
X-3300000D01*
X-3276674D02*
X-3253348Y1600000D01*
X-3183371Y1669978D02*
X-3206697Y1658315D01*
X-3230022Y1634989D01*
Y1611663D01*
X-3218360Y1600000D01*
X-3195034D01*
X-3183371Y1611663D01*
Y1623326D01*
X-3195034Y1634989D01*
X-3230022D01*
X-2775000Y225000D02*
Y294978D01*
X-2740011D01*
X-2728348Y283315D01*
Y259989D01*
X-2740011Y248326D01*
X-2775000D01*
X-2751674D02*
X-2728348Y225000D01*
X-2658371Y294978D02*
X-2705023D01*
Y259989D01*
X-2681697Y271652D01*
X-2670034D01*
X-2658371Y259989D01*
Y236663D01*
X-2670034Y225000D01*
X-2693360D01*
X-2705023Y236663D01*
X-3253348Y1408315D02*
X-3265011Y1419978D01*
X-3288337D01*
X-3300000Y1408315D01*
Y1361663D01*
X-3288337Y1350000D01*
X-3265011D01*
X-3253348Y1361663D01*
X-3183371Y1350000D02*
X-3230022D01*
X-3183371Y1396652D01*
Y1408315D01*
X-3195034Y1419978D01*
X-3218360D01*
X-3230022Y1408315D01*
X-3160045D02*
X-3148382Y1419978D01*
X-3125056D01*
X-3113393Y1408315D01*
Y1361663D01*
X-3125056Y1350000D01*
X-3148382D01*
X-3160045Y1361663D01*
Y1408315D01*
X-2728348Y408315D02*
X-2740011Y419978D01*
X-2763337D01*
X-2775000Y408315D01*
Y361663D01*
X-2763337Y350000D01*
X-2740011D01*
X-2728348Y361663D01*
X-2705023Y350000D02*
X-2681697D01*
X-2693360D01*
Y419978D01*
X-2705023Y408315D01*
X-2646708Y361663D02*
X-2635045Y350000D01*
X-2611719D01*
X-2600056Y361663D01*
Y408315D01*
X-2611719Y419978D01*
X-2635045D01*
X-2646708Y408315D01*
Y396652D01*
X-2635045Y384989D01*
X-2600056D01*
X-308315Y-1978348D02*
X-319978Y-1990011D01*
Y-2013337D01*
X-308315Y-2025000D01*
X-261663D01*
X-250000Y-2013337D01*
Y-1990011D01*
X-261663Y-1978348D01*
X-308315Y-1955023D02*
X-319978Y-1943360D01*
Y-1920034D01*
X-308315Y-1908371D01*
X-296652D01*
X-284989Y-1920034D01*
Y-1931697D01*
Y-1920034D01*
X-273326Y-1908371D01*
X-261663D01*
X-250000Y-1920034D01*
Y-1943360D01*
X-261663Y-1955023D01*
Y-1885045D02*
X-250000Y-1873382D01*
Y-1850056D01*
X-261663Y-1838393D01*
X-308315D01*
X-319978Y-1850056D01*
Y-1873382D01*
X-308315Y-1885045D01*
X-296652D01*
X-284989Y-1873382D01*
Y-1838393D01*
X321652Y1733315D02*
X309989Y1744977D01*
X286663D01*
X275000Y1733315D01*
Y1686663D01*
X286663Y1675000D01*
X309989D01*
X321652Y1686663D01*
X344977Y1733315D02*
X356640Y1744977D01*
X379966D01*
X391629Y1733315D01*
Y1721652D01*
X379966Y1709989D01*
X368303D01*
X379966D01*
X391629Y1698326D01*
Y1686663D01*
X379966Y1675000D01*
X356640D01*
X344977Y1686663D01*
X414955Y1733315D02*
X426618Y1744977D01*
X449944D01*
X461607Y1733315D01*
Y1721652D01*
X449944Y1709989D01*
X461607Y1698326D01*
Y1686663D01*
X449944Y1675000D01*
X426618D01*
X414955Y1686663D01*
Y1698326D01*
X426618Y1709989D01*
X414955Y1721652D01*
Y1733315D01*
X426618Y1709989D02*
X449944D01*
X-3348Y-1516685D02*
X-15011Y-1505022D01*
X-38337D01*
X-50000Y-1516685D01*
Y-1563337D01*
X-38337Y-1575000D01*
X-15011D01*
X-3348Y-1563337D01*
X54966Y-1575000D02*
Y-1505022D01*
X19978Y-1540011D01*
X66629D01*
X136607Y-1575000D02*
X89955D01*
X136607Y-1528348D01*
Y-1516685D01*
X124944Y-1505022D01*
X101618D01*
X89955Y-1516685D01*
X1296652Y-266686D02*
X1284989Y-255023D01*
X1261663D01*
X1250000Y-266686D01*
Y-313337D01*
X1261663Y-325000D01*
X1284989D01*
X1296652Y-313337D01*
X1366629Y-255023D02*
X1319978D01*
Y-290011D01*
X1343303Y-278348D01*
X1354966D01*
X1366629Y-290011D01*
Y-313337D01*
X1354966Y-325000D01*
X1331640D01*
X1319978Y-313337D01*
X1389955Y-266686D02*
X1401618Y-255023D01*
X1424944D01*
X1436607Y-266686D01*
Y-278348D01*
X1424944Y-290011D01*
X1413281D01*
X1424944D01*
X1436607Y-301674D01*
Y-313337D01*
X1424944Y-325000D01*
X1401618D01*
X1389955Y-313337D01*
X-278348Y1433315D02*
X-290011Y1444978D01*
X-313337D01*
X-325000Y1433315D01*
Y1386663D01*
X-313337Y1375000D01*
X-290011D01*
X-278348Y1386663D01*
X-220034Y1375000D02*
Y1444978D01*
X-255023Y1409989D01*
X-208371D01*
X-150056Y1375000D02*
Y1444978D01*
X-185045Y1409989D01*
X-138393D01*
X-1458315Y71652D02*
X-1469978Y59989D01*
Y36663D01*
X-1458315Y25000D01*
X-1411663D01*
X-1400000Y36663D01*
Y59989D01*
X-1411663Y71652D01*
X-1458315Y94977D02*
X-1469978Y106640D01*
Y129966D01*
X-1458315Y141629D01*
X-1446652D01*
X-1434989Y129966D01*
Y118303D01*
Y129966D01*
X-1423326Y141629D01*
X-1411663D01*
X-1400000Y129966D01*
Y106640D01*
X-1411663Y94977D01*
X-1458315Y164955D02*
X-1469978Y176618D01*
Y199944D01*
X-1458315Y211607D01*
X-1446652D01*
X-1434989Y199944D01*
Y188281D01*
Y199944D01*
X-1423326Y211607D01*
X-1411663D01*
X-1400000Y199944D01*
Y176618D01*
X-1411663Y164955D01*
X316685Y-1428348D02*
X305023Y-1440011D01*
Y-1463337D01*
X316685Y-1475000D01*
X363337D01*
X375000Y-1463337D01*
Y-1440011D01*
X363337Y-1428348D01*
X375000Y-1370034D02*
X305023D01*
X340011Y-1405023D01*
Y-1358371D01*
X305023Y-1335045D02*
Y-1288393D01*
X316685D01*
X363337Y-1335045D01*
X375000D01*
X1691685Y-2603348D02*
X1680023Y-2615011D01*
Y-2638337D01*
X1691685Y-2650000D01*
X1738337D01*
X1750000Y-2638337D01*
Y-2615011D01*
X1738337Y-2603348D01*
X1750000Y-2545034D02*
X1680023D01*
X1715011Y-2580023D01*
Y-2533371D01*
X1680023Y-2463393D02*
X1691685Y-2486719D01*
X1715011Y-2510045D01*
X1738337D01*
X1750000Y-2498382D01*
Y-2475056D01*
X1738337Y-2463393D01*
X1726674D01*
X1715011Y-2475056D01*
Y-2510045D01*
X241685Y-2603348D02*
X230022Y-2615011D01*
Y-2638337D01*
X241685Y-2650000D01*
X288337D01*
X300000Y-2638337D01*
Y-2615011D01*
X288337Y-2603348D01*
X300000Y-2545034D02*
X230022D01*
X265011Y-2580023D01*
Y-2533371D01*
X230022Y-2463393D02*
Y-2510045D01*
X265011D01*
X253348Y-2486719D01*
Y-2475056D01*
X265011Y-2463393D01*
X288337D01*
X300000Y-2475056D01*
Y-2498382D01*
X288337Y-2510045D01*
X1816685Y-1903348D02*
X1805023Y-1915011D01*
Y-1938337D01*
X1816685Y-1950000D01*
X1863337D01*
X1875000Y-1938337D01*
Y-1915011D01*
X1863337Y-1903348D01*
X1805023Y-1833371D02*
Y-1880022D01*
X1840011D01*
X1828348Y-1856697D01*
Y-1845034D01*
X1840011Y-1833371D01*
X1863337D01*
X1875000Y-1845034D01*
Y-1868359D01*
X1863337Y-1880022D01*
X1805023Y-1763393D02*
X1816685Y-1786719D01*
X1840011Y-1810045D01*
X1863337D01*
X1875000Y-1798382D01*
Y-1775056D01*
X1863337Y-1763393D01*
X1851674D01*
X1840011Y-1775056D01*
Y-1810045D01*
X1691685Y-1903348D02*
X1680023Y-1915011D01*
Y-1938337D01*
X1691685Y-1950000D01*
X1738337D01*
X1750000Y-1938337D01*
Y-1915011D01*
X1738337Y-1903348D01*
X1680023Y-1833371D02*
Y-1880022D01*
X1715011D01*
X1703348Y-1856697D01*
Y-1845034D01*
X1715011Y-1833371D01*
X1738337D01*
X1750000Y-1845034D01*
Y-1868359D01*
X1738337Y-1880022D01*
X1680023Y-1763393D02*
Y-1810045D01*
X1715011D01*
X1703348Y-1786719D01*
Y-1775056D01*
X1715011Y-1763393D01*
X1738337D01*
X1750000Y-1775056D01*
Y-1798382D01*
X1738337Y-1810045D01*
X-1758314Y-2203348D02*
X-1769977Y-2215011D01*
Y-2238337D01*
X-1758314Y-2250000D01*
X-1711663D01*
X-1700000Y-2238337D01*
Y-2215011D01*
X-1711663Y-2203348D01*
X-1700000Y-2133371D02*
Y-2180023D01*
X-1746652Y-2133371D01*
X-1758314D01*
X-1769977Y-2145034D01*
Y-2168360D01*
X-1758314Y-2180023D01*
X-1711663Y-2110045D02*
X-1700000Y-2098382D01*
Y-2075056D01*
X-1711663Y-2063393D01*
X-1758314D01*
X-1769977Y-2075056D01*
Y-2098382D01*
X-1758314Y-2110045D01*
X-1746652D01*
X-1734989Y-2098382D01*
Y-2063393D01*
X-1758314Y-2903348D02*
X-1769977Y-2915011D01*
Y-2938337D01*
X-1758314Y-2950000D01*
X-1711663D01*
X-1700000Y-2938337D01*
Y-2915011D01*
X-1711663Y-2903348D01*
X-1700000Y-2833371D02*
Y-2880022D01*
X-1746652Y-2833371D01*
X-1758314D01*
X-1769977Y-2845034D01*
Y-2868360D01*
X-1758314Y-2880022D01*
Y-2810045D02*
X-1769977Y-2798382D01*
Y-2775056D01*
X-1758314Y-2763393D01*
X-1746652D01*
X-1734989Y-2775056D01*
X-1723326Y-2763393D01*
X-1711663D01*
X-1700000Y-2775056D01*
Y-2798382D01*
X-1711663Y-2810045D01*
X-1723326D01*
X-1734989Y-2798382D01*
X-1746652Y-2810045D01*
X-1758314D01*
X-1734989Y-2798382D02*
Y-2775056D01*
X-308315Y-2203348D02*
X-319978Y-2215011D01*
Y-2238337D01*
X-308315Y-2250000D01*
X-261663D01*
X-250000Y-2238337D01*
Y-2215011D01*
X-261663Y-2203348D01*
X-308315Y-2180023D02*
X-319978Y-2168360D01*
Y-2145034D01*
X-308315Y-2133371D01*
X-296652D01*
X-284989Y-2145034D01*
Y-2156697D01*
Y-2145034D01*
X-273326Y-2133371D01*
X-261663D01*
X-250000Y-2145034D01*
Y-2168360D01*
X-261663Y-2180023D01*
X-319978Y-2110045D02*
Y-2063393D01*
X-308315D01*
X-261663Y-2110045D01*
X-250000D01*
X-308315Y-2903348D02*
X-319978Y-2915011D01*
Y-2938337D01*
X-308315Y-2950000D01*
X-261663D01*
X-250000Y-2938337D01*
Y-2915011D01*
X-261663Y-2903348D01*
X-308315Y-2880022D02*
X-319978Y-2868360D01*
Y-2845034D01*
X-308315Y-2833371D01*
X-296652D01*
X-284989Y-2845034D01*
Y-2856697D01*
Y-2845034D01*
X-273326Y-2833371D01*
X-261663D01*
X-250000Y-2845034D01*
Y-2868360D01*
X-261663Y-2880022D01*
X-319978Y-2763393D02*
X-308315Y-2786719D01*
X-284989Y-2810045D01*
X-261663D01*
X-250000Y-2798382D01*
Y-2775056D01*
X-261663Y-2763393D01*
X-273326D01*
X-284989Y-2775056D01*
Y-2810045D01*
X-3758315Y-2203348D02*
X-3769977Y-2215011D01*
Y-2238337D01*
X-3758315Y-2250000D01*
X-3711663D01*
X-3700000Y-2238337D01*
Y-2215011D01*
X-3711663Y-2203348D01*
X-3700000Y-2180023D02*
Y-2156697D01*
Y-2168360D01*
X-3769977D01*
X-3758315Y-2180023D01*
X-3700000Y-2086719D02*
X-3769977D01*
X-3734989Y-2121708D01*
Y-2075056D01*
X-3758315Y-2878348D02*
X-3769977Y-2890011D01*
Y-2913337D01*
X-3758315Y-2925000D01*
X-3711663D01*
X-3700000Y-2913337D01*
Y-2890011D01*
X-3711663Y-2878348D01*
X-3700000Y-2855022D02*
Y-2831697D01*
Y-2843360D01*
X-3769977D01*
X-3758315Y-2855022D01*
Y-2796708D02*
X-3769977Y-2785045D01*
Y-2761719D01*
X-3758315Y-2750056D01*
X-3746652D01*
X-3734989Y-2761719D01*
Y-2773382D01*
Y-2761719D01*
X-3723326Y-2750056D01*
X-3711663D01*
X-3700000Y-2761719D01*
Y-2785045D01*
X-3711663Y-2796708D01*
X-2308315Y-2203348D02*
X-2319978Y-2215011D01*
Y-2238337D01*
X-2308315Y-2250000D01*
X-2261663D01*
X-2250000Y-2238337D01*
Y-2215011D01*
X-2261663Y-2203348D01*
X-2250000Y-2133371D02*
Y-2180023D01*
X-2296652Y-2133371D01*
X-2308315D01*
X-2319978Y-2145034D01*
Y-2168360D01*
X-2308315Y-2180023D01*
X-2319978Y-2063393D02*
Y-2110045D01*
X-2284989D01*
X-2296652Y-2086719D01*
Y-2075056D01*
X-2284989Y-2063393D01*
X-2261663D01*
X-2250000Y-2075056D01*
Y-2098382D01*
X-2261663Y-2110045D01*
X-2308315Y-2903348D02*
X-2319978Y-2915011D01*
Y-2938337D01*
X-2308315Y-2950000D01*
X-2261663D01*
X-2250000Y-2938337D01*
Y-2915011D01*
X-2261663Y-2903348D01*
X-2250000Y-2833371D02*
Y-2880022D01*
X-2296652Y-2833371D01*
X-2308315D01*
X-2319978Y-2845034D01*
Y-2868360D01*
X-2308315Y-2880022D01*
X-2250000Y-2775056D02*
X-2319978D01*
X-2284989Y-2810045D01*
Y-2763393D01*
X2496652Y-991685D02*
X2484989Y-980022D01*
X2461663D01*
X2450000Y-991685D01*
Y-1038337D01*
X2461663Y-1050000D01*
X2484989D01*
X2496652Y-1038337D01*
X2566629Y-980022D02*
X2519977D01*
Y-1015011D01*
X2543303Y-1003348D01*
X2554966D01*
X2566629Y-1015011D01*
Y-1038337D01*
X2554966Y-1050000D01*
X2531640D01*
X2519977Y-1038337D01*
X2589955Y-980022D02*
X2636607D01*
Y-991685D01*
X2589955Y-1038337D01*
Y-1050000D01*
X866685Y-1428348D02*
X855022Y-1440011D01*
Y-1463337D01*
X866685Y-1475000D01*
X913337D01*
X925000Y-1463337D01*
Y-1440011D01*
X913337Y-1428348D01*
X855022Y-1358371D02*
Y-1405023D01*
X890011D01*
X878348Y-1381697D01*
Y-1370034D01*
X890011Y-1358371D01*
X913337D01*
X925000Y-1370034D01*
Y-1393360D01*
X913337Y-1405023D01*
X866685Y-1335045D02*
X855022Y-1323382D01*
Y-1300056D01*
X866685Y-1288393D01*
X913337D01*
X925000Y-1300056D01*
Y-1323382D01*
X913337Y-1335045D01*
X866685D01*
X1296652Y-491685D02*
X1284989Y-480022D01*
X1261663D01*
X1250000Y-491685D01*
Y-538337D01*
X1261663Y-550000D01*
X1284989D01*
X1296652Y-538337D01*
X1366629Y-480022D02*
X1319978D01*
Y-515011D01*
X1343303Y-503348D01*
X1354966D01*
X1366629Y-515011D01*
Y-538337D01*
X1354966Y-550000D01*
X1331640D01*
X1319978Y-538337D01*
X1389955Y-550000D02*
X1413281D01*
X1401618D01*
Y-480022D01*
X1389955Y-491685D01*
X191685Y-1428348D02*
X180022Y-1440011D01*
Y-1463337D01*
X191685Y-1475000D01*
X238337D01*
X250000Y-1463337D01*
Y-1440011D01*
X238337Y-1428348D01*
X250000Y-1370034D02*
X180022D01*
X215011Y-1405023D01*
Y-1358371D01*
X250000Y-1335045D02*
Y-1311719D01*
Y-1323382D01*
X180022D01*
X191685Y-1335045D01*
X646652Y1433315D02*
X634989Y1444978D01*
X611663D01*
X600000Y1433315D01*
Y1386663D01*
X611663Y1375000D01*
X634989D01*
X646652Y1386663D01*
X704966Y1375000D02*
Y1444978D01*
X669978Y1409989D01*
X716629D01*
X739955Y1386663D02*
X751618Y1375000D01*
X774944D01*
X786607Y1386663D01*
Y1433315D01*
X774944Y1444978D01*
X751618D01*
X739955Y1433315D01*
Y1421652D01*
X751618Y1409989D01*
X786607D01*
X-158315Y-1653348D02*
X-169978Y-1665011D01*
Y-1688337D01*
X-158315Y-1700000D01*
X-111663D01*
X-100000Y-1688337D01*
Y-1665011D01*
X-111663Y-1653348D01*
X-100000Y-1595034D02*
X-169978D01*
X-134989Y-1630022D01*
Y-1583371D01*
X-158315Y-1560045D02*
X-169978Y-1548382D01*
Y-1525056D01*
X-158315Y-1513393D01*
X-111663D01*
X-100000Y-1525056D01*
Y-1548382D01*
X-111663Y-1560045D01*
X-158315D01*
X421652Y1433315D02*
X409989Y1444978D01*
X386663D01*
X375000Y1433315D01*
Y1386663D01*
X386663Y1375000D01*
X409989D01*
X421652Y1386663D01*
X444978D02*
X456640Y1375000D01*
X479966D01*
X491629Y1386663D01*
Y1433315D01*
X479966Y1444978D01*
X456640D01*
X444978Y1433315D01*
Y1421652D01*
X456640Y1409989D01*
X491629D01*
X-1503348Y-1566685D02*
X-1515011Y-1555023D01*
X-1538337D01*
X-1550000Y-1566685D01*
Y-1613337D01*
X-1538337Y-1625000D01*
X-1515011D01*
X-1503348Y-1613337D01*
X-1480022Y-1566685D02*
X-1468360Y-1555023D01*
X-1445034D01*
X-1433371Y-1566685D01*
Y-1578348D01*
X-1445034Y-1590011D01*
X-1456697D01*
X-1445034D01*
X-1433371Y-1601674D01*
Y-1613337D01*
X-1445034Y-1625000D01*
X-1468360D01*
X-1480022Y-1613337D01*
X-1410045Y-1566685D02*
X-1398382Y-1555023D01*
X-1375056D01*
X-1363393Y-1566685D01*
Y-1613337D01*
X-1375056Y-1625000D01*
X-1398382D01*
X-1410045Y-1613337D01*
Y-1566685D01*
X-803348Y-1416686D02*
X-815011Y-1405023D01*
X-838337D01*
X-850000Y-1416686D01*
Y-1463337D01*
X-838337Y-1475000D01*
X-815011D01*
X-803348Y-1463337D01*
X-780023Y-1416686D02*
X-768360Y-1405023D01*
X-745034D01*
X-733371Y-1416686D01*
Y-1428348D01*
X-745034Y-1440011D01*
X-756697D01*
X-745034D01*
X-733371Y-1451674D01*
Y-1463337D01*
X-745034Y-1475000D01*
X-768360D01*
X-780023Y-1463337D01*
X-675056Y-1475000D02*
Y-1405023D01*
X-710045Y-1440011D01*
X-663393D01*
X-1458315Y-478348D02*
X-1469978Y-490011D01*
Y-513337D01*
X-1458315Y-525000D01*
X-1411663D01*
X-1400000Y-513337D01*
Y-490011D01*
X-1411663Y-478348D01*
X-1458315Y-455022D02*
X-1469978Y-443360D01*
Y-420034D01*
X-1458315Y-408371D01*
X-1446652D01*
X-1434989Y-420034D01*
Y-431697D01*
Y-420034D01*
X-1423326Y-408371D01*
X-1411663D01*
X-1400000Y-420034D01*
Y-443360D01*
X-1411663Y-455022D01*
X-1400000Y-385045D02*
Y-361719D01*
Y-373382D01*
X-1469978D01*
X-1458315Y-385045D01*
Y-178348D02*
X-1469978Y-190011D01*
Y-213337D01*
X-1458315Y-225000D01*
X-1411663D01*
X-1400000Y-213337D01*
Y-190011D01*
X-1411663Y-178348D01*
X-1458315Y-155023D02*
X-1469978Y-143360D01*
Y-120034D01*
X-1458315Y-108371D01*
X-1446652D01*
X-1434989Y-120034D01*
Y-131697D01*
Y-120034D01*
X-1423326Y-108371D01*
X-1411663D01*
X-1400000Y-120034D01*
Y-143360D01*
X-1411663Y-155023D01*
X-1400000Y-38393D02*
Y-85045D01*
X-1446652Y-38393D01*
X-1458315D01*
X-1469978Y-50056D01*
Y-73382D01*
X-1458315Y-85045D01*
X-278348Y1308315D02*
X-290011Y1319978D01*
X-313337D01*
X-325000Y1308315D01*
Y1261663D01*
X-313337Y1250000D01*
X-290011D01*
X-278348Y1261663D01*
X-220034Y1250000D02*
Y1319978D01*
X-255023Y1284989D01*
X-208371D01*
X-185045Y1308315D02*
X-173382Y1319978D01*
X-150056D01*
X-138393Y1308315D01*
Y1296652D01*
X-150056Y1284989D01*
X-161719D01*
X-150056D01*
X-138393Y1273326D01*
Y1261663D01*
X-150056Y1250000D01*
X-173382D01*
X-185045Y1261663D01*
X-803348Y1433315D02*
X-815011Y1444978D01*
X-838337D01*
X-850000Y1433315D01*
Y1386663D01*
X-838337Y1375000D01*
X-815011D01*
X-803348Y1386663D01*
X-780023Y1433315D02*
X-768360Y1444978D01*
X-745034D01*
X-733371Y1433315D01*
Y1421652D01*
X-745034Y1409989D01*
X-756697D01*
X-745034D01*
X-733371Y1398326D01*
Y1386663D01*
X-745034Y1375000D01*
X-768360D01*
X-780023Y1386663D01*
X-663393Y1444978D02*
X-710045D01*
Y1409989D01*
X-686719Y1421652D01*
X-675056D01*
X-663393Y1409989D01*
Y1386663D01*
X-675056Y1375000D01*
X-698382D01*
X-710045Y1386663D01*
X1296652Y558315D02*
X1284989Y569978D01*
X1261663D01*
X1250000Y558315D01*
Y511663D01*
X1261663Y500000D01*
X1284989D01*
X1296652Y511663D01*
X1366629Y569978D02*
X1319978D01*
Y534989D01*
X1343303Y546652D01*
X1354966D01*
X1366629Y534989D01*
Y511663D01*
X1354966Y500000D01*
X1331640D01*
X1319978Y511663D01*
X1424944Y500000D02*
Y569978D01*
X1389955Y534989D01*
X1436607D01*
X541685Y-1428348D02*
X530023Y-1440011D01*
Y-1463337D01*
X541685Y-1475000D01*
X588337D01*
X600000Y-1463337D01*
Y-1440011D01*
X588337Y-1428348D01*
X600000Y-1370034D02*
X530023D01*
X565011Y-1405023D01*
Y-1358371D01*
X541685Y-1335045D02*
X530023Y-1323382D01*
Y-1300056D01*
X541685Y-1288393D01*
X553348D01*
X565011Y-1300056D01*
X576674Y-1288393D01*
X588337D01*
X600000Y-1300056D01*
Y-1323382D01*
X588337Y-1335045D01*
X576674D01*
X565011Y-1323382D01*
X553348Y-1335045D01*
X541685D01*
X565011Y-1323382D02*
Y-1300056D01*
X1296652Y58315D02*
X1284989Y69978D01*
X1261663D01*
X1250000Y58315D01*
Y11663D01*
X1261663Y0D01*
X1284989D01*
X1296652Y11663D01*
X1366629Y69978D02*
X1319978D01*
Y34989D01*
X1343303Y46652D01*
X1354966D01*
X1366629Y34989D01*
Y11663D01*
X1354966Y0D01*
X1331640D01*
X1319978Y11663D01*
X1436607Y0D02*
X1389955D01*
X1436607Y46652D01*
Y58315D01*
X1424944Y69978D01*
X1401618D01*
X1389955Y58315D01*
X-2028348Y133315D02*
X-2040011Y144978D01*
X-2063337D01*
X-2075000Y133315D01*
Y86663D01*
X-2063337Y75000D01*
X-2040011D01*
X-2028348Y86663D01*
X-1958371Y75000D02*
X-2005022D01*
X-1958371Y121652D01*
Y133315D01*
X-1970034Y144978D01*
X-1993359D01*
X-2005022Y133315D01*
X-1935045Y144978D02*
X-1888393D01*
Y133315D01*
X-1935045Y86663D01*
Y75000D01*
X-2953348Y133315D02*
X-2965011Y144978D01*
X-2988337D01*
X-3000000Y133315D01*
Y86663D01*
X-2988337Y75000D01*
X-2965011D01*
X-2953348Y86663D01*
X-2930023Y75000D02*
X-2906697D01*
X-2918360D01*
Y144978D01*
X-2930023Y133315D01*
X-2871708D02*
X-2860045Y144978D01*
X-2836719D01*
X-2825056Y133315D01*
Y121652D01*
X-2836719Y109989D01*
X-2825056Y98326D01*
Y86663D01*
X-2836719Y75000D01*
X-2860045D01*
X-2871708Y86663D01*
Y98326D01*
X-2860045Y109989D01*
X-2871708Y121652D01*
Y133315D01*
X-2860045Y109989D02*
X-2836719D01*
X-2353348Y-1566685D02*
X-2365011Y-1555023D01*
X-2388337D01*
X-2400000Y-1566685D01*
Y-1613337D01*
X-2388337Y-1625000D01*
X-2365011D01*
X-2353348Y-1613337D01*
X-2283371Y-1625000D02*
X-2330023D01*
X-2283371Y-1578348D01*
Y-1566685D01*
X-2295034Y-1555023D01*
X-2318360D01*
X-2330023Y-1566685D01*
X-2213393Y-1555023D02*
X-2236719Y-1566685D01*
X-2260045Y-1590011D01*
Y-1613337D01*
X-2248382Y-1625000D01*
X-2225056D01*
X-2213393Y-1613337D01*
Y-1601674D01*
X-2225056Y-1590011D01*
X-2260045D01*
X-2728348Y-1566685D02*
X-2740011Y-1555023D01*
X-2763337D01*
X-2775000Y-1566685D01*
Y-1613337D01*
X-2763337Y-1625000D01*
X-2740011D01*
X-2728348Y-1613337D01*
X-2658371Y-1625000D02*
X-2705023D01*
X-2658371Y-1578348D01*
Y-1566685D01*
X-2670034Y-1555023D01*
X-2693360D01*
X-2705023Y-1566685D01*
X-2588393Y-1625000D02*
X-2635045D01*
X-2588393Y-1578348D01*
Y-1566685D01*
X-2600056Y-1555023D01*
X-2623382D01*
X-2635045Y-1566685D01*
X-2953348D02*
X-2965011Y-1555023D01*
X-2988337D01*
X-3000000Y-1566685D01*
Y-1613337D01*
X-2988337Y-1625000D01*
X-2965011D01*
X-2953348Y-1613337D01*
X-2930023Y-1625000D02*
X-2906697D01*
X-2918360D01*
Y-1555023D01*
X-2930023Y-1566685D01*
X-2871708Y-1555023D02*
X-2825056D01*
Y-1566685D01*
X-2871708Y-1613337D01*
Y-1625000D01*
X-3203348Y-1566685D02*
X-3215011Y-1555023D01*
X-3238337D01*
X-3250000Y-1566685D01*
Y-1613337D01*
X-3238337Y-1625000D01*
X-3215011D01*
X-3203348Y-1613337D01*
X-3180023Y-1625000D02*
X-3156697D01*
X-3168360D01*
Y-1555023D01*
X-3180023Y-1566685D01*
X-3075056Y-1555023D02*
X-3098382Y-1566685D01*
X-3121708Y-1590011D01*
Y-1613337D01*
X-3110045Y-1625000D01*
X-3086719D01*
X-3075056Y-1613337D01*
Y-1601674D01*
X-3086719Y-1590011D01*
X-3121708D01*
X-3528348Y633315D02*
X-3540011Y644978D01*
X-3563337D01*
X-3575000Y633315D01*
Y586663D01*
X-3563337Y575000D01*
X-3540011D01*
X-3528348Y586663D01*
X-3505022Y575000D02*
X-3481697D01*
X-3493360D01*
Y644978D01*
X-3505022Y633315D01*
X-3400056Y644978D02*
X-3446708D01*
Y609989D01*
X-3423382Y621652D01*
X-3411719D01*
X-3400056Y609989D01*
Y586663D01*
X-3411719Y575000D01*
X-3435045D01*
X-3446708Y586663D01*
X-4755158Y508314D02*
X-4766821Y519977D01*
X-4790147D01*
X-4801810Y508314D01*
Y461663D01*
X-4790147Y450000D01*
X-4766821D01*
X-4755158Y461663D01*
X-4685181Y519977D02*
X-4731832D01*
Y484989D01*
X-4708506Y496652D01*
X-4696844D01*
X-4685181Y484989D01*
Y461663D01*
X-4696844Y450000D01*
X-4720169D01*
X-4731832Y461663D01*
X-4661855Y508314D02*
X-4650192Y519977D01*
X-4626866D01*
X-4615203Y508314D01*
Y496652D01*
X-4626866Y484989D01*
X-4615203Y473326D01*
Y461663D01*
X-4626866Y450000D01*
X-4650192D01*
X-4661855Y461663D01*
Y473326D01*
X-4650192Y484989D01*
X-4661855Y496652D01*
Y508314D01*
X-4650192Y484989D02*
X-4626866D01*
X3246652Y1083315D02*
X3234989Y1094977D01*
X3211663D01*
X3200000Y1083315D01*
Y1036663D01*
X3211663Y1025000D01*
X3234989D01*
X3246652Y1036663D01*
X3316629Y1094977D02*
X3269977D01*
Y1059989D01*
X3293303Y1071652D01*
X3304966D01*
X3316629Y1059989D01*
Y1036663D01*
X3304966Y1025000D01*
X3281640D01*
X3269977Y1036663D01*
X3339955D02*
X3351618Y1025000D01*
X3374944D01*
X3386607Y1036663D01*
Y1083315D01*
X3374944Y1094977D01*
X3351618D01*
X3339955Y1083315D01*
Y1071652D01*
X3351618Y1059989D01*
X3386607D01*
X3271652Y1533315D02*
X3259989Y1544978D01*
X3236663D01*
X3225000Y1533315D01*
Y1486663D01*
X3236663Y1475000D01*
X3259989D01*
X3271652Y1486663D01*
X3341629Y1544978D02*
X3318303Y1533315D01*
X3294977Y1509989D01*
Y1486663D01*
X3306640Y1475000D01*
X3329966D01*
X3341629Y1486663D01*
Y1498326D01*
X3329966Y1509989D01*
X3294977D01*
X3364955Y1475000D02*
X3388281D01*
X3376618D01*
Y1544978D01*
X3364955Y1533315D01*
X1671652D02*
X1659989Y1544978D01*
X1636663D01*
X1625000Y1533315D01*
Y1486663D01*
X1636663Y1475000D01*
X1659989D01*
X1671652Y1486663D01*
X1741629Y1544978D02*
X1718303Y1533315D01*
X1694978Y1509989D01*
Y1486663D01*
X1706640Y1475000D01*
X1729966D01*
X1741629Y1486663D01*
Y1498326D01*
X1729966Y1509989D01*
X1694978D01*
X1764955Y1533315D02*
X1776618Y1544978D01*
X1799944D01*
X1811607Y1533315D01*
Y1486663D01*
X1799944Y1475000D01*
X1776618D01*
X1764955Y1486663D01*
Y1533315D01*
X3271652Y1983315D02*
X3259989Y1994977D01*
X3236663D01*
X3225000Y1983315D01*
Y1936663D01*
X3236663Y1925000D01*
X3259989D01*
X3271652Y1936663D01*
X3341629Y1994977D02*
X3318303Y1983315D01*
X3294977Y1959989D01*
Y1936663D01*
X3306640Y1925000D01*
X3329966D01*
X3341629Y1936663D01*
Y1948326D01*
X3329966Y1959989D01*
X3294977D01*
X3411607Y1925000D02*
X3364955D01*
X3411607Y1971652D01*
Y1983315D01*
X3399944Y1994977D01*
X3376618D01*
X3364955Y1983315D01*
X1646652D02*
X1634989Y1994977D01*
X1611663D01*
X1600000Y1983315D01*
Y1936663D01*
X1611663Y1925000D01*
X1634989D01*
X1646652Y1936663D01*
X1716629Y1994977D02*
X1693303Y1983315D01*
X1669978Y1959989D01*
Y1936663D01*
X1681641Y1925000D01*
X1704966D01*
X1716629Y1936663D01*
Y1948326D01*
X1704966Y1959989D01*
X1669978D01*
X1739955Y1983315D02*
X1751618Y1994977D01*
X1774944D01*
X1786607Y1983315D01*
Y1971652D01*
X1774944Y1959989D01*
X1763281D01*
X1774944D01*
X1786607Y1948326D01*
Y1936663D01*
X1774944Y1925000D01*
X1751618D01*
X1739955Y1936663D01*
X1825000Y-475000D02*
Y-405023D01*
X1859989D01*
X1871652Y-416685D01*
Y-440011D01*
X1859989Y-451674D01*
X1825000D01*
X1848326D02*
X1871652Y-475000D01*
X1894977D02*
X1918303D01*
X1906640D01*
Y-405023D01*
X1894977Y-416685D01*
X1953292Y-475000D02*
X1976618D01*
X1964955D01*
Y-405023D01*
X1953292Y-416685D01*
X-3750000Y-1930023D02*
Y-1988337D01*
X-3738337Y-2000000D01*
X-3715011D01*
X-3703348Y-1988337D01*
Y-1930023D01*
X-3633371Y-2000000D02*
X-3680023D01*
X-3633371Y-1953348D01*
Y-1941685D01*
X-3645034Y-1930023D01*
X-3668360D01*
X-3680023Y-1941685D01*
X-1750000Y-1930023D02*
Y-1988337D01*
X-1738337Y-2000000D01*
X-1715011D01*
X-1703348Y-1988337D01*
Y-1930023D01*
X-1633371D02*
X-1680023D01*
Y-1965011D01*
X-1656697Y-1953348D01*
X-1645034D01*
X-1633371Y-1965011D01*
Y-1988337D01*
X-1645034Y-2000000D01*
X-1668360D01*
X-1680023Y-1988337D01*
X250000Y-1630022D02*
Y-1688337D01*
X261663Y-1700000D01*
X284989D01*
X296652Y-1688337D01*
Y-1630022D01*
X319978D02*
X366629D01*
Y-1641685D01*
X319978Y-1688337D01*
Y-1700000D01*
X-5051801Y-180022D02*
Y-238337D01*
X-5040138Y-250000D01*
X-5016812D01*
X-5005149Y-238337D01*
Y-180022D01*
X-4981823Y-238337D02*
X-4970160Y-250000D01*
X-4946835D01*
X-4935172Y-238337D01*
Y-191685D01*
X-4946835Y-180022D01*
X-4970160D01*
X-4981823Y-191685D01*
Y-203348D01*
X-4970160Y-215011D01*
X-4935172D01*
X-3625000Y-180022D02*
Y-238337D01*
X-3613337Y-250000D01*
X-3590011D01*
X-3578348Y-238337D01*
Y-180022D01*
X-3555023Y-191685D02*
X-3543360Y-180022D01*
X-3520034D01*
X-3508371Y-191685D01*
Y-203348D01*
X-3520034Y-215011D01*
X-3531697D01*
X-3520034D01*
X-3508371Y-226674D01*
Y-238337D01*
X-3520034Y-250000D01*
X-3543360D01*
X-3555023Y-238337D01*
X3250000Y2344978D02*
Y2286663D01*
X3261663Y2275000D01*
X3284989D01*
X3296652Y2286663D01*
Y2344978D01*
X3319978Y2333315D02*
X3331641Y2344978D01*
X3354966D01*
X3366629Y2333315D01*
Y2321652D01*
X3354966Y2309989D01*
X3366629Y2298326D01*
Y2286663D01*
X3354966Y2275000D01*
X3331641D01*
X3319978Y2286663D01*
Y2298326D01*
X3331641Y2309989D01*
X3319978Y2321652D01*
Y2333315D01*
X3331641Y2309989D02*
X3354966D01*
X-1156139Y1309877D02*
Y1251563D01*
X-1144476Y1239900D01*
X-1121150D01*
X-1109487Y1251563D01*
Y1309877D01*
X-1039510D02*
X-1062836Y1298215D01*
X-1086161Y1274889D01*
Y1251563D01*
X-1074498Y1239900D01*
X-1051173D01*
X-1039510Y1251563D01*
Y1263226D01*
X-1051173Y1274889D01*
X-1086161D01*
X-5000000Y-2930023D02*
Y-3000000D01*
X-4965011D01*
X-4953348Y-2988337D01*
Y-2976674D01*
X-4965011Y-2965011D01*
X-5000000D01*
X-4965011D01*
X-4953348Y-2953348D01*
Y-2941686D01*
X-4965011Y-2930023D01*
X-5000000D01*
X-4930023Y-3000000D02*
X-4906697D01*
X-4918360D01*
Y-2930023D01*
X-4930023Y-2941686D01*
X-4175000Y-1200000D02*
X-4244978D01*
Y-1165011D01*
X-4233315Y-1153348D01*
X-4209989D01*
X-4198326Y-1165011D01*
Y-1200000D01*
Y-1176674D02*
X-4175000Y-1153348D01*
Y-1083371D02*
Y-1130022D01*
X-4221652Y-1083371D01*
X-4233315D01*
X-4244978Y-1095034D01*
Y-1118359D01*
X-4233315Y-1130022D01*
X-4275000Y-1200000D02*
X-4344978D01*
Y-1165011D01*
X-4333315Y-1153348D01*
X-4309989D01*
X-4298326Y-1165011D01*
Y-1200000D01*
Y-1176674D02*
X-4275000Y-1153348D01*
Y-1130022D02*
Y-1106697D01*
Y-1118359D01*
X-4344978D01*
X-4333315Y-1130022D01*
X-4650000Y-2910000D02*
X-4719978D01*
Y-2875011D01*
X-4708315Y-2863348D01*
X-4684989D01*
X-4673326Y-2875011D01*
Y-2910000D01*
Y-2886674D02*
X-4650000Y-2863348D01*
Y-2805034D02*
X-4719978D01*
X-4684989Y-2840023D01*
Y-2793371D01*
X-4750000Y-2910000D02*
X-4819977D01*
Y-2875011D01*
X-4808314Y-2863348D01*
X-4784989D01*
X-4773326Y-2875011D01*
Y-2910000D01*
Y-2886674D02*
X-4750000Y-2863348D01*
X-4808314Y-2840023D02*
X-4819977Y-2828360D01*
Y-2805034D01*
X-4808314Y-2793371D01*
X-4796652D01*
X-4784989Y-2805034D01*
Y-2816697D01*
Y-2805034D01*
X-4773326Y-2793371D01*
X-4761663D01*
X-4750000Y-2805034D01*
Y-2828360D01*
X-4761663Y-2840023D01*
X-5350000Y-1980022D02*
Y-2050000D01*
X-5303348D01*
X-5233371D02*
X-5280022D01*
X-5233371Y-2003348D01*
Y-1991685D01*
X-5245034Y-1980022D01*
X-5268360D01*
X-5280022Y-1991685D01*
X-3750000Y-1705022D02*
Y-1775000D01*
X-3703348D01*
X-3680023D02*
X-3656697D01*
X-3668360D01*
Y-1705022D01*
X-3680023Y-1716685D01*
X-5378348Y-1741685D02*
X-5390011Y-1730022D01*
X-5413337D01*
X-5425000Y-1741685D01*
Y-1788337D01*
X-5413337Y-1800000D01*
X-5390011D01*
X-5378348Y-1788337D01*
X-5355023Y-1741685D02*
X-5343360Y-1730022D01*
X-5320034D01*
X-5308371Y-1741685D01*
Y-1753348D01*
X-5320034Y-1765011D01*
X-5331697D01*
X-5320034D01*
X-5308371Y-1776674D01*
Y-1788337D01*
X-5320034Y-1800000D01*
X-5343360D01*
X-5355023Y-1788337D01*
X-5378348Y-1216685D02*
X-5390011Y-1205022D01*
X-5413337D01*
X-5425000Y-1216685D01*
Y-1263337D01*
X-5413337Y-1275000D01*
X-5390011D01*
X-5378348Y-1263337D01*
X-5308371Y-1205022D02*
X-5355023D01*
Y-1240011D01*
X-5331697Y-1228348D01*
X-5320034D01*
X-5308371Y-1240011D01*
Y-1263337D01*
X-5320034Y-1275000D01*
X-5343360D01*
X-5355023Y-1263337D01*
X-4333315Y-2328348D02*
X-4344978Y-2340011D01*
Y-2363337D01*
X-4333315Y-2375000D01*
X-4286663D01*
X-4275000Y-2363337D01*
Y-2340011D01*
X-4286663Y-2328348D01*
X-4344978Y-2305023D02*
Y-2258371D01*
X-4333315D01*
X-4286663Y-2305023D01*
X-4275000D01*
X-4503348Y-1166685D02*
X-4515011Y-1155023D01*
X-4538337D01*
X-4550000Y-1166685D01*
Y-1213337D01*
X-4538337Y-1225000D01*
X-4515011D01*
X-4503348Y-1213337D01*
X-4445034Y-1225000D02*
Y-1155023D01*
X-4480023Y-1190011D01*
X-4433371D01*
X-4503348Y-2766685D02*
X-4515011Y-2755022D01*
X-4538337D01*
X-4550000Y-2766685D01*
Y-2813337D01*
X-4538337Y-2825000D01*
X-4515011D01*
X-4503348Y-2813337D01*
X-4433371Y-2755022D02*
X-4456697Y-2766685D01*
X-4480023Y-2790011D01*
Y-2813337D01*
X-4468360Y-2825000D01*
X-4445034D01*
X-4433371Y-2813337D01*
Y-2801674D01*
X-4445034Y-2790011D01*
X-4480023D01*
X-3778348Y-1441685D02*
X-3790011Y-1430023D01*
X-3813337D01*
X-3825000Y-1441685D01*
Y-1488337D01*
X-3813337Y-1500000D01*
X-3790011D01*
X-3778348Y-1488337D01*
X-3755022Y-1500000D02*
X-3731697D01*
X-3743360D01*
Y-1430023D01*
X-3755022Y-1441685D01*
X-4708315Y-1678348D02*
X-4719978Y-1690011D01*
Y-1713337D01*
X-4708315Y-1725000D01*
X-4661663D01*
X-4650000Y-1713337D01*
Y-1690011D01*
X-4661663Y-1678348D01*
X-4708315Y-1655023D02*
X-4719978Y-1643360D01*
Y-1620034D01*
X-4708315Y-1608371D01*
X-4696652D01*
X-4684989Y-1620034D01*
X-4673326Y-1608371D01*
X-4661663D01*
X-4650000Y-1620034D01*
Y-1643360D01*
X-4661663Y-1655023D01*
X-4673326D01*
X-4684989Y-1643360D01*
X-4696652Y-1655023D01*
X-4708315D01*
X-4684989Y-1643360D02*
Y-1620034D01*
X-5233315Y-2553348D02*
X-5244978Y-2565011D01*
Y-2588337D01*
X-5233315Y-2600000D01*
X-5186663D01*
X-5175000Y-2588337D01*
Y-2565011D01*
X-5186663Y-2553348D01*
X-5175000Y-2530022D02*
Y-2506697D01*
Y-2518359D01*
X-5244978D01*
X-5233315Y-2530022D01*
X-5175000Y-2471708D02*
Y-2448382D01*
Y-2460045D01*
X-5244978D01*
X-5233315Y-2471708D01*
X-4769978Y-1875000D02*
X-4711663D01*
X-4700000Y-1863337D01*
Y-1840011D01*
X-4711663Y-1828348D01*
X-4769978D01*
X-4700000Y-1805023D02*
Y-1781697D01*
Y-1793360D01*
X-4769978D01*
X-4758315Y-1805023D01*
X-2025000Y-1575000D02*
X-2094978D01*
Y-1540011D01*
X-2083315Y-1528348D01*
X-2059989D01*
X-2048326Y-1540011D01*
Y-1575000D01*
Y-1551674D02*
X-2025000Y-1528348D01*
X-2036663Y-1505022D02*
X-2025000Y-1493359D01*
Y-1470034D01*
X-2036663Y-1458371D01*
X-2083315D01*
X-2094978Y-1470034D01*
Y-1493359D01*
X-2083315Y-1505022D01*
X-2071652D01*
X-2059989Y-1493359D01*
Y-1458371D01*
X-1900000Y-1575000D02*
X-1969978D01*
Y-1540011D01*
X-1958315Y-1528348D01*
X-1934989D01*
X-1923326Y-1540011D01*
Y-1575000D01*
Y-1551674D02*
X-1900000Y-1528348D01*
X-1958315Y-1505022D02*
X-1969978Y-1493359D01*
Y-1470034D01*
X-1958315Y-1458371D01*
X-1946652D01*
X-1934989Y-1470034D01*
X-1923326Y-1458371D01*
X-1911663D01*
X-1900000Y-1470034D01*
Y-1493359D01*
X-1911663Y-1505022D01*
X-1923326D01*
X-1934989Y-1493359D01*
X-1946652Y-1505022D01*
X-1958315D01*
X-1934989Y-1493359D02*
Y-1470034D01*
X-3348Y-2288337D02*
Y-2241685D01*
X-15011Y-2230022D01*
X-38337D01*
X-50000Y-2241685D01*
Y-2288337D01*
X-38337Y-2300000D01*
X-15011D01*
X-26674Y-2276674D02*
X-3348Y-2300000D01*
X-15011D02*
X-3348Y-2288337D01*
X66629Y-2300000D02*
X19978D01*
X66629Y-2253348D01*
Y-2241685D01*
X54966Y-2230022D01*
X31641D01*
X19978Y-2241685D01*
X-2003348Y-2288337D02*
Y-2241685D01*
X-2015011Y-2230022D01*
X-2038337D01*
X-2050000Y-2241685D01*
Y-2288337D01*
X-2038337Y-2300000D01*
X-2015011D01*
X-2026674Y-2276674D02*
X-2003348Y-2300000D01*
X-2015011D02*
X-2003348Y-2288337D01*
X-1980022Y-2300000D02*
X-1956697D01*
X-1968360D01*
Y-2230022D01*
X-1980022Y-2241685D01*
X-3793348Y2294978D02*
X-3816674D01*
X-3805011D01*
Y2236663D01*
X-3816674Y2225000D01*
X-3828337D01*
X-3840000Y2236663D01*
X-3723371Y2225000D02*
X-3770022D01*
X-3723371Y2271652D01*
Y2283315D01*
X-3735034Y2294978D01*
X-3758360D01*
X-3770022Y2283315D01*
X1686801Y950000D02*
X1616824D01*
Y984989D01*
X1628486Y996652D01*
X1651812D01*
X1663475Y984989D01*
Y950000D01*
Y973326D02*
X1686801Y996652D01*
Y1019977D02*
Y1043303D01*
Y1031640D01*
X1616824D01*
X1628486Y1019977D01*
Y1078292D02*
X1616824Y1089955D01*
Y1113281D01*
X1628486Y1124944D01*
X1675138D01*
X1686801Y1113281D01*
Y1089955D01*
X1675138Y1078292D01*
X1628486D01*
X-3475000Y1294978D02*
Y1225000D01*
X-3440011D01*
X-3428348Y1236663D01*
Y1283315D01*
X-3440011Y1294978D01*
X-3475000D01*
X-3405022Y1225000D02*
X-3381697D01*
X-3393359D01*
Y1294978D01*
X-3405022Y1283315D01*
X-2991547Y2294977D02*
X-3014873D01*
X-3003210D01*
Y2236663D01*
X-3014873Y2225000D01*
X-3026536D01*
X-3038199Y2236663D01*
X-2968221Y2225000D02*
X-2944896D01*
X-2956558D01*
Y2294977D01*
X-2968221Y2283314D01*
X1888215Y-2650016D02*
X1818237D01*
Y-2615027D01*
X1829900Y-2603364D01*
X1853226D01*
X1864889Y-2615027D01*
Y-2650016D01*
Y-2626690D02*
X1888215Y-2603364D01*
Y-2580038D02*
Y-2556712D01*
Y-2568375D01*
X1818237D01*
X1829900Y-2580038D01*
Y-2521724D02*
X1818237Y-2510061D01*
Y-2486735D01*
X1829900Y-2475072D01*
X1841563D01*
X1853226Y-2486735D01*
Y-2498398D01*
Y-2486735D01*
X1864889Y-2475072D01*
X1876552D01*
X1888215Y-2486735D01*
Y-2510061D01*
X1876552Y-2521724D01*
X1986769Y-2650000D02*
X1916792D01*
Y-2615011D01*
X1928455Y-2603348D01*
X1951781D01*
X1963444Y-2615011D01*
Y-2650000D01*
Y-2626674D02*
X1986769Y-2603348D01*
Y-2580023D02*
Y-2556697D01*
Y-2568360D01*
X1916792D01*
X1928455Y-2580023D01*
X1986769Y-2486719D02*
X1916792D01*
X1951781Y-2521708D01*
Y-2475056D01*
X-2075000Y-3075000D02*
X-2144977D01*
Y-3040011D01*
X-2133315Y-3028348D01*
X-2109989D01*
X-2098326Y-3040011D01*
Y-3075000D01*
Y-3051674D02*
X-2075000Y-3028348D01*
Y-3005022D02*
Y-2981696D01*
Y-2993359D01*
X-2144977D01*
X-2133315Y-3005022D01*
X-2144977Y-2900056D02*
Y-2946708D01*
X-2109989D01*
X-2121652Y-2923382D01*
Y-2911719D01*
X-2109989Y-2900056D01*
X-2086663D01*
X-2075000Y-2911719D01*
Y-2935045D01*
X-2086663Y-2946708D01*
X-1975000Y-3075000D02*
X-2044978D01*
Y-3040011D01*
X-2033315Y-3028348D01*
X-2009989D01*
X-1998326Y-3040011D01*
Y-3075000D01*
Y-3051674D02*
X-1975000Y-3028348D01*
Y-3005022D02*
Y-2981696D01*
Y-2993359D01*
X-2044978D01*
X-2033315Y-3005022D01*
X-2044978Y-2900056D02*
X-2033315Y-2923382D01*
X-2009989Y-2946708D01*
X-1986663D01*
X-1975000Y-2935045D01*
Y-2911719D01*
X-1986663Y-2900056D01*
X-1998326D01*
X-2009989Y-2911719D01*
Y-2946708D01*
X-350000Y-1700000D02*
X-419978D01*
Y-1665011D01*
X-408315Y-1653348D01*
X-384989D01*
X-373326Y-1665011D01*
Y-1700000D01*
Y-1676674D02*
X-350000Y-1653348D01*
Y-1630022D02*
Y-1606697D01*
Y-1618359D01*
X-419978D01*
X-408315Y-1630022D01*
X-419978Y-1571708D02*
Y-1525056D01*
X-408315D01*
X-361663Y-1571708D01*
X-350000D01*
X-225000Y-1700000D02*
X-294978D01*
Y-1665011D01*
X-283315Y-1653348D01*
X-259989D01*
X-248326Y-1665011D01*
Y-1700000D01*
Y-1676674D02*
X-225000Y-1653348D01*
Y-1630022D02*
Y-1606697D01*
Y-1618359D01*
X-294978D01*
X-283315Y-1630022D01*
Y-1571708D02*
X-294978Y-1560045D01*
Y-1536719D01*
X-283315Y-1525056D01*
X-271652D01*
X-259989Y-1536719D01*
X-248326Y-1525056D01*
X-236663D01*
X-225000Y-1536719D01*
Y-1560045D01*
X-236663Y-1571708D01*
X-248326D01*
X-259989Y-1560045D01*
X-271652Y-1571708D01*
X-283315D01*
X-259989Y-1560045D02*
Y-1536719D01*
X1561801Y950000D02*
X1491824D01*
Y984989D01*
X1503486Y996652D01*
X1526812D01*
X1538475Y984989D01*
Y950000D01*
Y973326D02*
X1561801Y996652D01*
Y1019977D02*
Y1043303D01*
Y1031640D01*
X1491824D01*
X1503486Y1019977D01*
X1550138Y1078292D02*
X1561801Y1089955D01*
Y1113281D01*
X1550138Y1124944D01*
X1503486D01*
X1491824Y1113281D01*
Y1089955D01*
X1503486Y1078292D01*
X1515149D01*
X1526812Y1089955D01*
Y1124944D01*
X1275000Y-1475000D02*
X1205022D01*
Y-1440011D01*
X1216685Y-1428348D01*
X1240011D01*
X1251674Y-1440011D01*
Y-1475000D01*
Y-1451674D02*
X1275000Y-1428348D01*
Y-1358371D02*
Y-1405023D01*
X1228348Y-1358371D01*
X1216685D01*
X1205022Y-1370034D01*
Y-1393360D01*
X1216685Y-1405023D01*
Y-1335045D02*
X1205022Y-1323382D01*
Y-1300056D01*
X1216685Y-1288393D01*
X1263337D01*
X1275000Y-1300056D01*
Y-1323382D01*
X1263337Y-1335045D01*
X1216685D01*
X-1900000Y950000D02*
X-1969978D01*
Y984989D01*
X-1958315Y996652D01*
X-1934989D01*
X-1923326Y984989D01*
Y950000D01*
Y973326D02*
X-1900000Y996652D01*
Y1066629D02*
Y1019977D01*
X-1946652Y1066629D01*
X-1958315D01*
X-1969978Y1054966D01*
Y1031640D01*
X-1958315Y1019977D01*
X-1900000Y1089955D02*
Y1113281D01*
Y1101618D01*
X-1969978D01*
X-1958315Y1089955D01*
X-1775000Y950000D02*
X-1844978D01*
Y984989D01*
X-1833315Y996652D01*
X-1809989D01*
X-1798326Y984989D01*
Y950000D01*
Y973326D02*
X-1775000Y996652D01*
Y1066629D02*
Y1019977D01*
X-1821652Y1066629D01*
X-1833315D01*
X-1844978Y1054966D01*
Y1031640D01*
X-1833315Y1019977D01*
X-1775000Y1136607D02*
Y1089955D01*
X-1821652Y1136607D01*
X-1833315D01*
X-1844978Y1124944D01*
Y1101618D01*
X-1833315Y1089955D01*
X150000Y-2950000D02*
X80022D01*
Y-2915011D01*
X91685Y-2903348D01*
X115011D01*
X126674Y-2915011D01*
Y-2950000D01*
Y-2926674D02*
X150000Y-2903348D01*
Y-2880022D02*
X80022D01*
Y-2845034D01*
X91685Y-2833371D01*
X115011D01*
X126674Y-2845034D01*
Y-2880022D01*
X150000Y-2810045D02*
Y-2786719D01*
Y-2798382D01*
X80022D01*
X91685Y-2810045D01*
X275000Y-2950000D02*
X205022D01*
Y-2915011D01*
X216685Y-2903348D01*
X240011D01*
X251674Y-2915011D01*
Y-2950000D01*
Y-2926674D02*
X275000Y-2903348D01*
Y-2880022D02*
X205022D01*
Y-2845034D01*
X216685Y-2833371D01*
X240011D01*
X251674Y-2845034D01*
Y-2880022D01*
X275000Y-2763393D02*
Y-2810045D01*
X228348Y-2763393D01*
X216685D01*
X205022Y-2775056D01*
Y-2798382D01*
X216685Y-2810045D01*
X1800000Y-2950000D02*
X1730022D01*
Y-2915011D01*
X1741685Y-2903348D01*
X1765011D01*
X1776674Y-2915011D01*
Y-2950000D01*
Y-2926674D02*
X1800000Y-2903348D01*
Y-2880022D02*
X1730022D01*
Y-2845034D01*
X1741685Y-2833371D01*
X1765011D01*
X1776674Y-2845034D01*
Y-2880022D01*
X1741685Y-2810045D02*
X1730022Y-2798382D01*
Y-2775056D01*
X1741685Y-2763393D01*
X1753348D01*
X1765011Y-2775056D01*
Y-2786719D01*
Y-2775056D01*
X1776674Y-2763393D01*
X1788337D01*
X1800000Y-2775056D01*
Y-2798382D01*
X1788337Y-2810045D01*
X1925000Y-2950000D02*
X1855022D01*
Y-2915011D01*
X1866685Y-2903348D01*
X1890011D01*
X1901674Y-2915011D01*
Y-2950000D01*
Y-2926674D02*
X1925000Y-2903348D01*
Y-2880022D02*
X1855022D01*
Y-2845034D01*
X1866685Y-2833371D01*
X1890011D01*
X1901674Y-2845034D01*
Y-2880022D01*
X1925000Y-2775056D02*
X1855022D01*
X1890011Y-2810045D01*
Y-2763393D01*
X1725000Y-1205022D02*
Y-1263337D01*
X1736663Y-1275000D01*
X1759989D01*
X1771652Y-1263337D01*
Y-1205022D01*
X1794978Y-1275000D02*
X1818303D01*
X1806641D01*
Y-1205022D01*
X1794978Y-1216685D01*
X1853292D02*
X1864955Y-1205022D01*
X1888281D01*
X1899944Y-1216685D01*
Y-1263337D01*
X1888281Y-1275000D01*
X1864955D01*
X1853292Y-1263337D01*
Y-1216685D01*
X2166181Y-1037083D02*
Y-1095397D01*
X2177844Y-1107060D01*
X2201170D01*
X2212833Y-1095397D01*
Y-1037083D01*
X2236159Y-1107060D02*
X2259484D01*
X2247822D01*
Y-1037083D01*
X2236159Y-1048745D01*
X2294473Y-1107060D02*
X2317799D01*
X2306136D01*
Y-1037083D01*
X2294473Y-1048745D01*
X-3625000Y-705022D02*
Y-763337D01*
X-3613337Y-775000D01*
X-3590011D01*
X-3578348Y-763337D01*
Y-705022D01*
X-3520034Y-775000D02*
Y-705022D01*
X-3555023Y-740011D01*
X-3508371D01*
X3126536Y-315011D02*
X3103210D01*
X3114873D01*
Y-373326D01*
X3103210Y-384989D01*
X3091547D01*
X3079884Y-373326D01*
X3149862Y-326674D02*
X3161525Y-315011D01*
X3184850D01*
X3196513Y-326674D01*
Y-338337D01*
X3184850Y-350000D01*
X3173187D01*
X3184850D01*
X3196513Y-361663D01*
Y-373326D01*
X3184850Y-384989D01*
X3161525D01*
X3149862Y-373326D01*
X3181697Y-1709989D02*
Y-1640011D01*
X3216685D01*
X3228348Y-1651674D01*
Y-1675000D01*
X3216685Y-1686663D01*
X3181697D01*
X3205023D02*
X3228348Y-1709989D01*
X3298326D02*
X3251674D01*
X3298326Y-1663337D01*
Y-1651674D01*
X3286663Y-1640011D01*
X3263337D01*
X3251674Y-1651674D01*
X3321652D02*
X3333315Y-1640011D01*
X3356640D01*
X3368303Y-1651674D01*
Y-1663337D01*
X3356640Y-1675000D01*
X3344978D01*
X3356640D01*
X3368303Y-1686663D01*
Y-1698326D01*
X3356640Y-1709989D01*
X3333315D01*
X3321652Y-1698326D01*
X-4958315Y-1165011D02*
Y-1234989D01*
X-4911663D01*
X-4888337Y-1176674D02*
X-4876674Y-1165011D01*
X-4853348D01*
X-4841686Y-1176674D01*
Y-1188337D01*
X-4853348Y-1200000D01*
X-4865011D01*
X-4853348D01*
X-4841686Y-1211663D01*
Y-1223326D01*
X-4853348Y-1234989D01*
X-4876674D01*
X-4888337Y-1223326D01*
X-4223326Y-2536663D02*
X-4234989Y-2548326D01*
Y-2571652D01*
X-4223326Y-2583315D01*
X-4176674D01*
X-4165011Y-2571652D01*
Y-2548326D01*
X-4176674Y-2536663D01*
X-4165011Y-2466685D02*
Y-2513337D01*
X-4211663Y-2466685D01*
X-4223326D01*
X-4234989Y-2478348D01*
Y-2501674D01*
X-4223326Y-2513337D01*
X-4875000Y-905023D02*
Y-975000D01*
X-4840011D01*
X-4828348Y-963337D01*
Y-916685D01*
X-4840011Y-905023D01*
X-4875000D01*
X-4758371Y-975000D02*
X-4805022D01*
X-4758371Y-928348D01*
Y-916685D01*
X-4770034Y-905023D01*
X-4793359D01*
X-4805022Y-916685D01*
%TF.MD5,e8c2fc3bd5e0af78371a079563c4d7f7*%
M02*
