%TF.GenerationSoftware,Altium Limited,Altium Designer,23.10.1 (27)*%
G04 Layer_Color=16711935*
%FSLAX45Y45*%
%MOMM*%
%TF.SameCoordinates,E65562DB-48BA-4528-A783-DBC4A45482EB*%
%TF.FilePolarity,Negative*%
%TF.FileFunction,Soldermask,Bot*%
%TF.Part,Single*%
G01*
G75*
%TA.AperFunction,NonConductor*%
%ADD66R,83.82000X8.69900*%
%ADD68R,103.50000X2.00000*%
%TA.AperFunction,SMDPad,CuDef*%
%ADD77R,2.41300X8.12800*%
%TA.AperFunction,WasherPad*%
%ADD98C,5.18000*%
%TA.AperFunction,ComponentPad*%
%ADD99C,0.71000*%
%ADD100O,0.86000X1.26000*%
%ADD101C,1.50000*%
G36*
X-4838200Y-3231500D02*
X-5160800D01*
Y-3040000D01*
X-6173199D01*
X-6173200Y2646000D01*
X-5973200D01*
Y-2829000D01*
X-4838200D01*
Y-3231500D01*
D02*
G37*
G36*
X2841801Y-3231500D02*
X3164401D01*
Y-3040000D01*
X4176800D01*
X4176801Y2646000D01*
X3976801D01*
Y-2829000D01*
X2841801D01*
Y-3231500D01*
D02*
G37*
D66*
X-1000000Y-3640050D02*
D03*
D68*
X-998199Y2546000D02*
D03*
D77*
X-4937000Y-3611500D02*
D03*
X-4683000D02*
D03*
X-4429000D02*
D03*
X-4175000D02*
D03*
X-3921000D02*
D03*
X-3667000D02*
D03*
X-3413000D02*
D03*
X-3159000D02*
D03*
X-2905000D02*
D03*
X-2651000D02*
D03*
X-2397000D02*
D03*
X-2143000D02*
D03*
X-1889000D02*
D03*
X-1635000D02*
D03*
X-1381000D02*
D03*
X-1127000D02*
D03*
X-873000D02*
D03*
X-619000D02*
D03*
X-365000D02*
D03*
X-111000D02*
D03*
X143000D02*
D03*
X397000D02*
D03*
X651000D02*
D03*
X905000D02*
D03*
X1159000D02*
D03*
X1413000D02*
D03*
X1667000D02*
D03*
X1921000D02*
D03*
X2175000D02*
D03*
X2429000D02*
D03*
X2683000D02*
D03*
X2937000D02*
D03*
D98*
X-4413199Y-500000D02*
D03*
X2536801D02*
D03*
D99*
X-2133199Y1655000D02*
D03*
X-2173199Y1725000D02*
D03*
X-2253199D02*
D03*
X-2333199D02*
D03*
X-2373199Y1655000D02*
D03*
X-2293199D02*
D03*
X-2493199Y1725000D02*
D03*
X-2573199D02*
D03*
X-2533199Y1655000D02*
D03*
X-2453199D02*
D03*
X-2653199Y1725000D02*
D03*
X-2693199Y1655000D02*
D03*
X-2213199D02*
D03*
X-2613199D02*
D03*
D100*
X-1988199Y1770000D02*
D03*
X-2838199D02*
D03*
X-1988199Y2242500D02*
D03*
X-2838199D02*
D03*
D101*
X3750000Y-950000D02*
D03*
X3550000D02*
D03*
Y-750000D02*
D03*
X3750000D02*
D03*
X3550000Y-550000D02*
D03*
X3750000D02*
D03*
X3550000Y-350000D02*
D03*
X3750000D02*
D03*
X3550000Y-150000D02*
D03*
X3750000D02*
D03*
X3550000Y50000D02*
D03*
X3750000D02*
D03*
X3550000Y250000D02*
D03*
X3750000D02*
D03*
%TF.MD5,f01a6b22bfea1297859ec915e78349ca*%
M02*
