%TF.GenerationSoftware,Altium Limited,Altium Designer,23.10.1 (27)*%
G04 Layer_Color=8421504*
%FSLAX45Y45*%
%MOMM*%
%TF.SameCoordinates,E65562DB-48BA-4528-A783-DBC4A45482EB*%
%TF.FilePolarity,Positive*%
%TF.FileFunction,Paste,Top*%
%TF.Part,Single*%
G01*
G75*
%TA.AperFunction,SMDPad,CuDef*%
G04:AMPARAMS|DCode=13|XSize=5.5mm|YSize=1.5mm|CornerRadius=0.1875mm|HoleSize=0mm|Usage=FLASHONLY|Rotation=0.000|XOffset=0mm|YOffset=0mm|HoleType=Round|Shape=RoundedRectangle|*
%AMROUNDEDRECTD13*
21,1,5.50000,1.12500,0,0,0.0*
21,1,5.12500,1.50000,0,0,0.0*
1,1,0.37500,2.56250,-0.56250*
1,1,0.37500,-2.56250,-0.56250*
1,1,0.37500,-2.56250,0.56250*
1,1,0.37500,2.56250,0.56250*
%
%ADD13ROUNDEDRECTD13*%
%ADD14O,0.25000X1.50000*%
%ADD15O,2.20000X0.60000*%
%ADD16O,1.80000X0.30000*%
%ADD17O,0.30000X1.80000*%
%ADD18R,5.00000X1.50000*%
G04:AMPARAMS|DCode=19|XSize=0.28mm|YSize=1mm|CornerRadius=0.07mm|HoleSize=0mm|Usage=FLASHONLY|Rotation=0.000|XOffset=0mm|YOffset=0mm|HoleType=Round|Shape=RoundedRectangle|*
%AMROUNDEDRECTD19*
21,1,0.28000,0.86000,0,0,0.0*
21,1,0.14000,1.00000,0,0,0.0*
1,1,0.14000,0.07000,-0.43000*
1,1,0.14000,-0.07000,-0.43000*
1,1,0.14000,-0.07000,0.43000*
1,1,0.14000,0.07000,0.43000*
%
%ADD19ROUNDEDRECTD19*%
G04:AMPARAMS|DCode=20|XSize=1mm|YSize=0.6mm|CornerRadius=0.075mm|HoleSize=0mm|Usage=FLASHONLY|Rotation=270.000|XOffset=0mm|YOffset=0mm|HoleType=Round|Shape=RoundedRectangle|*
%AMROUNDEDRECTD20*
21,1,1.00000,0.45000,0,0,270.0*
21,1,0.85000,0.60000,0,0,270.0*
1,1,0.15000,-0.22500,-0.42500*
1,1,0.15000,-0.22500,0.42500*
1,1,0.15000,0.22500,0.42500*
1,1,0.15000,0.22500,-0.42500*
%
%ADD20ROUNDEDRECTD20*%
%ADD22O,1.70000X0.35000*%
G04:AMPARAMS|DCode=23|XSize=0.5mm|YSize=0.6mm|CornerRadius=0.0625mm|HoleSize=0mm|Usage=FLASHONLY|Rotation=0.000|XOffset=0mm|YOffset=0mm|HoleType=Round|Shape=RoundedRectangle|*
%AMROUNDEDRECTD23*
21,1,0.50000,0.47500,0,0,0.0*
21,1,0.37500,0.60000,0,0,0.0*
1,1,0.12500,0.18750,-0.23750*
1,1,0.12500,-0.18750,-0.23750*
1,1,0.12500,-0.18750,0.23750*
1,1,0.12500,0.18750,0.23750*
%
%ADD23ROUNDEDRECTD23*%
G04:AMPARAMS|DCode=24|XSize=0.5mm|YSize=0.6mm|CornerRadius=0.0625mm|HoleSize=0mm|Usage=FLASHONLY|Rotation=270.000|XOffset=0mm|YOffset=0mm|HoleType=Round|Shape=RoundedRectangle|*
%AMROUNDEDRECTD24*
21,1,0.50000,0.47500,0,0,270.0*
21,1,0.37500,0.60000,0,0,270.0*
1,1,0.12500,-0.23750,-0.18750*
1,1,0.12500,-0.23750,0.18750*
1,1,0.12500,0.23750,0.18750*
1,1,0.12500,0.23750,-0.18750*
%
%ADD24ROUNDEDRECTD24*%
%ADD25O,0.40000X2.05000*%
G04:AMPARAMS|DCode=26|XSize=1mm|YSize=2.6mm|CornerRadius=0.125mm|HoleSize=0mm|Usage=FLASHONLY|Rotation=270.000|XOffset=0mm|YOffset=0mm|HoleType=Round|Shape=RoundedRectangle|*
%AMROUNDEDRECTD26*
21,1,1.00000,2.35000,0,0,270.0*
21,1,0.75000,2.60000,0,0,270.0*
1,1,0.25000,-1.17500,-0.37500*
1,1,0.25000,-1.17500,0.37500*
1,1,0.25000,1.17500,0.37500*
1,1,0.25000,1.17500,-0.37500*
%
%ADD26ROUNDEDRECTD26*%
G04:AMPARAMS|DCode=27|XSize=1mm|YSize=2.6mm|CornerRadius=0.125mm|HoleSize=0mm|Usage=FLASHONLY|Rotation=0.000|XOffset=0mm|YOffset=0mm|HoleType=Round|Shape=RoundedRectangle|*
%AMROUNDEDRECTD27*
21,1,1.00000,2.35000,0,0,0.0*
21,1,0.75000,2.60000,0,0,0.0*
1,1,0.25000,0.37500,-1.17500*
1,1,0.25000,-0.37500,-1.17500*
1,1,0.25000,-0.37500,1.17500*
1,1,0.25000,0.37500,1.17500*
%
%ADD27ROUNDEDRECTD27*%
G04:AMPARAMS|DCode=28|XSize=0.75mm|YSize=1mm|CornerRadius=0.09375mm|HoleSize=0mm|Usage=FLASHONLY|Rotation=0.000|XOffset=0mm|YOffset=0mm|HoleType=Round|Shape=RoundedRectangle|*
%AMROUNDEDRECTD28*
21,1,0.75000,0.81250,0,0,0.0*
21,1,0.56250,1.00000,0,0,0.0*
1,1,0.18750,0.28125,-0.40625*
1,1,0.18750,-0.28125,-0.40625*
1,1,0.18750,-0.28125,0.40625*
1,1,0.18750,0.28125,0.40625*
%
%ADD28ROUNDEDRECTD28*%
G04:AMPARAMS|DCode=29|XSize=0.75mm|YSize=1mm|CornerRadius=0.09375mm|HoleSize=0mm|Usage=FLASHONLY|Rotation=270.000|XOffset=0mm|YOffset=0mm|HoleType=Round|Shape=RoundedRectangle|*
%AMROUNDEDRECTD29*
21,1,0.75000,0.81250,0,0,270.0*
21,1,0.56250,1.00000,0,0,270.0*
1,1,0.18750,-0.40625,-0.28125*
1,1,0.18750,-0.40625,0.28125*
1,1,0.18750,0.40625,0.28125*
1,1,0.18750,0.40625,-0.28125*
%
%ADD29ROUNDEDRECTD29*%
G04:AMPARAMS|DCode=30|XSize=0.8mm|YSize=0.5mm|CornerRadius=0.0625mm|HoleSize=0mm|Usage=FLASHONLY|Rotation=270.000|XOffset=0mm|YOffset=0mm|HoleType=Round|Shape=RoundedRectangle|*
%AMROUNDEDRECTD30*
21,1,0.80000,0.37500,0,0,270.0*
21,1,0.67500,0.50000,0,0,270.0*
1,1,0.12500,-0.18750,-0.33750*
1,1,0.12500,-0.18750,0.33750*
1,1,0.12500,0.18750,0.33750*
1,1,0.12500,0.18750,-0.33750*
%
%ADD30ROUNDEDRECTD30*%
%TA.AperFunction,ConnectorPad*%
%ADD31O,0.30000X1.50000*%
%TA.AperFunction,SMDPad,CuDef*%
G04:AMPARAMS|DCode=32|XSize=3.4mm|YSize=1.5mm|CornerRadius=0.075mm|HoleSize=0mm|Usage=FLASHONLY|Rotation=0.000|XOffset=0mm|YOffset=0mm|HoleType=Round|Shape=RoundedRectangle|*
%AMROUNDEDRECTD32*
21,1,3.40000,1.35000,0,0,0.0*
21,1,3.25000,1.50000,0,0,0.0*
1,1,0.15000,1.62500,-0.67500*
1,1,0.15000,-1.62500,-0.67500*
1,1,0.15000,-1.62500,0.67500*
1,1,0.15000,1.62500,0.67500*
%
%ADD32ROUNDEDRECTD32*%
G04:AMPARAMS|DCode=33|XSize=2mm|YSize=2mm|CornerRadius=0.25mm|HoleSize=0mm|Usage=FLASHONLY|Rotation=270.000|XOffset=0mm|YOffset=0mm|HoleType=Round|Shape=RoundedRectangle|*
%AMROUNDEDRECTD33*
21,1,2.00000,1.50000,0,0,270.0*
21,1,1.50000,2.00000,0,0,270.0*
1,1,0.50000,-0.75000,-0.75000*
1,1,0.50000,-0.75000,0.75000*
1,1,0.50000,0.75000,0.75000*
1,1,0.50000,0.75000,-0.75000*
%
%ADD33ROUNDEDRECTD33*%
%ADD34R,1.50000X2.50000*%
%ADD35R,2.50000X1.50000*%
%ADD36R,2.50000X1.50000*%
%ADD37R,0.80000X2.50000*%
%ADD38R,1.50000X2.50000*%
%ADD39R,0.60000X1.00000*%
%ADD40O,1.50000X0.55000*%
D13*
X-3175000Y875000D02*
D03*
X-2325000D02*
D03*
D14*
X-3575000Y-2860000D02*
D03*
X-3525000D02*
D03*
X-3475000D02*
D03*
X-3425000D02*
D03*
X-3375000D02*
D03*
X-3325000D02*
D03*
X-3275000D02*
D03*
X-3225000D02*
D03*
X-3175000D02*
D03*
X-3125000D02*
D03*
X-3075000D02*
D03*
X-3025000D02*
D03*
X-2975000D02*
D03*
X-2925000D02*
D03*
X-2875000D02*
D03*
X-2825000D02*
D03*
X-2775000D02*
D03*
X-2725000D02*
D03*
X-2675000D02*
D03*
X-2625000D02*
D03*
X-2575000D02*
D03*
X-2525000D02*
D03*
X-2475000D02*
D03*
X-2425000D02*
D03*
X-3575000Y-2140000D02*
D03*
X-3525000D02*
D03*
X-3475000D02*
D03*
X-3425000D02*
D03*
X-3375000D02*
D03*
X-3325000D02*
D03*
X-3275000D02*
D03*
X-3225000D02*
D03*
X-3175000D02*
D03*
X-3125000D02*
D03*
X-3075000D02*
D03*
X-3025000D02*
D03*
X-2975000D02*
D03*
X-2925000D02*
D03*
X-2875000D02*
D03*
X-2825000D02*
D03*
X-2775000D02*
D03*
X-2725000D02*
D03*
X-2675000D02*
D03*
X-2625000D02*
D03*
X-2575000D02*
D03*
X-2525000D02*
D03*
X-2475000D02*
D03*
X-2425000D02*
D03*
X-1575000Y-2860000D02*
D03*
X-1525000D02*
D03*
X-1475000D02*
D03*
X-1425000D02*
D03*
X-1375000D02*
D03*
X-1325000D02*
D03*
X-1275000D02*
D03*
X-1225000D02*
D03*
X-1175000D02*
D03*
X-1125000D02*
D03*
X-1075000D02*
D03*
X-1025000D02*
D03*
X-975000D02*
D03*
X-925000D02*
D03*
X-875000D02*
D03*
X-825000D02*
D03*
X-775000D02*
D03*
X-725000D02*
D03*
X-675000D02*
D03*
X-625000D02*
D03*
X-575000D02*
D03*
X-525000D02*
D03*
X-475000D02*
D03*
X-425000D02*
D03*
X-1575000Y-2140000D02*
D03*
X-1525000D02*
D03*
X-1475000D02*
D03*
X-1425000D02*
D03*
X-1375000D02*
D03*
X-1325000D02*
D03*
X-1275000D02*
D03*
X-1225000D02*
D03*
X-1175000D02*
D03*
X-1125000D02*
D03*
X-1075000D02*
D03*
X-1025000D02*
D03*
X-975000D02*
D03*
X-925000D02*
D03*
X-875000D02*
D03*
X-825000D02*
D03*
X-775000D02*
D03*
X-725000D02*
D03*
X-675000D02*
D03*
X-625000D02*
D03*
X-575000D02*
D03*
X-525000D02*
D03*
X-475000D02*
D03*
X-425000D02*
D03*
X425000Y-2560000D02*
D03*
X475000D02*
D03*
X525000D02*
D03*
X575000D02*
D03*
X625000D02*
D03*
X675000D02*
D03*
X725000D02*
D03*
X775000D02*
D03*
X825000D02*
D03*
X875000D02*
D03*
X925000D02*
D03*
X975000D02*
D03*
X1025000D02*
D03*
X1075000D02*
D03*
X1125000D02*
D03*
X1175000D02*
D03*
X1225000D02*
D03*
X1275000D02*
D03*
X1325000D02*
D03*
X1375000D02*
D03*
X1425000D02*
D03*
X1475000D02*
D03*
X1525000D02*
D03*
X1575000D02*
D03*
X425000Y-1840000D02*
D03*
X475000D02*
D03*
X525000D02*
D03*
X575000D02*
D03*
X625000D02*
D03*
X675000D02*
D03*
X725000D02*
D03*
X775000D02*
D03*
X825000D02*
D03*
X875000D02*
D03*
X925000D02*
D03*
X975000D02*
D03*
X1025000D02*
D03*
X1075000D02*
D03*
X1125000D02*
D03*
X1175000D02*
D03*
X1225000D02*
D03*
X1275000D02*
D03*
X1325000D02*
D03*
X1375000D02*
D03*
X1425000D02*
D03*
X1475000D02*
D03*
X1525000D02*
D03*
X1575000D02*
D03*
D15*
X-3740000Y340500D02*
D03*
Y213500D02*
D03*
Y86500D02*
D03*
Y-40500D02*
D03*
X-3260000Y340500D02*
D03*
Y213500D02*
D03*
Y86500D02*
D03*
Y-40500D02*
D03*
X-4760000Y-40500D02*
D03*
Y86500D02*
D03*
Y213500D02*
D03*
Y340500D02*
D03*
X-5240000Y-40500D02*
D03*
Y86500D02*
D03*
Y213500D02*
D03*
Y340500D02*
D03*
D16*
X-1055000Y-875000D02*
D03*
X-1055000Y-825000D02*
D03*
Y-775000D02*
D03*
Y-725000D02*
D03*
Y-675000D02*
D03*
Y-625000D02*
D03*
X-1055000Y-575000D02*
D03*
Y-525000D02*
D03*
X-1055000Y-475000D02*
D03*
Y-425000D02*
D03*
Y-375000D02*
D03*
Y-325000D02*
D03*
Y-275000D02*
D03*
X-1055000Y-225000D02*
D03*
Y-175000D02*
D03*
X-1055000Y-125000D02*
D03*
Y-75000D02*
D03*
Y-25000D02*
D03*
Y25000D02*
D03*
Y75000D02*
D03*
Y125000D02*
D03*
Y175000D02*
D03*
Y225000D02*
D03*
Y275000D02*
D03*
Y325000D02*
D03*
Y375000D02*
D03*
X-1055000Y425000D02*
D03*
Y475000D02*
D03*
Y525000D02*
D03*
X-1055000Y575000D02*
D03*
Y625000D02*
D03*
Y675000D02*
D03*
Y725000D02*
D03*
Y775000D02*
D03*
X-1055000Y825000D02*
D03*
Y875000D02*
D03*
X1055000D02*
D03*
Y825000D02*
D03*
Y775000D02*
D03*
Y725000D02*
D03*
Y675000D02*
D03*
Y625000D02*
D03*
Y575000D02*
D03*
Y525000D02*
D03*
Y475000D02*
D03*
Y425000D02*
D03*
Y375000D02*
D03*
X1055000Y325000D02*
D03*
X1055000Y275000D02*
D03*
Y225000D02*
D03*
Y175000D02*
D03*
Y125000D02*
D03*
Y75000D02*
D03*
Y25000D02*
D03*
X1055000Y-25000D02*
D03*
Y-75000D02*
D03*
X1055000Y-125000D02*
D03*
Y-175000D02*
D03*
Y-225000D02*
D03*
Y-275000D02*
D03*
Y-325000D02*
D03*
Y-375000D02*
D03*
Y-425000D02*
D03*
Y-475000D02*
D03*
Y-525000D02*
D03*
Y-575000D02*
D03*
Y-625000D02*
D03*
Y-675000D02*
D03*
Y-725000D02*
D03*
Y-775000D02*
D03*
Y-825000D02*
D03*
Y-875000D02*
D03*
D17*
X-875000Y1055000D02*
D03*
X-825000Y1055000D02*
D03*
X-775000D02*
D03*
X-725000Y1055000D02*
D03*
X-675000D02*
D03*
X-625000D02*
D03*
X-575000D02*
D03*
X-525000D02*
D03*
X-475000Y1055000D02*
D03*
X-425000D02*
D03*
X-375000D02*
D03*
X-325000Y1055000D02*
D03*
X-275000D02*
D03*
X-225000D02*
D03*
X-175000D02*
D03*
X-125000D02*
D03*
X-75000D02*
D03*
X-25000D02*
D03*
X25000D02*
D03*
X75000D02*
D03*
X125000D02*
D03*
X175000Y1055000D02*
D03*
X225000D02*
D03*
X275000D02*
D03*
X325000Y1055000D02*
D03*
X375000D02*
D03*
X425000D02*
D03*
X475000D02*
D03*
X525000D02*
D03*
X575000Y1055000D02*
D03*
X625000D02*
D03*
X675000Y1055000D02*
D03*
X725000D02*
D03*
X775000D02*
D03*
X825000D02*
D03*
X875000D02*
D03*
Y-1055000D02*
D03*
X825000D02*
D03*
X775000Y-1055000D02*
D03*
X725000Y-1055000D02*
D03*
X675000D02*
D03*
X625000D02*
D03*
X575000D02*
D03*
X525000D02*
D03*
X475000D02*
D03*
X425000D02*
D03*
X375000D02*
D03*
X325000D02*
D03*
X275000D02*
D03*
X225000D02*
D03*
X175000D02*
D03*
X125000Y-1055000D02*
D03*
X75000D02*
D03*
X25000D02*
D03*
X-25000Y-1055000D02*
D03*
X-75000D02*
D03*
X-125000D02*
D03*
X-175000D02*
D03*
X-225000D02*
D03*
X-275000Y-1055000D02*
D03*
X-325000D02*
D03*
X-375000Y-1055000D02*
D03*
X-425000D02*
D03*
X-475000D02*
D03*
X-525000D02*
D03*
X-575000D02*
D03*
X-625000D02*
D03*
X-675000D02*
D03*
X-725000D02*
D03*
X-775000D02*
D03*
X-825000D02*
D03*
X-875001D02*
D03*
D18*
X-4500000Y-2000000D02*
D03*
D19*
X-4601600Y-1847600D02*
D03*
X-4550800D02*
D03*
X-4500000D02*
D03*
X-4449200D02*
D03*
X-4398400D02*
D03*
Y-2152400D02*
D03*
X-4449200D02*
D03*
X-4500000D02*
D03*
X-4550800D02*
D03*
X-4601600D02*
D03*
D20*
X-1905000Y-2375000D02*
D03*
X-2095000D02*
D03*
X-2000000Y-2625000D02*
D03*
X95000Y-2375000D02*
D03*
X-95000D02*
D03*
X0Y-2625000D02*
D03*
D22*
X2265000Y-1272500D02*
D03*
Y-1337500D02*
D03*
Y-1402500D02*
D03*
Y-1467500D02*
D03*
Y-1532500D02*
D03*
Y-1597500D02*
D03*
Y-1662500D02*
D03*
Y-1727500D02*
D03*
X2835000Y-1272500D02*
D03*
Y-1337500D02*
D03*
Y-1402500D02*
D03*
Y-1467500D02*
D03*
Y-1532500D02*
D03*
Y-1597500D02*
D03*
Y-1662500D02*
D03*
Y-1727500D02*
D03*
D23*
X-2962734Y250016D02*
D03*
X-2862734D02*
D03*
X-3049984Y1500016D02*
D03*
X-2949984D02*
D03*
X-2950016Y1624984D02*
D03*
X-3050016D02*
D03*
X2500000Y-1125000D02*
D03*
X2599991Y-1125000D02*
D03*
X-3450000Y500000D02*
D03*
X-3549992Y500000D02*
D03*
X-3100000Y-1500000D02*
D03*
X-3199992Y-1500000D02*
D03*
X-2850000Y-1500000D02*
D03*
X-2949992Y-1500000D02*
D03*
X-2962750Y0D02*
D03*
X-2862759Y-0D02*
D03*
X-2862750Y375000D02*
D03*
X-2962742Y375000D02*
D03*
X-3050000Y1375000D02*
D03*
X-2950009Y1375000D02*
D03*
X-3050000Y1250000D02*
D03*
X-2950009Y1250000D02*
D03*
X-2725000Y-1500000D02*
D03*
X-2625009Y-1500000D02*
D03*
X-2450000Y1250000D02*
D03*
X-2549992Y1250000D02*
D03*
X-2260000Y-1500000D02*
D03*
X-2359992Y-1500000D02*
D03*
X-1942000Y-0D02*
D03*
X-2041992Y0D02*
D03*
X-1500000Y-1500000D02*
D03*
X-1400009Y-1500000D02*
D03*
X-800000Y-1325000D02*
D03*
X-700009Y-1325000D02*
D03*
X-700000Y1300000D02*
D03*
X-799992Y1300000D02*
D03*
X-50000D02*
D03*
X49992Y1300000D02*
D03*
X50000Y1400000D02*
D03*
X-49992Y1400000D02*
D03*
X750000Y1300000D02*
D03*
X650008Y1300000D02*
D03*
X1375000Y-625000D02*
D03*
X1275008Y-625000D02*
D03*
X1275000Y-75000D02*
D03*
X1374991Y-75000D02*
D03*
X1275000Y-175000D02*
D03*
X1374991Y-175000D02*
D03*
X1275000Y425000D02*
D03*
X1374991Y425000D02*
D03*
X1536785Y874984D02*
D03*
X1436785D02*
D03*
X-4875009Y500000D02*
D03*
X-4975000Y500000D02*
D03*
D24*
X1661817Y874984D02*
D03*
Y774984D02*
D03*
X-4199984Y-1625016D02*
D03*
Y-1725016D02*
D03*
X-4799984Y-2275016D02*
D03*
Y-2375016D02*
D03*
X-4699984Y-2275016D02*
D03*
Y-2375016D02*
D03*
X-1933984Y-1640016D02*
D03*
Y-1740016D02*
D03*
X-2049984Y-1640016D02*
D03*
Y-1740016D02*
D03*
X1750016Y-450016D02*
D03*
Y-550016D02*
D03*
X-2125016Y-2849984D02*
D03*
Y-2749984D02*
D03*
X-2000000Y-2850000D02*
D03*
Y-2750000D02*
D03*
X-3725000Y-2425000D02*
D03*
X-3725000Y-2325009D02*
D03*
X-2275000Y-2425000D02*
D03*
X-2275000Y-2325009D02*
D03*
X-1725000Y-2425000D02*
D03*
X-1725000Y-2325009D02*
D03*
X-1325000Y-500000D02*
D03*
X-1325000Y-400009D02*
D03*
X-1325000Y-200000D02*
D03*
X-1325000Y-100009D02*
D03*
X-1325000Y50000D02*
D03*
X-1325000Y149991D02*
D03*
X-275000Y-2425000D02*
D03*
X-275000Y-2325009D02*
D03*
X100000Y-1450000D02*
D03*
X100000Y-1350008D02*
D03*
X1000000Y-1449992D02*
D03*
X1000000Y-1350000D02*
D03*
X1850000Y-2025000D02*
D03*
X1850000Y-2124991D02*
D03*
X-3725000Y-2575000D02*
D03*
X-3725000Y-2674992D02*
D03*
X-2275000Y-2575000D02*
D03*
X-2275000Y-2674992D02*
D03*
X-1725000Y-2575000D02*
D03*
X-1725000Y-2674992D02*
D03*
X-275000Y-2575000D02*
D03*
X-275000Y-2674992D02*
D03*
X-100000Y-1350000D02*
D03*
X-100000Y-1449992D02*
D03*
X0Y-1350000D02*
D03*
X-1Y-1449992D02*
D03*
X275000Y-2275000D02*
D03*
X275000Y-2374991D02*
D03*
X1724999D02*
D03*
X1725000Y-2275000D02*
D03*
X450000Y-1350000D02*
D03*
X450000Y-1449992D02*
D03*
X675000Y-1350000D02*
D03*
X675000Y-1449992D02*
D03*
X300000Y1300000D02*
D03*
X300000Y1399992D02*
D03*
X1725000Y-2025000D02*
D03*
X1725000Y-2124991D02*
D03*
X-1938183Y1299984D02*
D03*
Y1199984D02*
D03*
X-1813215Y1200016D02*
D03*
Y1300016D02*
D03*
X-4300016Y-1624984D02*
D03*
Y-1724984D02*
D03*
X-4526817Y200016D02*
D03*
Y100016D02*
D03*
X3100016Y-1725016D02*
D03*
Y-1625016D02*
D03*
X-263215Y-1349984D02*
D03*
Y-1449984D02*
D03*
X-363215Y-1349984D02*
D03*
Y-1449984D02*
D03*
X1336785Y-1349984D02*
D03*
Y-1449984D02*
D03*
X1948554Y-2274984D02*
D03*
Y-2374984D02*
D03*
X1836769Y-2275000D02*
D03*
Y-2375000D02*
D03*
D25*
X-3357250Y-1217500D02*
D03*
X-3293750D02*
D03*
X-3230250D02*
D03*
X-3166750D02*
D03*
X-3103250D02*
D03*
X-3039750D02*
D03*
X-2976250D02*
D03*
X-2912750Y-1217500D02*
D03*
X-2849250Y-1217500D02*
D03*
X-2785750D02*
D03*
X-2722250Y-1217500D02*
D03*
X-2658750Y-1217500D02*
D03*
X-2595250D02*
D03*
X-2531750D02*
D03*
X-2468250D02*
D03*
X-2404750D02*
D03*
X-2341250D02*
D03*
X-2277750Y-1217500D02*
D03*
X-2214250Y-1217500D02*
D03*
X-2150750D02*
D03*
X-2087250Y-1217500D02*
D03*
X-2023750Y-1217500D02*
D03*
X-1960250D02*
D03*
X-1896750D02*
D03*
X-1833250D02*
D03*
X-1769750D02*
D03*
X-1706250D02*
D03*
X-1642750D02*
D03*
X-3357250Y-282500D02*
D03*
X-3293750D02*
D03*
X-3230250D02*
D03*
X-3166750D02*
D03*
X-3103250D02*
D03*
X-3039750D02*
D03*
X-2976250D02*
D03*
X-2912750Y-282500D02*
D03*
X-2849250Y-282500D02*
D03*
X-2785750D02*
D03*
X-2722250Y-282500D02*
D03*
X-2658750Y-282500D02*
D03*
X-2595250D02*
D03*
X-2531750D02*
D03*
X-2468250D02*
D03*
X-2404750D02*
D03*
X-2341250D02*
D03*
X-2277750Y-282500D02*
D03*
X-2214250Y-282500D02*
D03*
X-2150750D02*
D03*
X-2087250Y-282500D02*
D03*
X-2023750Y-282500D02*
D03*
X-1960250D02*
D03*
X-1896750D02*
D03*
X-1833250D02*
D03*
X-1769750D02*
D03*
X-1706250D02*
D03*
X-1642750D02*
D03*
D26*
X-4000000Y-1325000D02*
D03*
Y-1625000D02*
D03*
X-4999999Y-2675000D02*
D03*
Y-2375000D02*
D03*
X-4000000Y-2675000D02*
D03*
Y-2375000D02*
D03*
D27*
X-4650000Y-2600000D02*
D03*
X-4350000D02*
D03*
X-149979Y1699999D02*
D03*
X150021D02*
D03*
X-150000Y-2000001D02*
D03*
X150000D02*
D03*
X-4350000Y-1400001D02*
D03*
X-4650000D02*
D03*
D28*
X-5275016Y-1625000D02*
D03*
X-5425016D02*
D03*
X-5275016Y-1375000D02*
D03*
X-5425016D02*
D03*
X-4574984Y-2325000D02*
D03*
X-4424984D02*
D03*
X-4574984Y-1675000D02*
D03*
X-4424984D02*
D03*
X3225016Y930000D02*
D03*
X3375016D02*
D03*
D29*
X1700000Y1255016D02*
D03*
Y1405016D02*
D03*
X3300000Y1404984D02*
D03*
Y1254984D02*
D03*
Y1844984D02*
D03*
Y1694984D02*
D03*
X1700000Y1695016D02*
D03*
Y1845016D02*
D03*
D30*
X945000Y-2760000D02*
D03*
X865000D02*
D03*
X785000D02*
D03*
X705000D02*
D03*
Y-2940000D02*
D03*
X785000D02*
D03*
X865000D02*
D03*
X945000D02*
D03*
X595000Y-2760000D02*
D03*
X515000D02*
D03*
X435000D02*
D03*
X355000D02*
D03*
Y-2940000D02*
D03*
X435000D02*
D03*
X515000D02*
D03*
X595000D02*
D03*
X1295000Y-2760000D02*
D03*
X1215000D02*
D03*
X1135000D02*
D03*
X1055000D02*
D03*
Y-2940000D02*
D03*
X1135000D02*
D03*
X1215000D02*
D03*
X1295000D02*
D03*
X1645000Y-2760000D02*
D03*
X1565000D02*
D03*
X1485000D02*
D03*
X1405000D02*
D03*
Y-2940000D02*
D03*
X1485000D02*
D03*
X1565000D02*
D03*
X1645000D02*
D03*
D31*
X-2188199Y1512300D02*
D03*
X-2138199D02*
D03*
X-2388199D02*
D03*
X-2338199D02*
D03*
X-2288199D02*
D03*
X-2238199D02*
D03*
X-2588199D02*
D03*
X-2538199D02*
D03*
X-2488199D02*
D03*
X-2438199D02*
D03*
X-2688199D02*
D03*
X-2638199D02*
D03*
D32*
X-4000000Y-2125000D02*
D03*
Y-1875000D02*
D03*
X-5000000Y-2125000D02*
D03*
Y-1875000D02*
D03*
Y-1375000D02*
D03*
Y-1625000D02*
D03*
D33*
X-5100000Y-475000D02*
D03*
Y-925000D02*
D03*
X-3700000Y1275000D02*
D03*
Y1725000D02*
D03*
D34*
X-4075000Y750000D02*
D03*
D35*
X-4015000Y2275000D02*
D03*
X-5440000Y925000D02*
D03*
D36*
Y1650000D02*
D03*
Y2275000D02*
D03*
D37*
X-4425000Y750000D02*
D03*
X-5195000D02*
D03*
X-5085000D02*
D03*
X-4975000D02*
D03*
X-4865000D02*
D03*
X-4755000D02*
D03*
X-4645000D02*
D03*
X-4535000D02*
D03*
D38*
X-5340000D02*
D03*
D39*
X1895000Y-1362500D02*
D03*
X1800000D02*
D03*
X1705000D02*
D03*
Y-1637500D02*
D03*
X1895000D02*
D03*
D40*
X3065000Y210000D02*
D03*
Y290000D02*
D03*
Y370000D02*
D03*
Y450000D02*
D03*
Y530000D02*
D03*
Y610000D02*
D03*
X3065000Y690000D02*
D03*
Y770000D02*
D03*
X3065000Y850000D02*
D03*
Y930000D02*
D03*
Y1010000D02*
D03*
Y1090000D02*
D03*
X3065000Y1170000D02*
D03*
Y1250000D02*
D03*
X3065000Y1330000D02*
D03*
Y1410000D02*
D03*
Y1490000D02*
D03*
Y1570000D02*
D03*
Y1650000D02*
D03*
X3065000Y1730000D02*
D03*
X3065000Y1810000D02*
D03*
Y1890000D02*
D03*
Y1970000D02*
D03*
Y2050000D02*
D03*
Y2130000D02*
D03*
Y2210000D02*
D03*
Y2290000D02*
D03*
X1935000Y210000D02*
D03*
Y290000D02*
D03*
Y370000D02*
D03*
Y450000D02*
D03*
Y530000D02*
D03*
Y610000D02*
D03*
Y690000D02*
D03*
Y770000D02*
D03*
Y850000D02*
D03*
Y930000D02*
D03*
Y1010000D02*
D03*
Y1090000D02*
D03*
Y1170000D02*
D03*
Y1250000D02*
D03*
Y1330000D02*
D03*
Y1410000D02*
D03*
Y1490000D02*
D03*
Y1570000D02*
D03*
Y1650000D02*
D03*
Y1730000D02*
D03*
Y1810000D02*
D03*
Y1890000D02*
D03*
Y1970000D02*
D03*
Y2050000D02*
D03*
Y2130000D02*
D03*
Y2210000D02*
D03*
Y2290000D02*
D03*
%TF.MD5,5a96083623b24b279361e41829565e7c*%
M02*
