%TF.GenerationSoftware,Altium Limited,Altium Designer,23.10.1 (27)*%
G04 Layer_Color=8388736*
%FSLAX45Y45*%
%MOMM*%
%TF.SameCoordinates,E65562DB-48BA-4528-A783-DBC4A45482EB*%
%TF.FilePolarity,Negative*%
%TF.FileFunction,Soldermask,Top*%
%TF.Part,Single*%
G01*
G75*
%TA.AperFunction,NonConductor*%
%ADD64C,0.25400*%
%ADD65C,0.40000*%
%ADD66R,83.82000X8.69900*%
%ADD67R,2.40000X0.80000*%
%ADD68R,103.50000X2.00000*%
%TA.AperFunction,SMDPad,CuDef*%
G04:AMPARAMS|DCode=69|XSize=5.6mm|YSize=1.6mm|CornerRadius=0.2375mm|HoleSize=0mm|Usage=FLASHONLY|Rotation=0.000|XOffset=0mm|YOffset=0mm|HoleType=Round|Shape=RoundedRectangle|*
%AMROUNDEDRECTD69*
21,1,5.60000,1.12500,0,0,0.0*
21,1,5.12500,1.60000,0,0,0.0*
1,1,0.47500,2.56250,-0.56250*
1,1,0.47500,-2.56250,-0.56250*
1,1,0.47500,-2.56250,0.56250*
1,1,0.47500,2.56250,0.56250*
%
%ADD69ROUNDEDRECTD69*%
%ADD70O,0.35000X1.60000*%
%ADD71O,2.30000X0.70000*%
%ADD72O,1.90000X0.40000*%
%ADD73O,0.40000X1.90000*%
%ADD74R,5.10000X1.60000*%
G04:AMPARAMS|DCode=75|XSize=0.38mm|YSize=1.1mm|CornerRadius=0.12mm|HoleSize=0mm|Usage=FLASHONLY|Rotation=0.000|XOffset=0mm|YOffset=0mm|HoleType=Round|Shape=RoundedRectangle|*
%AMROUNDEDRECTD75*
21,1,0.38000,0.86000,0,0,0.0*
21,1,0.14000,1.10000,0,0,0.0*
1,1,0.24000,0.07000,-0.43000*
1,1,0.24000,-0.07000,-0.43000*
1,1,0.24000,-0.07000,0.43000*
1,1,0.24000,0.07000,0.43000*
%
%ADD75ROUNDEDRECTD75*%
G04:AMPARAMS|DCode=76|XSize=1.1mm|YSize=0.7mm|CornerRadius=0.125mm|HoleSize=0mm|Usage=FLASHONLY|Rotation=270.000|XOffset=0mm|YOffset=0mm|HoleType=Round|Shape=RoundedRectangle|*
%AMROUNDEDRECTD76*
21,1,1.10000,0.45000,0,0,270.0*
21,1,0.85000,0.70000,0,0,270.0*
1,1,0.25000,-0.22500,-0.42500*
1,1,0.25000,-0.22500,0.42500*
1,1,0.25000,0.22500,0.42500*
1,1,0.25000,0.22500,-0.42500*
%
%ADD76ROUNDEDRECTD76*%
%ADD77R,2.41300X8.12800*%
%ADD78O,1.80000X0.45000*%
G04:AMPARAMS|DCode=79|XSize=0.6mm|YSize=0.7mm|CornerRadius=0.1125mm|HoleSize=0mm|Usage=FLASHONLY|Rotation=0.000|XOffset=0mm|YOffset=0mm|HoleType=Round|Shape=RoundedRectangle|*
%AMROUNDEDRECTD79*
21,1,0.60000,0.47500,0,0,0.0*
21,1,0.37500,0.70000,0,0,0.0*
1,1,0.22500,0.18750,-0.23750*
1,1,0.22500,-0.18750,-0.23750*
1,1,0.22500,-0.18750,0.23750*
1,1,0.22500,0.18750,0.23750*
%
%ADD79ROUNDEDRECTD79*%
G04:AMPARAMS|DCode=80|XSize=0.6mm|YSize=0.7mm|CornerRadius=0.1125mm|HoleSize=0mm|Usage=FLASHONLY|Rotation=270.000|XOffset=0mm|YOffset=0mm|HoleType=Round|Shape=RoundedRectangle|*
%AMROUNDEDRECTD80*
21,1,0.60000,0.47500,0,0,270.0*
21,1,0.37500,0.70000,0,0,270.0*
1,1,0.22500,-0.23750,-0.18750*
1,1,0.22500,-0.23750,0.18750*
1,1,0.22500,0.23750,0.18750*
1,1,0.22500,0.23750,-0.18750*
%
%ADD80ROUNDEDRECTD80*%
%ADD81O,0.50000X2.15000*%
G04:AMPARAMS|DCode=82|XSize=1.1mm|YSize=2.7mm|CornerRadius=0.175mm|HoleSize=0mm|Usage=FLASHONLY|Rotation=270.000|XOffset=0mm|YOffset=0mm|HoleType=Round|Shape=RoundedRectangle|*
%AMROUNDEDRECTD82*
21,1,1.10000,2.35000,0,0,270.0*
21,1,0.75000,2.70000,0,0,270.0*
1,1,0.35000,-1.17500,-0.37500*
1,1,0.35000,-1.17500,0.37500*
1,1,0.35000,1.17500,0.37500*
1,1,0.35000,1.17500,-0.37500*
%
%ADD82ROUNDEDRECTD82*%
G04:AMPARAMS|DCode=83|XSize=1.1mm|YSize=2.7mm|CornerRadius=0.175mm|HoleSize=0mm|Usage=FLASHONLY|Rotation=0.000|XOffset=0mm|YOffset=0mm|HoleType=Round|Shape=RoundedRectangle|*
%AMROUNDEDRECTD83*
21,1,1.10000,2.35000,0,0,0.0*
21,1,0.75000,2.70000,0,0,0.0*
1,1,0.35000,0.37500,-1.17500*
1,1,0.35000,-0.37500,-1.17500*
1,1,0.35000,-0.37500,1.17500*
1,1,0.35000,0.37500,1.17500*
%
%ADD83ROUNDEDRECTD83*%
G04:AMPARAMS|DCode=84|XSize=0.85mm|YSize=1.1mm|CornerRadius=0.14375mm|HoleSize=0mm|Usage=FLASHONLY|Rotation=0.000|XOffset=0mm|YOffset=0mm|HoleType=Round|Shape=RoundedRectangle|*
%AMROUNDEDRECTD84*
21,1,0.85000,0.81250,0,0,0.0*
21,1,0.56250,1.10000,0,0,0.0*
1,1,0.28750,0.28125,-0.40625*
1,1,0.28750,-0.28125,-0.40625*
1,1,0.28750,-0.28125,0.40625*
1,1,0.28750,0.28125,0.40625*
%
%ADD84ROUNDEDRECTD84*%
G04:AMPARAMS|DCode=85|XSize=0.85mm|YSize=1.1mm|CornerRadius=0.14375mm|HoleSize=0mm|Usage=FLASHONLY|Rotation=270.000|XOffset=0mm|YOffset=0mm|HoleType=Round|Shape=RoundedRectangle|*
%AMROUNDEDRECTD85*
21,1,0.85000,0.81250,0,0,270.0*
21,1,0.56250,1.10000,0,0,270.0*
1,1,0.28750,-0.40625,-0.28125*
1,1,0.28750,-0.40625,0.28125*
1,1,0.28750,0.40625,0.28125*
1,1,0.28750,0.40625,-0.28125*
%
%ADD85ROUNDEDRECTD85*%
G04:AMPARAMS|DCode=86|XSize=0.9mm|YSize=0.6mm|CornerRadius=0.1125mm|HoleSize=0mm|Usage=FLASHONLY|Rotation=270.000|XOffset=0mm|YOffset=0mm|HoleType=Round|Shape=RoundedRectangle|*
%AMROUNDEDRECTD86*
21,1,0.90000,0.37500,0,0,270.0*
21,1,0.67500,0.60000,0,0,270.0*
1,1,0.22500,-0.18750,-0.33750*
1,1,0.22500,-0.18750,0.33750*
1,1,0.22500,0.18750,0.33750*
1,1,0.22500,0.18750,-0.33750*
%
%ADD86ROUNDEDRECTD86*%
%TA.AperFunction,ConnectorPad*%
%ADD87O,0.40000X1.60000*%
%TA.AperFunction,SMDPad,CuDef*%
G04:AMPARAMS|DCode=88|XSize=3.5mm|YSize=1.6mm|CornerRadius=0.125mm|HoleSize=0mm|Usage=FLASHONLY|Rotation=0.000|XOffset=0mm|YOffset=0mm|HoleType=Round|Shape=RoundedRectangle|*
%AMROUNDEDRECTD88*
21,1,3.50000,1.35000,0,0,0.0*
21,1,3.25000,1.60000,0,0,0.0*
1,1,0.25000,1.62500,-0.67500*
1,1,0.25000,-1.62500,-0.67500*
1,1,0.25000,-1.62500,0.67500*
1,1,0.25000,1.62500,0.67500*
%
%ADD88ROUNDEDRECTD88*%
G04:AMPARAMS|DCode=89|XSize=2.1mm|YSize=2.1mm|CornerRadius=0.3mm|HoleSize=0mm|Usage=FLASHONLY|Rotation=270.000|XOffset=0mm|YOffset=0mm|HoleType=Round|Shape=RoundedRectangle|*
%AMROUNDEDRECTD89*
21,1,2.10000,1.50000,0,0,270.0*
21,1,1.50000,2.10000,0,0,270.0*
1,1,0.60000,-0.75000,-0.75000*
1,1,0.60000,-0.75000,0.75000*
1,1,0.60000,0.75000,0.75000*
1,1,0.60000,0.75000,-0.75000*
%
%ADD89ROUNDEDRECTD89*%
%ADD90R,1.60000X2.60000*%
%ADD91R,2.60000X1.60000*%
%ADD92R,2.60000X1.60000*%
%ADD93R,0.90000X2.60000*%
%ADD94R,1.60000X2.60000*%
%ADD95R,0.70000X1.10000*%
%ADD96O,1.60000X0.65000*%
%ADD97C,2.00000*%
%TA.AperFunction,WasherPad*%
%ADD98C,5.18000*%
%TA.AperFunction,ComponentPad*%
%ADD99C,0.71000*%
%ADD100O,0.86000X1.26000*%
%ADD101C,1.50000*%
G36*
X-5973200Y-3040000D02*
X-6173199D01*
X-6173200Y2646000D01*
X-5973200D01*
Y-2829000D01*
Y-3040000D01*
D02*
G37*
G36*
X2558798Y-2203344D02*
Y-2205431D01*
Y-2207517D01*
X2560885D01*
Y-2209604D01*
Y-2211690D01*
Y-2213777D01*
Y-2215863D01*
Y-2217950D01*
Y-2220036D01*
X2562971D01*
Y-2222123D01*
Y-2224209D01*
Y-2226296D01*
Y-2228382D01*
Y-2230468D01*
Y-2232555D01*
Y-2234641D01*
X2565058D01*
Y-2236728D01*
Y-2238814D01*
Y-2240901D01*
Y-2242987D01*
Y-2245074D01*
Y-2247160D01*
X2567144D01*
Y-2249247D01*
Y-2251333D01*
Y-2253420D01*
Y-2255506D01*
Y-2257593D01*
Y-2259679D01*
X2569231D01*
Y-2261765D01*
Y-2263852D01*
Y-2265938D01*
Y-2268025D01*
Y-2270111D01*
X2571317D01*
Y-2272198D01*
Y-2274284D01*
Y-2276371D01*
Y-2278457D01*
Y-2280544D01*
X2573403D01*
Y-2282630D01*
Y-2284717D01*
X2575490D01*
Y-2286803D01*
Y-2288890D01*
Y-2290976D01*
Y-2293062D01*
Y-2295149D01*
X2577576D01*
Y-2297235D01*
Y-2299322D01*
Y-2301408D01*
Y-2303495D01*
Y-2305581D01*
X2579663D01*
Y-2307668D01*
X2581749D01*
Y-2309754D01*
X2583836D01*
Y-2311841D01*
X2590095D01*
Y-2313927D01*
X2596355D01*
Y-2316014D01*
X2602614D01*
Y-2318100D01*
X2608873D01*
Y-2320187D01*
X2613046D01*
Y-2322273D01*
X2615133D01*
Y-2324360D01*
X2619306D01*
Y-2326446D01*
X2623479D01*
Y-2328533D01*
X2629738D01*
Y-2330619D01*
X2635998D01*
Y-2332706D01*
X2642257D01*
Y-2334792D01*
X2648516D01*
Y-2336878D01*
X2661035D01*
Y-2334792D01*
X2665208D01*
Y-2332706D01*
X2667295D01*
Y-2330619D01*
X2671468D01*
Y-2328533D01*
X2675641D01*
Y-2326446D01*
X2677727D01*
Y-2324360D01*
X2679814D01*
Y-2322273D01*
X2683987D01*
Y-2320187D01*
X2686073D01*
Y-2318100D01*
X2688159D01*
Y-2316014D01*
X2692332D01*
Y-2313927D01*
X2696505D01*
Y-2311841D01*
X2698592D01*
Y-2309754D01*
X2700678D01*
Y-2307668D01*
X2702765D01*
Y-2305581D01*
X2706938D01*
Y-2303495D01*
X2711111D01*
Y-2301408D01*
X2713197D01*
Y-2299322D01*
X2717370D01*
Y-2297235D01*
X2719457D01*
Y-2295149D01*
X2723630D01*
Y-2293062D01*
X2725716D01*
Y-2290976D01*
X2727803D01*
Y-2288890D01*
X2729889D01*
Y-2286803D01*
X2734062D01*
Y-2284717D01*
X2738235D01*
Y-2282630D01*
X2740321D01*
Y-2280544D01*
X2748667D01*
Y-2282630D01*
X2750754D01*
Y-2284717D01*
X2752840D01*
Y-2286803D01*
X2754927D01*
Y-2288890D01*
X2757013D01*
Y-2290976D01*
X2759100D01*
Y-2293062D01*
X2761186D01*
Y-2295149D01*
X2763273D01*
Y-2297235D01*
X2765359D01*
Y-2299322D01*
X2767446D01*
Y-2301408D01*
X2769532D01*
Y-2303495D01*
X2771619D01*
Y-2305581D01*
X2773705D01*
Y-2307668D01*
X2775792D01*
Y-2309754D01*
X2777878D01*
Y-2311841D01*
X2779964D01*
Y-2313927D01*
X2782051D01*
Y-2316014D01*
X2784137D01*
Y-2318100D01*
X2786224D01*
Y-2320187D01*
X2788310D01*
Y-2322273D01*
X2790397D01*
Y-2324360D01*
X2792483D01*
Y-2326446D01*
X2794570D01*
Y-2328533D01*
X2796656D01*
Y-2330619D01*
X2798743D01*
Y-2332706D01*
X2800829D01*
Y-2334792D01*
X2802916D01*
Y-2336878D01*
X2805002D01*
Y-2338965D01*
X2807088D01*
Y-2341051D01*
X2809175D01*
Y-2343138D01*
X2811261D01*
Y-2345224D01*
X2813348D01*
Y-2347311D01*
X2815434D01*
Y-2349397D01*
X2817521D01*
Y-2351484D01*
Y-2353570D01*
X2815434D01*
Y-2355657D01*
X2813348D01*
Y-2357743D01*
X2811261D01*
Y-2359830D01*
Y-2361916D01*
X2809175D01*
Y-2364003D01*
Y-2366089D01*
X2807088D01*
Y-2368176D01*
Y-2370262D01*
X2805002D01*
Y-2372349D01*
X2802916D01*
Y-2374435D01*
Y-2376522D01*
X2800829D01*
Y-2378608D01*
X2798743D01*
Y-2380695D01*
X2796656D01*
Y-2382781D01*
Y-2384867D01*
X2794570D01*
Y-2386954D01*
X2792483D01*
Y-2389040D01*
Y-2391127D01*
X2790397D01*
Y-2393213D01*
X2788310D01*
Y-2395300D01*
Y-2397386D01*
X2786224D01*
Y-2399473D01*
X2784137D01*
Y-2401559D01*
Y-2403646D01*
X2782051D01*
Y-2405732D01*
X2779964D01*
Y-2407819D01*
X2777878D01*
Y-2409905D01*
X2775792D01*
Y-2411992D01*
Y-2414078D01*
X2773705D01*
Y-2416165D01*
Y-2418251D01*
X2771619D01*
Y-2420338D01*
X2769532D01*
Y-2422424D01*
Y-2424511D01*
X2767446D01*
Y-2426597D01*
X2765359D01*
Y-2428683D01*
Y-2430770D01*
X2763273D01*
Y-2432856D01*
X2761186D01*
Y-2434943D01*
X2759100D01*
Y-2437029D01*
Y-2439116D01*
Y-2441202D01*
Y-2443289D01*
Y-2445375D01*
X2761186D01*
Y-2447462D01*
Y-2449548D01*
X2763273D01*
Y-2451635D01*
X2765359D01*
Y-2453721D01*
Y-2455808D01*
Y-2457894D01*
X2767446D01*
Y-2459981D01*
Y-2462067D01*
Y-2464154D01*
X2769532D01*
Y-2466240D01*
Y-2468326D01*
X2771619D01*
Y-2470413D01*
Y-2472499D01*
Y-2474586D01*
X2773705D01*
Y-2476672D01*
Y-2478759D01*
X2775792D01*
Y-2480845D01*
Y-2482932D01*
Y-2485018D01*
X2777878D01*
Y-2487105D01*
Y-2489191D01*
X2779964D01*
Y-2491278D01*
X2782051D01*
Y-2493364D01*
Y-2495451D01*
X2784137D01*
Y-2497537D01*
Y-2499623D01*
X2786224D01*
Y-2501710D01*
Y-2503796D01*
Y-2505883D01*
X2788310D01*
Y-2507969D01*
Y-2510056D01*
Y-2512142D01*
X2790397D01*
Y-2514229D01*
Y-2516315D01*
X2792483D01*
Y-2518402D01*
X2794570D01*
Y-2520488D01*
X2805002D01*
Y-2522575D01*
X2817521D01*
Y-2524661D01*
X2827953D01*
Y-2526748D01*
X2836299D01*
Y-2528834D01*
X2848818D01*
Y-2530921D01*
X2861337D01*
Y-2533007D01*
X2865510D01*
Y-2535093D01*
X2878029D01*
Y-2537180D01*
X2892634D01*
Y-2539266D01*
X2894720D01*
Y-2541353D01*
Y-2543439D01*
Y-2545526D01*
Y-2547612D01*
Y-2549699D01*
Y-2551785D01*
Y-2553872D01*
Y-2555958D01*
Y-2558045D01*
Y-2560131D01*
Y-2562218D01*
Y-2564304D01*
Y-2566391D01*
Y-2568477D01*
Y-2570564D01*
Y-2572650D01*
Y-2574737D01*
Y-2576823D01*
Y-2578909D01*
Y-2580996D01*
Y-2583082D01*
Y-2585169D01*
Y-2587255D01*
Y-2589342D01*
Y-2591428D01*
Y-2593515D01*
Y-2595601D01*
Y-2597688D01*
Y-2599774D01*
Y-2601861D01*
Y-2603947D01*
Y-2606034D01*
Y-2608120D01*
Y-2610207D01*
Y-2612293D01*
Y-2614380D01*
Y-2616466D01*
Y-2618553D01*
Y-2620639D01*
Y-2622726D01*
Y-2624812D01*
Y-2626898D01*
Y-2628985D01*
Y-2631071D01*
Y-2633158D01*
Y-2635244D01*
Y-2637331D01*
Y-2639417D01*
Y-2641504D01*
X2888461D01*
Y-2643590D01*
X2878029D01*
Y-2645677D01*
X2867596D01*
Y-2647763D01*
X2855077D01*
Y-2649850D01*
X2840472D01*
Y-2651936D01*
X2838385D01*
Y-2654023D01*
X2836299D01*
Y-2651936D01*
X2834213D01*
Y-2654023D01*
X2825867D01*
Y-2656109D01*
X2813348D01*
Y-2658196D01*
X2800829D01*
Y-2660282D01*
X2794570D01*
Y-2662369D01*
X2792483D01*
Y-2664455D01*
Y-2666542D01*
Y-2668628D01*
X2790397D01*
Y-2670714D01*
Y-2672801D01*
X2788310D01*
Y-2674887D01*
Y-2676974D01*
Y-2679060D01*
X2786224D01*
Y-2681147D01*
Y-2683233D01*
Y-2685320D01*
X2784137D01*
Y-2687406D01*
Y-2689493D01*
Y-2691579D01*
X2782051D01*
Y-2693666D01*
Y-2695752D01*
Y-2697839D01*
X2777878D01*
Y-2699925D01*
Y-2702012D01*
Y-2704098D01*
X2775792D01*
Y-2706184D01*
Y-2708271D01*
Y-2710357D01*
X2773705D01*
Y-2712444D01*
Y-2714530D01*
X2771619D01*
Y-2716617D01*
Y-2718703D01*
Y-2720790D01*
X2769532D01*
Y-2722876D01*
Y-2724963D01*
X2767446D01*
Y-2727049D01*
Y-2729136D01*
Y-2731222D01*
X2765359D01*
Y-2733309D01*
Y-2735395D01*
Y-2737481D01*
X2763273D01*
Y-2739568D01*
Y-2741654D01*
X2761186D01*
Y-2743741D01*
Y-2745827D01*
X2763273D01*
Y-2747914D01*
Y-2750000D01*
X2765359D01*
Y-2752087D01*
X2767446D01*
Y-2754173D01*
Y-2756260D01*
X2769532D01*
Y-2758346D01*
X2771619D01*
Y-2760433D01*
Y-2762519D01*
X2773705D01*
Y-2764606D01*
X2775792D01*
Y-2766692D01*
Y-2768779D01*
X2777878D01*
Y-2770865D01*
X2779964D01*
Y-2772952D01*
X2782051D01*
Y-2775038D01*
X2784137D01*
Y-2777124D01*
Y-2779211D01*
X2786224D01*
Y-2781297D01*
Y-2783384D01*
X2788310D01*
Y-2785470D01*
X2790397D01*
Y-2787557D01*
Y-2789643D01*
X2792483D01*
Y-2791730D01*
Y-2793816D01*
X2794570D01*
Y-2795903D01*
X2796656D01*
Y-2797989D01*
Y-2800076D01*
X2800829D01*
Y-2802162D01*
Y-2804249D01*
X2802916D01*
Y-2806335D01*
X2805002D01*
Y-2808422D01*
Y-2810508D01*
X2807088D01*
Y-2812595D01*
Y-2814681D01*
X2809175D01*
Y-2816768D01*
X2811261D01*
Y-2818854D01*
X2813348D01*
Y-2820941D01*
Y-2823027D01*
X2815434D01*
Y-2825113D01*
X2817521D01*
Y-2827200D01*
Y-2829286D01*
Y-2831373D01*
X2815434D01*
Y-2833459D01*
X2813348D01*
Y-2835546D01*
X2811261D01*
Y-2837632D01*
X2809175D01*
Y-2839719D01*
X2807088D01*
Y-2841805D01*
X2805002D01*
Y-2843892D01*
X2802916D01*
Y-2845978D01*
X2800829D01*
Y-2848065D01*
X2798743D01*
Y-2850151D01*
X2796656D01*
Y-2852238D01*
X2794570D01*
Y-2854324D01*
X2792483D01*
Y-2856411D01*
X2790397D01*
Y-2858497D01*
X2788310D01*
Y-2860584D01*
X2786224D01*
Y-2862670D01*
X2784137D01*
Y-2864757D01*
X2782051D01*
Y-2866843D01*
X2779964D01*
Y-2868929D01*
X2777878D01*
Y-2871016D01*
X2775792D01*
Y-2873102D01*
X2773705D01*
Y-2875189D01*
X2771619D01*
Y-2877275D01*
X2769532D01*
Y-2879362D01*
X2767446D01*
Y-2881448D01*
X2765359D01*
Y-2883535D01*
X2763273D01*
Y-2885621D01*
X2761186D01*
Y-2887708D01*
X2759100D01*
Y-2889794D01*
X2757013D01*
Y-2891881D01*
X2754927D01*
Y-2893967D01*
X2752840D01*
Y-2896054D01*
X2750754D01*
Y-2898140D01*
X2748667D01*
Y-2900227D01*
X2742408D01*
Y-2898140D01*
X2738235D01*
Y-2896054D01*
X2736148D01*
Y-2893967D01*
X2734062D01*
Y-2891881D01*
X2731975D01*
Y-2889794D01*
X2727803D01*
Y-2887708D01*
X2723630D01*
Y-2885621D01*
X2721543D01*
Y-2883535D01*
X2717370D01*
Y-2881448D01*
X2713197D01*
Y-2879362D01*
X2711111D01*
Y-2877275D01*
X2709024D01*
Y-2875189D01*
X2706938D01*
Y-2873102D01*
X2702765D01*
Y-2871016D01*
X2700678D01*
Y-2868929D01*
X2696505D01*
Y-2866843D01*
X2694419D01*
Y-2864757D01*
X2690246D01*
Y-2862670D01*
X2688159D01*
Y-2860584D01*
X2683987D01*
Y-2858497D01*
X2681900D01*
Y-2856411D01*
X2677727D01*
Y-2854324D01*
X2675641D01*
Y-2852238D01*
X2671468D01*
Y-2850151D01*
X2669381D01*
Y-2848065D01*
X2656862D01*
Y-2850151D01*
X2652689D01*
Y-2852238D01*
X2648516D01*
Y-2854324D01*
X2642257D01*
Y-2856411D01*
X2638084D01*
Y-2858497D01*
X2635998D01*
Y-2860584D01*
X2631825D01*
Y-2862670D01*
X2627652D01*
Y-2864757D01*
X2621392D01*
Y-2862670D01*
Y-2860584D01*
X2619306D01*
Y-2858497D01*
Y-2856411D01*
X2617219D01*
Y-2854324D01*
Y-2852238D01*
Y-2850151D01*
X2615133D01*
Y-2848065D01*
Y-2845978D01*
Y-2843892D01*
X2613046D01*
Y-2841805D01*
Y-2839719D01*
Y-2837632D01*
X2610960D01*
Y-2835546D01*
Y-2833459D01*
X2608873D01*
Y-2831373D01*
Y-2829286D01*
X2606787D01*
Y-2827200D01*
Y-2825113D01*
Y-2823027D01*
X2604700D01*
Y-2820941D01*
X2602614D01*
Y-2818854D01*
Y-2816768D01*
X2600527D01*
Y-2814681D01*
Y-2812595D01*
Y-2810508D01*
X2598441D01*
Y-2808422D01*
Y-2806335D01*
Y-2804249D01*
X2596355D01*
Y-2802162D01*
Y-2800076D01*
Y-2797989D01*
X2594268D01*
Y-2795903D01*
Y-2793816D01*
Y-2791730D01*
X2592182D01*
Y-2789643D01*
Y-2787557D01*
Y-2785470D01*
X2590095D01*
Y-2783384D01*
X2588009D01*
Y-2781297D01*
Y-2779211D01*
X2585922D01*
Y-2777124D01*
Y-2775038D01*
Y-2772952D01*
X2583836D01*
Y-2770865D01*
Y-2768779D01*
X2581749D01*
Y-2766692D01*
Y-2764606D01*
X2579663D01*
Y-2762519D01*
Y-2760433D01*
Y-2758346D01*
X2577576D01*
Y-2756260D01*
Y-2754173D01*
X2575490D01*
Y-2752087D01*
Y-2750000D01*
Y-2747914D01*
X2573403D01*
Y-2745827D01*
X2571317D01*
Y-2743741D01*
Y-2741654D01*
X2569231D01*
Y-2739568D01*
Y-2737481D01*
Y-2735395D01*
X2567144D01*
Y-2733309D01*
Y-2731222D01*
Y-2729136D01*
X2565058D01*
Y-2727049D01*
Y-2724963D01*
Y-2722876D01*
X2562971D01*
Y-2720790D01*
Y-2718703D01*
Y-2716617D01*
X2560885D01*
Y-2714530D01*
Y-2712444D01*
X2558798D01*
Y-2710357D01*
Y-2708271D01*
X2556712D01*
Y-2706184D01*
Y-2704098D01*
Y-2702012D01*
X2554625D01*
Y-2699925D01*
X2552539D01*
Y-2697839D01*
Y-2695752D01*
X2554625D01*
Y-2693666D01*
X2558798D01*
Y-2691579D01*
X2562971D01*
Y-2689493D01*
Y-2687406D01*
X2567144D01*
Y-2685320D01*
X2569231D01*
Y-2683233D01*
X2571317D01*
Y-2681147D01*
X2575490D01*
Y-2679060D01*
X2577576D01*
Y-2676974D01*
X2579663D01*
Y-2674887D01*
X2583836D01*
Y-2672801D01*
Y-2670714D01*
X2585922D01*
Y-2668628D01*
X2588009D01*
Y-2666542D01*
X2590095D01*
Y-2664455D01*
X2592182D01*
Y-2662369D01*
X2594268D01*
Y-2660282D01*
X2596355D01*
Y-2658196D01*
X2598441D01*
Y-2656109D01*
Y-2654023D01*
X2600527D01*
Y-2651936D01*
Y-2649850D01*
X2602614D01*
Y-2647763D01*
X2604700D01*
Y-2645677D01*
Y-2643590D01*
X2606787D01*
Y-2641504D01*
X2608873D01*
Y-2639417D01*
Y-2637331D01*
X2610960D01*
Y-2635244D01*
Y-2633158D01*
X2613046D01*
Y-2631071D01*
Y-2628985D01*
Y-2626898D01*
X2615133D01*
Y-2624812D01*
Y-2622726D01*
Y-2620639D01*
Y-2618553D01*
X2617219D01*
Y-2616466D01*
Y-2614380D01*
Y-2612293D01*
Y-2610207D01*
Y-2608120D01*
Y-2606034D01*
X2619306D01*
Y-2603947D01*
Y-2601861D01*
Y-2599774D01*
Y-2597688D01*
Y-2595601D01*
Y-2593515D01*
Y-2591428D01*
Y-2589342D01*
Y-2587255D01*
Y-2585169D01*
Y-2583082D01*
Y-2580996D01*
Y-2578909D01*
Y-2576823D01*
Y-2574737D01*
X2617219D01*
Y-2572650D01*
Y-2570564D01*
Y-2568477D01*
Y-2566391D01*
Y-2564304D01*
Y-2562218D01*
X2615133D01*
Y-2560131D01*
Y-2558045D01*
Y-2555958D01*
Y-2553872D01*
X2613046D01*
Y-2551785D01*
Y-2549699D01*
Y-2547612D01*
X2610960D01*
Y-2545526D01*
Y-2543439D01*
X2608873D01*
Y-2541353D01*
Y-2539266D01*
X2606787D01*
Y-2537180D01*
X2604700D01*
Y-2535093D01*
Y-2533007D01*
X2602614D01*
Y-2530921D01*
X2600527D01*
Y-2528834D01*
Y-2526748D01*
X2598441D01*
Y-2524661D01*
Y-2522575D01*
X2596355D01*
Y-2520488D01*
X2594268D01*
Y-2518402D01*
Y-2516315D01*
X2592182D01*
Y-2514229D01*
X2590095D01*
Y-2512142D01*
X2588009D01*
Y-2510056D01*
X2585922D01*
Y-2507969D01*
X2581749D01*
Y-2505883D01*
X2579663D01*
Y-2503796D01*
X2577576D01*
Y-2501710D01*
X2573403D01*
Y-2499623D01*
X2571317D01*
Y-2497537D01*
Y-2495451D01*
X2569231D01*
Y-2497537D01*
X2567144D01*
Y-2495451D01*
X2565058D01*
Y-2493364D01*
X2562971D01*
Y-2491278D01*
X2558798D01*
Y-2489191D01*
X2554625D01*
Y-2487105D01*
X2550452D01*
Y-2485018D01*
X2544193D01*
Y-2482932D01*
X2535847D01*
Y-2480845D01*
X2531674D01*
Y-2478759D01*
X2521242D01*
Y-2476672D01*
X2492031D01*
Y-2478759D01*
X2481599D01*
Y-2480845D01*
X2477426D01*
Y-2482932D01*
X2469080D01*
Y-2485018D01*
X2462820D01*
Y-2487105D01*
X2458647D01*
Y-2489191D01*
X2454474D01*
Y-2491278D01*
X2450301D01*
Y-2493364D01*
X2448215D01*
Y-2495451D01*
X2444042D01*
Y-2497537D01*
X2441955D01*
Y-2499623D01*
X2439869D01*
Y-2501710D01*
X2435696D01*
Y-2503796D01*
X2433610D01*
Y-2505883D01*
X2431523D01*
Y-2507969D01*
X2429437D01*
Y-2510056D01*
X2427350D01*
Y-2512142D01*
X2425264D01*
Y-2514229D01*
X2423177D01*
Y-2516315D01*
X2421091D01*
Y-2518402D01*
Y-2520488D01*
X2416918D01*
Y-2522575D01*
X2414831D01*
Y-2524661D01*
Y-2526748D01*
X2412745D01*
Y-2528834D01*
X2410658D01*
Y-2530921D01*
Y-2533007D01*
X2408572D01*
Y-2535093D01*
Y-2537180D01*
X2406485D01*
Y-2539266D01*
Y-2541353D01*
X2404399D01*
Y-2543439D01*
Y-2545526D01*
Y-2547612D01*
X2402312D01*
Y-2549699D01*
Y-2551785D01*
Y-2553872D01*
X2400226D01*
Y-2555958D01*
X2398139D01*
Y-2558045D01*
Y-2560131D01*
Y-2562218D01*
X2396053D01*
Y-2564304D01*
Y-2566391D01*
Y-2568477D01*
Y-2570564D01*
Y-2572650D01*
X2393967D01*
Y-2574737D01*
Y-2576823D01*
Y-2578909D01*
Y-2580996D01*
Y-2583082D01*
Y-2585169D01*
Y-2587255D01*
Y-2589342D01*
Y-2591428D01*
Y-2593515D01*
Y-2595601D01*
Y-2597688D01*
Y-2599774D01*
Y-2601861D01*
Y-2603947D01*
Y-2606034D01*
Y-2608120D01*
X2396053D01*
Y-2610207D01*
Y-2612293D01*
Y-2614380D01*
Y-2616466D01*
Y-2618553D01*
X2398139D01*
Y-2620639D01*
Y-2622726D01*
X2400226D01*
Y-2624812D01*
Y-2626898D01*
Y-2628985D01*
X2402312D01*
Y-2631071D01*
Y-2633158D01*
X2404399D01*
Y-2635244D01*
Y-2637331D01*
Y-2639417D01*
X2406485D01*
Y-2641504D01*
Y-2643590D01*
X2408572D01*
Y-2645677D01*
Y-2647763D01*
X2410658D01*
Y-2649850D01*
Y-2651936D01*
X2412745D01*
Y-2654023D01*
Y-2656109D01*
X2414831D01*
Y-2658196D01*
X2416918D01*
Y-2660282D01*
X2419004D01*
Y-2662369D01*
X2421091D01*
Y-2664455D01*
X2423177D01*
Y-2666542D01*
X2425264D01*
Y-2668628D01*
X2427350D01*
Y-2670714D01*
X2429437D01*
Y-2672801D01*
X2431523D01*
Y-2674887D01*
X2433610D01*
Y-2676974D01*
X2435696D01*
Y-2679060D01*
X2437783D01*
Y-2681147D01*
X2441955D01*
Y-2683233D01*
X2444042D01*
Y-2685320D01*
X2446128D01*
Y-2687406D01*
X2448215D01*
Y-2689493D01*
X2452388D01*
Y-2691579D01*
X2454474D01*
Y-2693666D01*
X2460734D01*
Y-2695752D01*
Y-2697839D01*
Y-2699925D01*
X2458647D01*
Y-2702012D01*
Y-2704098D01*
Y-2706184D01*
X2456561D01*
Y-2708271D01*
Y-2710357D01*
X2454474D01*
Y-2712444D01*
Y-2714530D01*
Y-2716617D01*
X2452388D01*
Y-2718703D01*
Y-2720790D01*
X2450301D01*
Y-2722876D01*
X2448215D01*
Y-2724963D01*
Y-2727049D01*
Y-2729136D01*
X2446128D01*
Y-2731222D01*
Y-2733309D01*
Y-2735395D01*
X2444042D01*
Y-2737481D01*
Y-2739568D01*
X2441955D01*
Y-2741654D01*
Y-2743741D01*
X2439869D01*
Y-2745827D01*
Y-2747914D01*
Y-2750000D01*
X2437783D01*
Y-2752087D01*
Y-2754173D01*
Y-2756260D01*
X2435696D01*
Y-2758346D01*
Y-2760433D01*
X2433610D01*
Y-2762519D01*
X2431523D01*
Y-2764606D01*
Y-2766692D01*
Y-2768779D01*
X2429437D01*
Y-2770865D01*
Y-2772952D01*
Y-2775038D01*
X2427350D01*
Y-2777124D01*
Y-2779211D01*
Y-2781297D01*
X2425264D01*
Y-2783384D01*
Y-2785470D01*
Y-2787557D01*
X2423177D01*
Y-2789643D01*
Y-2791730D01*
X2421091D01*
Y-2793816D01*
Y-2795903D01*
X2419004D01*
Y-2797989D01*
Y-2800076D01*
X2416918D01*
Y-2802162D01*
Y-2804249D01*
X2414831D01*
Y-2806335D01*
Y-2808422D01*
X2412745D01*
Y-2810508D01*
Y-2812595D01*
X2410658D01*
Y-2814681D01*
Y-2816768D01*
Y-2818854D01*
X2408572D01*
Y-2820941D01*
Y-2823027D01*
Y-2825113D01*
X2406485D01*
Y-2827200D01*
Y-2829286D01*
Y-2831373D01*
X2404399D01*
Y-2833459D01*
Y-2835546D01*
Y-2837632D01*
X2402312D01*
Y-2839719D01*
Y-2841805D01*
X2400226D01*
Y-2843892D01*
X2398139D01*
Y-2845978D01*
Y-2848065D01*
X2396053D01*
Y-2850151D01*
Y-2852238D01*
Y-2854324D01*
X2393967D01*
Y-2856411D01*
Y-2858497D01*
Y-2860584D01*
X2391880D01*
Y-2862670D01*
Y-2864757D01*
X2385621D01*
Y-2862670D01*
X2381448D01*
Y-2860584D01*
X2379361D01*
Y-2858497D01*
X2375188D01*
Y-2856411D01*
X2371015D01*
Y-2854324D01*
X2366842D01*
Y-2852238D01*
X2362669D01*
Y-2850151D01*
X2356410D01*
Y-2848065D01*
X2345978D01*
Y-2850151D01*
X2341805D01*
Y-2852238D01*
X2337632D01*
Y-2854324D01*
X2335545D01*
Y-2856411D01*
X2331373D01*
Y-2858497D01*
X2327200D01*
Y-2860584D01*
X2325113D01*
Y-2862670D01*
X2323027D01*
Y-2864757D01*
X2318854D01*
Y-2866843D01*
X2316767D01*
Y-2868929D01*
X2312594D01*
Y-2871016D01*
X2310508D01*
Y-2873102D01*
X2306335D01*
Y-2875189D01*
X2304248D01*
Y-2877275D01*
X2302162D01*
Y-2879362D01*
X2300075D01*
Y-2881448D01*
X2295902D01*
Y-2883535D01*
X2293816D01*
Y-2885621D01*
X2289643D01*
Y-2887708D01*
X2285470D01*
Y-2889794D01*
X2283384D01*
Y-2891881D01*
X2279211D01*
Y-2893967D01*
X2275038D01*
Y-2896054D01*
Y-2898140D01*
X2272951D01*
Y-2900227D01*
X2264605D01*
Y-2898140D01*
X2262519D01*
Y-2896054D01*
X2260432D01*
Y-2893967D01*
X2258346D01*
Y-2891881D01*
X2256259D01*
Y-2889794D01*
X2254173D01*
Y-2887708D01*
X2252086D01*
Y-2885621D01*
X2250000D01*
Y-2883535D01*
X2247913D01*
Y-2881448D01*
X2245827D01*
Y-2879362D01*
X2243740D01*
Y-2877275D01*
X2241654D01*
Y-2875189D01*
X2239568D01*
Y-2873102D01*
X2237481D01*
Y-2871016D01*
X2235395D01*
Y-2868929D01*
X2233308D01*
Y-2866843D01*
X2231222D01*
Y-2864757D01*
X2229135D01*
Y-2862670D01*
X2227049D01*
Y-2860584D01*
X2224962D01*
Y-2858497D01*
X2222876D01*
Y-2856411D01*
X2220789D01*
Y-2854324D01*
X2218703D01*
Y-2852238D01*
X2216616D01*
Y-2850151D01*
X2214530D01*
Y-2848065D01*
X2212443D01*
Y-2845978D01*
X2210357D01*
Y-2843892D01*
X2208270D01*
Y-2841805D01*
X2206184D01*
Y-2839719D01*
X2204097D01*
Y-2837632D01*
X2202011D01*
Y-2835546D01*
X2199924D01*
Y-2833459D01*
X2197838D01*
Y-2831373D01*
X2195752D01*
Y-2829286D01*
Y-2827200D01*
X2197838D01*
Y-2825113D01*
Y-2823027D01*
X2199924D01*
Y-2820941D01*
X2202011D01*
Y-2818854D01*
Y-2816768D01*
X2204097D01*
Y-2814681D01*
X2206184D01*
Y-2812595D01*
Y-2810508D01*
X2208270D01*
Y-2808422D01*
X2210357D01*
Y-2806335D01*
X2212443D01*
Y-2804249D01*
Y-2802162D01*
X2214530D01*
Y-2800076D01*
X2216616D01*
Y-2797989D01*
Y-2795903D01*
X2218703D01*
Y-2793816D01*
Y-2791730D01*
X2220789D01*
Y-2789643D01*
X2222876D01*
Y-2787557D01*
X2224962D01*
Y-2785470D01*
Y-2783384D01*
X2227049D01*
Y-2781297D01*
X2229135D01*
Y-2779211D01*
X2231222D01*
Y-2777124D01*
Y-2775038D01*
X2233308D01*
Y-2772952D01*
X2235395D01*
Y-2770865D01*
Y-2768779D01*
X2237481D01*
Y-2766692D01*
Y-2764606D01*
X2239568D01*
Y-2762519D01*
X2241654D01*
Y-2760433D01*
Y-2758346D01*
X2243740D01*
Y-2756260D01*
X2245827D01*
Y-2754173D01*
X2247913D01*
Y-2752087D01*
Y-2750000D01*
X2250000D01*
Y-2747914D01*
Y-2745827D01*
Y-2743741D01*
Y-2741654D01*
Y-2739568D01*
Y-2737481D01*
Y-2735395D01*
X2247913D01*
Y-2733309D01*
Y-2731222D01*
Y-2729136D01*
X2245827D01*
Y-2727049D01*
Y-2724963D01*
X2243740D01*
Y-2722876D01*
X2241654D01*
Y-2720790D01*
Y-2718703D01*
Y-2716617D01*
X2239568D01*
Y-2714530D01*
Y-2712444D01*
Y-2710357D01*
X2237481D01*
Y-2708271D01*
Y-2706184D01*
Y-2704098D01*
X2235395D01*
Y-2702012D01*
Y-2699925D01*
Y-2697839D01*
X2233308D01*
Y-2695752D01*
Y-2693666D01*
Y-2691579D01*
X2231222D01*
Y-2689493D01*
Y-2687406D01*
Y-2685320D01*
X2229135D01*
Y-2683233D01*
Y-2681147D01*
X2227049D01*
Y-2679060D01*
Y-2676974D01*
X2224962D01*
Y-2674887D01*
X2222876D01*
Y-2672801D01*
Y-2670714D01*
Y-2668628D01*
X2220789D01*
Y-2666542D01*
Y-2664455D01*
X2218703D01*
Y-2662369D01*
Y-2660282D01*
X2212443D01*
Y-2658196D01*
X2199924D01*
Y-2656109D01*
X2187406D01*
Y-2654023D01*
X2176973D01*
Y-2651936D01*
X2172800D01*
Y-2649850D01*
X2160281D01*
Y-2647763D01*
X2145676D01*
Y-2645677D01*
X2135244D01*
Y-2643590D01*
X2122725D01*
Y-2641504D01*
X2116466D01*
Y-2639417D01*
Y-2637331D01*
Y-2635244D01*
Y-2633158D01*
Y-2631071D01*
Y-2628985D01*
Y-2626898D01*
Y-2624812D01*
Y-2622726D01*
Y-2620639D01*
Y-2618553D01*
Y-2616466D01*
Y-2614380D01*
Y-2612293D01*
Y-2610207D01*
Y-2608120D01*
Y-2606034D01*
Y-2603947D01*
Y-2601861D01*
Y-2599774D01*
Y-2597688D01*
Y-2595601D01*
Y-2593515D01*
Y-2591428D01*
Y-2589342D01*
Y-2587255D01*
Y-2585169D01*
Y-2583082D01*
Y-2580996D01*
Y-2578909D01*
Y-2576823D01*
Y-2574737D01*
Y-2572650D01*
Y-2570564D01*
Y-2568477D01*
Y-2566391D01*
Y-2564304D01*
Y-2562218D01*
Y-2560131D01*
Y-2558045D01*
Y-2555958D01*
Y-2553872D01*
Y-2551785D01*
Y-2549699D01*
Y-2547612D01*
Y-2545526D01*
Y-2543439D01*
Y-2541353D01*
Y-2539266D01*
X2120639D01*
Y-2537180D01*
X2135244D01*
Y-2535093D01*
X2147763D01*
Y-2533007D01*
X2151936D01*
Y-2530921D01*
X2164454D01*
Y-2528834D01*
X2176973D01*
Y-2526748D01*
X2185319D01*
Y-2524661D01*
X2195752D01*
Y-2522575D01*
X2208270D01*
Y-2520488D01*
X2218703D01*
Y-2518402D01*
X2220789D01*
Y-2516315D01*
Y-2514229D01*
X2222876D01*
Y-2512142D01*
X2224962D01*
Y-2510056D01*
X2227049D01*
Y-2507969D01*
Y-2505883D01*
Y-2503796D01*
X2229135D01*
Y-2501710D01*
X2231222D01*
Y-2499623D01*
Y-2497537D01*
Y-2495451D01*
X2233308D01*
Y-2493364D01*
Y-2491278D01*
Y-2489191D01*
X2235395D01*
Y-2487105D01*
Y-2485018D01*
Y-2482932D01*
X2237481D01*
Y-2480845D01*
Y-2478759D01*
Y-2476672D01*
X2239568D01*
Y-2474586D01*
Y-2472499D01*
X2241654D01*
Y-2470413D01*
Y-2468326D01*
Y-2466240D01*
X2243740D01*
Y-2464154D01*
X2245827D01*
Y-2462067D01*
Y-2459981D01*
X2247913D01*
Y-2457894D01*
Y-2455808D01*
Y-2453721D01*
X2250000D01*
Y-2451635D01*
Y-2449548D01*
X2252086D01*
Y-2447462D01*
Y-2445375D01*
X2254173D01*
Y-2443289D01*
Y-2441202D01*
Y-2439116D01*
Y-2437029D01*
Y-2434943D01*
X2252086D01*
Y-2432856D01*
X2250000D01*
Y-2430770D01*
Y-2428683D01*
X2247913D01*
Y-2426597D01*
X2245827D01*
Y-2424511D01*
X2243740D01*
Y-2422424D01*
Y-2420338D01*
X2241654D01*
Y-2418251D01*
X2239568D01*
Y-2416165D01*
Y-2414078D01*
X2237481D01*
Y-2411992D01*
X2235395D01*
Y-2409905D01*
Y-2407819D01*
X2233308D01*
Y-2405732D01*
Y-2403646D01*
X2231222D01*
Y-2401559D01*
X2229135D01*
Y-2399473D01*
Y-2397386D01*
X2227049D01*
Y-2395300D01*
X2224962D01*
Y-2393213D01*
X2222876D01*
Y-2391127D01*
X2220789D01*
Y-2389040D01*
Y-2386954D01*
X2218703D01*
Y-2384867D01*
X2216616D01*
Y-2382781D01*
Y-2380695D01*
X2214530D01*
Y-2378608D01*
Y-2376522D01*
X2212443D01*
Y-2374435D01*
X2210357D01*
Y-2372349D01*
X2208270D01*
Y-2370262D01*
Y-2368176D01*
X2206184D01*
Y-2366089D01*
X2204097D01*
Y-2364003D01*
Y-2361916D01*
X2202011D01*
Y-2359830D01*
X2199924D01*
Y-2357743D01*
Y-2355657D01*
X2197838D01*
Y-2353570D01*
X2195752D01*
Y-2351484D01*
Y-2349397D01*
X2197838D01*
Y-2347311D01*
X2199924D01*
Y-2345224D01*
X2202011D01*
Y-2343138D01*
X2204097D01*
Y-2341051D01*
X2206184D01*
Y-2338965D01*
X2208270D01*
Y-2336878D01*
X2210357D01*
Y-2334792D01*
X2212443D01*
Y-2332706D01*
X2214530D01*
Y-2330619D01*
X2216616D01*
Y-2328533D01*
X2218703D01*
Y-2326446D01*
X2220789D01*
Y-2324360D01*
X2222876D01*
Y-2322273D01*
X2224962D01*
Y-2320187D01*
X2227049D01*
Y-2318100D01*
X2229135D01*
Y-2316014D01*
X2231222D01*
Y-2313927D01*
X2233308D01*
Y-2311841D01*
X2235395D01*
Y-2309754D01*
X2237481D01*
Y-2307668D01*
X2239568D01*
Y-2305581D01*
X2241654D01*
Y-2303495D01*
X2243740D01*
Y-2301408D01*
X2245827D01*
Y-2299322D01*
X2247913D01*
Y-2297235D01*
X2250000D01*
Y-2295149D01*
X2252086D01*
Y-2293062D01*
X2254173D01*
Y-2290976D01*
X2256259D01*
Y-2288890D01*
X2258346D01*
Y-2286803D01*
X2260432D01*
Y-2284717D01*
X2262519D01*
Y-2282630D01*
X2264605D01*
Y-2280544D01*
X2272951D01*
Y-2282630D01*
X2277124D01*
Y-2284717D01*
X2279211D01*
Y-2286803D01*
X2283384D01*
Y-2288890D01*
X2285470D01*
Y-2290976D01*
X2287557D01*
Y-2293062D01*
X2289643D01*
Y-2295149D01*
X2293816D01*
Y-2297235D01*
X2297989D01*
Y-2299322D01*
X2300075D01*
Y-2301408D01*
X2302162D01*
Y-2303495D01*
X2306335D01*
Y-2305581D01*
X2308421D01*
Y-2307668D01*
X2310508D01*
Y-2309754D01*
X2314681D01*
Y-2311841D01*
X2318854D01*
Y-2313927D01*
X2320940D01*
Y-2316014D01*
X2325113D01*
Y-2318100D01*
X2329286D01*
Y-2320187D01*
X2331373D01*
Y-2322273D01*
X2333459D01*
Y-2324360D01*
X2335545D01*
Y-2326446D01*
X2339718D01*
Y-2328533D01*
X2341805D01*
Y-2330619D01*
X2345978D01*
Y-2332706D01*
X2348064D01*
Y-2334792D01*
X2352237D01*
Y-2336878D01*
X2364756D01*
Y-2334792D01*
X2371015D01*
Y-2332706D01*
X2377275D01*
Y-2330619D01*
X2383534D01*
Y-2328533D01*
X2389794D01*
Y-2326446D01*
X2391880D01*
Y-2324360D01*
X2398139D01*
Y-2322273D01*
X2402312D01*
Y-2320187D01*
X2406485D01*
Y-2318100D01*
X2410658D01*
Y-2316014D01*
X2416918D01*
Y-2313927D01*
X2423177D01*
Y-2311841D01*
X2429437D01*
Y-2309754D01*
X2431523D01*
Y-2307668D01*
X2433610D01*
Y-2305581D01*
X2435696D01*
Y-2303495D01*
X2437783D01*
Y-2301408D01*
Y-2299322D01*
Y-2297235D01*
Y-2295149D01*
X2439869D01*
Y-2293062D01*
Y-2290976D01*
Y-2288890D01*
Y-2286803D01*
Y-2284717D01*
Y-2282630D01*
Y-2280544D01*
X2441955D01*
Y-2278457D01*
Y-2276371D01*
Y-2274284D01*
Y-2272198D01*
Y-2270111D01*
Y-2268025D01*
X2444042D01*
Y-2265938D01*
Y-2263852D01*
Y-2261765D01*
Y-2259679D01*
Y-2257593D01*
Y-2255506D01*
Y-2253420D01*
X2446128D01*
Y-2251333D01*
Y-2249247D01*
Y-2247160D01*
Y-2245074D01*
Y-2242987D01*
Y-2240901D01*
X2448215D01*
Y-2238814D01*
Y-2236728D01*
Y-2234641D01*
Y-2232555D01*
Y-2230468D01*
X2450301D01*
Y-2228382D01*
Y-2226296D01*
X2452388D01*
Y-2224209D01*
Y-2222123D01*
Y-2220036D01*
Y-2217950D01*
Y-2215863D01*
X2454474D01*
Y-2213777D01*
Y-2211690D01*
Y-2209604D01*
Y-2207517D01*
Y-2205431D01*
Y-2203344D01*
X2456561D01*
Y-2201258D01*
X2558798D01*
Y-2203344D01*
D02*
G37*
G36*
X3976801Y-3040000D02*
X4176800D01*
X4176801Y2646000D01*
X3976801D01*
Y-2829000D01*
Y-3040000D01*
D02*
G37*
D64*
X-1704365Y2016089D02*
X-1711621Y2030601D01*
X-1726132Y2045112D01*
X-1740643Y2052367D01*
X-1769665D01*
X-1784177Y2045112D01*
X-1798688Y2030601D01*
X-1805944Y2016089D01*
X-1813199Y1994323D01*
Y1958045D01*
X-1805944Y1936278D01*
X-1798688Y1921767D01*
X-1784177Y1907256D01*
X-1769665Y1900000D01*
X-1740643D01*
X-1726132Y1907256D01*
X-1711621Y1921767D01*
X-1704365Y1936278D01*
Y1958045D01*
X-1740643D02*
X-1704365D01*
X-1655027Y2052367D02*
X-1647772Y2045112D01*
X-1640516Y2052367D01*
X-1647772Y2059623D01*
X-1655027Y2052367D01*
X-1647772Y2001578D02*
Y1900000D01*
X-1591904Y2052367D02*
Y1929022D01*
X-1584648Y1907256D01*
X-1570137Y1900000D01*
X-1555626D01*
X-1613670Y2001578D02*
X-1562881D01*
X-1533859Y2052367D02*
Y1900000D01*
Y1972556D02*
X-1512092Y1994323D01*
X-1497581Y2001578D01*
X-1475814D01*
X-1461303Y1994323D01*
X-1454048Y1972556D01*
Y1900000D01*
X-1414142Y2001578D02*
Y1929022D01*
X-1406886Y1907256D01*
X-1392375Y1900000D01*
X-1370608D01*
X-1356097Y1907256D01*
X-1334330Y1929022D01*
Y2001578D02*
Y1900000D01*
X-1294424Y2052367D02*
Y1900000D01*
Y1979811D02*
X-1279913Y1994323D01*
X-1265402Y2001578D01*
X-1243635D01*
X-1229124Y1994323D01*
X-1214613Y1979811D01*
X-1207357Y1958045D01*
Y1943534D01*
X-1214613Y1921767D01*
X-1229124Y1907256D01*
X-1243635Y1900000D01*
X-1265402D01*
X-1279913Y1907256D01*
X-1294424Y1921767D01*
X-1167452Y1914511D02*
X-1174707Y1907256D01*
X-1167452Y1900000D01*
X-1160196Y1907256D01*
X-1167452Y1914511D01*
X-1039753Y1979811D02*
X-1054264Y1994323D01*
X-1068776Y2001578D01*
X-1090542D01*
X-1105053Y1994323D01*
X-1119565Y1979811D01*
X-1126820Y1958045D01*
Y1943534D01*
X-1119565Y1921767D01*
X-1105053Y1907256D01*
X-1090542Y1900000D01*
X-1068776D01*
X-1054264Y1907256D01*
X-1039753Y1921767D01*
X-970825Y2001578D02*
X-985336Y1994323D01*
X-999847Y1979811D01*
X-1007103Y1958045D01*
Y1943534D01*
X-999847Y1921767D01*
X-985336Y1907256D01*
X-970825Y1900000D01*
X-949058D01*
X-934547Y1907256D01*
X-920036Y1921767D01*
X-912780Y1943534D01*
Y1958045D01*
X-920036Y1979811D01*
X-934547Y1994323D01*
X-949058Y2001578D01*
X-970825D01*
X-879405D02*
Y1900000D01*
Y1972556D02*
X-857638Y1994323D01*
X-843127Y2001578D01*
X-821360D01*
X-806849Y1994323D01*
X-799593Y1972556D01*
Y1900000D01*
Y1972556D02*
X-777826Y1994323D01*
X-763315Y2001578D01*
X-741548D01*
X-727037Y1994323D01*
X-719782Y1972556D01*
Y1900000D01*
X-671895Y1878233D02*
X-570317Y2052367D01*
X-560159Y2001578D02*
Y1900000D01*
Y1972556D02*
X-538392Y1994323D01*
X-523881Y2001578D01*
X-502114D01*
X-487603Y1994323D01*
X-480347Y1972556D01*
Y1900000D01*
Y1972556D02*
X-458580Y1994323D01*
X-444069Y2001578D01*
X-422302D01*
X-407791Y1994323D01*
X-400536Y1972556D01*
Y1900000D01*
X-265582Y2001578D02*
Y1900000D01*
Y1979811D02*
X-280093Y1994323D01*
X-294604Y2001578D01*
X-316371D01*
X-330882Y1994323D01*
X-345393Y1979811D01*
X-352649Y1958045D01*
Y1943534D01*
X-345393Y1921767D01*
X-330882Y1907256D01*
X-316371Y1900000D01*
X-294604D01*
X-280093Y1907256D01*
X-265582Y1921767D01*
X-224951Y2052367D02*
Y1900000D01*
X-152395Y2001578D02*
X-224951Y1929022D01*
X-195928Y1958045D02*
X-145139Y1900000D01*
X-121196Y1958045D02*
X-34128D01*
Y1972556D01*
X-41384Y1987067D01*
X-48640Y1994323D01*
X-63151Y2001578D01*
X-84918D01*
X-99429Y1994323D01*
X-113940Y1979811D01*
X-121196Y1958045D01*
Y1943534D01*
X-113940Y1921767D01*
X-99429Y1907256D01*
X-84918Y1900000D01*
X-63151D01*
X-48640Y1907256D01*
X-34128Y1921767D01*
X78333Y1979811D02*
X71078Y1994323D01*
X49311Y2001578D01*
X27544D01*
X5777Y1994323D01*
X-1478Y1979811D01*
X5777Y1965300D01*
X20289Y1958045D01*
X56566Y1950789D01*
X71078Y1943534D01*
X78333Y1929022D01*
Y1921767D01*
X71078Y1907256D01*
X49311Y1900000D01*
X27544D01*
X5777Y1907256D01*
X-1478Y1921767D01*
X132025Y2052367D02*
Y1929022D01*
X139280Y1907256D01*
X153791Y1900000D01*
X168302D01*
X110258Y2001578D02*
X161047D01*
X190069D02*
Y1929022D01*
X197325Y1907256D01*
X211836Y1900000D01*
X233603D01*
X248114Y1907256D01*
X269881Y1929022D01*
Y2001578D02*
Y1900000D01*
X367831Y2052367D02*
X353320D01*
X338809Y2045112D01*
X331553Y2023345D01*
Y1900000D01*
X309787Y2001578D02*
X360576D01*
X447642Y2052367D02*
X433131D01*
X418620Y2045112D01*
X411365Y2023345D01*
Y1900000D01*
X389598Y2001578D02*
X440387D01*
X469409Y1878233D02*
X570987Y2052367D01*
X581145Y2001578D02*
Y1929022D01*
X588401Y1907256D01*
X602912Y1900000D01*
X624679D01*
X639190Y1907256D01*
X660957Y1929022D01*
Y2001578D02*
Y1900000D01*
X700863Y2001578D02*
Y1900000D01*
Y1972556D02*
X722629Y1994323D01*
X737141Y2001578D01*
X758907D01*
X773419Y1994323D01*
X780674Y1972556D01*
Y1900000D01*
Y1972556D02*
X802441Y1994323D01*
X816952Y2001578D01*
X838719D01*
X853230Y1994323D01*
X860486Y1972556D01*
Y1900000D01*
X995440Y2052367D02*
Y1900000D01*
Y1979811D02*
X980928Y1994323D01*
X966417Y2001578D01*
X944651D01*
X930139Y1994323D01*
X915628Y1979811D01*
X908373Y1958045D01*
Y1943534D01*
X915628Y1921767D01*
X930139Y1907256D01*
X944651Y1900000D01*
X966417D01*
X980928Y1907256D01*
X995440Y1921767D01*
X1036071Y2052367D02*
Y1900000D01*
X1108627Y2001578D02*
X1036071Y1929022D01*
X1065093Y1958045D02*
X1115882Y1900000D01*
X1139826Y2001578D02*
X1183359Y1900000D01*
X1226893Y2001578D02*
X1183359Y1900000D01*
X1258817Y2016089D02*
Y2023345D01*
X1266073Y2037856D01*
X1273329Y2045112D01*
X1287840Y2052367D01*
X1316862D01*
X1331373Y2045112D01*
X1338629Y2037856D01*
X1345885Y2023345D01*
Y2008834D01*
X1338629Y1994323D01*
X1324118Y1972556D01*
X1251562Y1900000D01*
X1353140D01*
X-1704365Y2316089D02*
X-1711621Y2330601D01*
X-1726132Y2345112D01*
X-1740643Y2352367D01*
X-1769665D01*
X-1784177Y2345112D01*
X-1798688Y2330601D01*
X-1805944Y2316089D01*
X-1813199Y2294323D01*
Y2258045D01*
X-1805944Y2236278D01*
X-1798688Y2221767D01*
X-1784177Y2207255D01*
X-1769665Y2200000D01*
X-1740643D01*
X-1726132Y2207255D01*
X-1711621Y2221767D01*
X-1704365Y2236278D01*
Y2258045D01*
X-1740643D02*
X-1704365D01*
X-1655027Y2352367D02*
X-1647772Y2345112D01*
X-1640516Y2352367D01*
X-1647772Y2359623D01*
X-1655027Y2352367D01*
X-1647772Y2301578D02*
Y2200000D01*
X-1591904Y2352367D02*
Y2229022D01*
X-1584648Y2207255D01*
X-1570137Y2200000D01*
X-1555626D01*
X-1613670Y2301578D02*
X-1562881D01*
X-1533859Y2352367D02*
Y2200000D01*
Y2272556D02*
X-1512092Y2294323D01*
X-1497581Y2301578D01*
X-1475814D01*
X-1461303Y2294323D01*
X-1454048Y2272556D01*
Y2200000D01*
X-1414142Y2301578D02*
Y2229022D01*
X-1406886Y2207255D01*
X-1392375Y2200000D01*
X-1370608D01*
X-1356097Y2207255D01*
X-1334330Y2229022D01*
Y2301578D02*
Y2200000D01*
X-1294424Y2352367D02*
Y2200000D01*
Y2279811D02*
X-1279913Y2294323D01*
X-1265402Y2301578D01*
X-1243635D01*
X-1229124Y2294323D01*
X-1214613Y2279811D01*
X-1207357Y2258045D01*
Y2243533D01*
X-1214613Y2221767D01*
X-1229124Y2207255D01*
X-1243635Y2200000D01*
X-1265402D01*
X-1279913Y2207255D01*
X-1294424Y2221767D01*
X-1167452Y2214511D02*
X-1174707Y2207255D01*
X-1167452Y2200000D01*
X-1160196Y2207255D01*
X-1167452Y2214511D01*
X-1039753Y2279811D02*
X-1054264Y2294323D01*
X-1068776Y2301578D01*
X-1090542D01*
X-1105053Y2294323D01*
X-1119565Y2279811D01*
X-1126820Y2258045D01*
Y2243533D01*
X-1119565Y2221767D01*
X-1105053Y2207255D01*
X-1090542Y2200000D01*
X-1068776D01*
X-1054264Y2207255D01*
X-1039753Y2221767D01*
X-970825Y2301578D02*
X-985336Y2294323D01*
X-999847Y2279811D01*
X-1007103Y2258045D01*
Y2243533D01*
X-999847Y2221767D01*
X-985336Y2207255D01*
X-970825Y2200000D01*
X-949058D01*
X-934547Y2207255D01*
X-920036Y2221767D01*
X-912780Y2243533D01*
Y2258045D01*
X-920036Y2279811D01*
X-934547Y2294323D01*
X-949058Y2301578D01*
X-970825D01*
X-879405D02*
Y2200000D01*
Y2272556D02*
X-857638Y2294323D01*
X-843127Y2301578D01*
X-821360D01*
X-806849Y2294323D01*
X-799593Y2272556D01*
Y2200000D01*
Y2272556D02*
X-777826Y2294323D01*
X-763315Y2301578D01*
X-741548D01*
X-727037Y2294323D01*
X-719782Y2272556D01*
Y2200000D01*
X-671895Y2178233D02*
X-570317Y2352367D01*
X-487603D02*
Y2236278D01*
X-494858Y2214511D01*
X-502114Y2207255D01*
X-516625Y2200000D01*
X-531136D01*
X-545647Y2207255D01*
X-552903Y2214511D01*
X-560159Y2236278D01*
Y2250789D01*
X-412144Y2301578D02*
X-426656Y2294323D01*
X-441167Y2279811D01*
X-448423Y2258045D01*
Y2243533D01*
X-441167Y2221767D01*
X-426656Y2207255D01*
X-412144Y2200000D01*
X-390378D01*
X-375867Y2207255D01*
X-361355Y2221767D01*
X-354100Y2243533D01*
Y2258045D01*
X-361355Y2279811D01*
X-375867Y2294323D01*
X-390378Y2301578D01*
X-412144D01*
X-320724D02*
Y2200000D01*
Y2258045D02*
X-313469Y2279811D01*
X-298957Y2294323D01*
X-284446Y2301578D01*
X-262680D01*
X-161827D02*
Y2185489D01*
X-169082Y2163722D01*
X-176338Y2156466D01*
X-190849Y2149211D01*
X-212616D01*
X-227127Y2156466D01*
X-161827Y2279811D02*
X-176338Y2294323D01*
X-190849Y2301578D01*
X-212616D01*
X-227127Y2294323D01*
X-241638Y2279811D01*
X-248894Y2258045D01*
Y2243533D01*
X-241638Y2221767D01*
X-227127Y2207255D01*
X-212616Y2200000D01*
X-190849D01*
X-176338Y2207255D01*
X-161827Y2221767D01*
X-121196Y2258045D02*
X-34128D01*
Y2272556D01*
X-41384Y2287067D01*
X-48640Y2294323D01*
X-63151Y2301578D01*
X-84918D01*
X-99429Y2294323D01*
X-113940Y2279811D01*
X-121196Y2258045D01*
Y2243533D01*
X-113940Y2221767D01*
X-99429Y2207255D01*
X-84918Y2200000D01*
X-63151D01*
X-48640Y2207255D01*
X-34128Y2221767D01*
X-1478Y2352367D02*
Y2200000D01*
Y2352367D02*
X100100Y2200000D01*
Y2352367D02*
Y2200000D01*
X142182Y2301578D02*
Y2229022D01*
X149438Y2207255D01*
X163949Y2200000D01*
X185716D01*
X200227Y2207255D01*
X221994Y2229022D01*
Y2301578D02*
Y2200000D01*
X261900Y2301578D02*
Y2200000D01*
Y2272556D02*
X283666Y2294323D01*
X298178Y2301578D01*
X319944D01*
X334456Y2294323D01*
X341711Y2272556D01*
Y2200000D01*
X417895Y2301578D02*
X403384Y2294323D01*
X388872Y2279811D01*
X381617Y2258045D01*
Y2243533D01*
X388872Y2221767D01*
X403384Y2207255D01*
X417895Y2200000D01*
X439662D01*
X454173Y2207255D01*
X468684Y2221767D01*
X475940Y2243533D01*
Y2258045D01*
X468684Y2279811D01*
X454173Y2294323D01*
X439662Y2301578D01*
X417895D01*
X509315D02*
Y2200000D01*
Y2272556D02*
X531082Y2294323D01*
X545593Y2301578D01*
X567360D01*
X581871Y2294323D01*
X589127Y2272556D01*
Y2200000D01*
X665311Y2301578D02*
X650799Y2294323D01*
X636288Y2279811D01*
X629033Y2258045D01*
Y2243533D01*
X636288Y2221767D01*
X650799Y2207255D01*
X665311Y2200000D01*
X687077D01*
X701588Y2207255D01*
X716100Y2221767D01*
X723355Y2243533D01*
Y2258045D01*
X716100Y2279811D01*
X701588Y2294323D01*
X687077Y2301578D01*
X665311D01*
X756731Y2178233D02*
X858309Y2352367D01*
X868467Y2301578D02*
Y2229022D01*
X875722Y2207255D01*
X890234Y2200000D01*
X912000D01*
X926511Y2207255D01*
X948278Y2229022D01*
Y2301578D02*
Y2200000D01*
X988184Y2301578D02*
Y2200000D01*
Y2272556D02*
X1009951Y2294323D01*
X1024462Y2301578D01*
X1046229D01*
X1060740Y2294323D01*
X1067996Y2272556D01*
Y2200000D01*
Y2272556D02*
X1089762Y2294323D01*
X1104274Y2301578D01*
X1126040D01*
X1140551Y2294323D01*
X1147807Y2272556D01*
Y2200000D01*
X1282761Y2352367D02*
Y2200000D01*
Y2279811D02*
X1268250Y2294323D01*
X1253739Y2301578D01*
X1231972D01*
X1217461Y2294323D01*
X1202950Y2279811D01*
X1195694Y2258045D01*
Y2243533D01*
X1202950Y2221767D01*
X1217461Y2207255D01*
X1231972Y2200000D01*
X1253739D01*
X1268250Y2207255D01*
X1282761Y2221767D01*
X1323392Y2352367D02*
Y2200000D01*
X1395948Y2301578D02*
X1323392Y2229022D01*
X1352415Y2258045D02*
X1403204Y2200000D01*
X1427147Y2301578D02*
X1470681Y2200000D01*
X1514214Y2301578D02*
X1470681Y2200000D01*
X1546139Y2316089D02*
Y2323345D01*
X1553395Y2337856D01*
X1560650Y2345112D01*
X1575161Y2352367D01*
X1604184D01*
X1618695Y2345112D01*
X1625951Y2337856D01*
X1633206Y2323345D01*
Y2308834D01*
X1625951Y2294323D01*
X1611439Y2272556D01*
X1538883Y2200000D01*
X1640462D01*
D65*
X3360091Y-2329065D02*
X3293446D01*
X3326769D01*
Y-2495678D01*
X3293446Y-2529000D01*
X3260124D01*
X3226801Y-2495678D01*
X3426737Y-2529000D02*
Y-2329065D01*
X3560027Y-2529000D01*
Y-2329065D01*
X3759963Y-2362387D02*
X3726640Y-2329065D01*
X3659995D01*
X3626672Y-2362387D01*
Y-2495678D01*
X3659995Y-2529000D01*
X3726640D01*
X3759963Y-2495678D01*
X3260092Y-2829000D02*
X3126801D01*
X3260092Y-2695710D01*
Y-2662387D01*
X3226769Y-2629065D01*
X3160124D01*
X3126801Y-2662387D01*
X3326737D02*
X3360059Y-2629065D01*
X3426705D01*
X3460027Y-2662387D01*
Y-2795678D01*
X3426705Y-2829000D01*
X3360059D01*
X3326737Y-2795678D01*
Y-2662387D01*
X3659963Y-2829000D02*
X3526672D01*
X3659963Y-2695710D01*
Y-2662387D01*
X3626640Y-2629065D01*
X3559995D01*
X3526672Y-2662387D01*
X3826576Y-2829000D02*
Y-2629065D01*
X3726608Y-2729032D01*
X3859898D01*
X2125000Y-1925043D02*
Y-2067870D01*
X2134522Y-2096435D01*
X2153565Y-2115479D01*
X2182131Y-2125000D01*
X2201174D01*
X2229739Y-2115479D01*
X2248783Y-2096435D01*
X2258305Y-2067870D01*
Y-1925043D01*
X2313531D02*
Y-2125000D01*
Y-1925043D02*
X2389705Y-2125000D01*
X2465879Y-1925043D02*
X2389705Y-2125000D01*
X2465879Y-1925043D02*
Y-2125000D01*
X2523010Y-1925043D02*
Y-2125000D01*
Y-1925043D02*
X2589663D01*
X2618228Y-1934565D01*
X2637272Y-1953608D01*
X2646793Y-1972652D01*
X2656315Y-2001217D01*
Y-2048826D01*
X2646793Y-2077391D01*
X2637272Y-2096435D01*
X2618228Y-2115479D01*
X2589663Y-2125000D01*
X2523010D01*
X2701067Y-1925043D02*
Y-2125000D01*
X2834372Y-1925043D02*
X2701067Y-2058348D01*
X2748676Y-2010739D02*
X2834372Y-2125000D01*
X3036234Y-1925043D02*
X3112408Y-2125000D01*
X3188582Y-1925043D02*
X3112408Y-2125000D01*
X3223813Y-1972652D02*
Y-1963130D01*
X3233335Y-1944087D01*
X3242857Y-1934565D01*
X3261900Y-1925043D01*
X3299987D01*
X3319031Y-1934565D01*
X3328553Y-1944087D01*
X3338074Y-1963130D01*
Y-1982174D01*
X3328553Y-2001217D01*
X3309509Y-2029783D01*
X3214291Y-2125000D01*
X3347596D01*
X3682763Y-1953608D02*
X3663719Y-1934565D01*
X3635154Y-1925043D01*
X3597067D01*
X3568501Y-1934565D01*
X3549458Y-1953608D01*
Y-1972652D01*
X3558979Y-1991696D01*
X3568501Y-2001217D01*
X3587545Y-2010739D01*
X3644675Y-2029783D01*
X3663719Y-2039304D01*
X3673241Y-2048826D01*
X3682763Y-2067870D01*
Y-2096435D01*
X3663719Y-2115479D01*
X3635154Y-2125000D01*
X3597067D01*
X3568501Y-2115479D01*
X3549458Y-2096435D01*
X3737037Y-1972652D02*
Y-1963130D01*
X3746559Y-1944087D01*
X3756080Y-1934565D01*
X3775124Y-1925043D01*
X3813211D01*
X3832254Y-1934565D01*
X3841776Y-1944087D01*
X3851298Y-1963130D01*
Y-1982174D01*
X3841776Y-2001217D01*
X3822733Y-2029783D01*
X3727515Y-2125000D01*
X3860820D01*
D66*
X-1000000Y-3640050D02*
D03*
D67*
X824997Y-2760000D02*
D03*
Y-2940000D02*
D03*
X474998Y-2760000D02*
D03*
Y-2940000D02*
D03*
X1174999Y-2759999D02*
D03*
Y-2939999D02*
D03*
X1524998Y-2759999D02*
D03*
Y-2939999D02*
D03*
D68*
X-998199Y2546000D02*
D03*
D69*
X-3175000Y875000D02*
D03*
X-2325000D02*
D03*
D70*
X-3575000Y-2860000D02*
D03*
X-3525000D02*
D03*
X-3475000D02*
D03*
X-3425000D02*
D03*
X-3375000D02*
D03*
X-3325000D02*
D03*
X-3275000D02*
D03*
X-3225000D02*
D03*
X-3175000D02*
D03*
X-3125000D02*
D03*
X-3075000D02*
D03*
X-3025000D02*
D03*
X-2975000D02*
D03*
X-2925000D02*
D03*
X-2875000D02*
D03*
X-2825000D02*
D03*
X-2775000D02*
D03*
X-2725000D02*
D03*
X-2675000D02*
D03*
X-2625000D02*
D03*
X-2575000D02*
D03*
X-2525000D02*
D03*
X-2475000D02*
D03*
X-2425000D02*
D03*
X-3575000Y-2140000D02*
D03*
X-3525000D02*
D03*
X-3475000D02*
D03*
X-3425000D02*
D03*
X-3375000D02*
D03*
X-3325000D02*
D03*
X-3275000D02*
D03*
X-3225000D02*
D03*
X-3175000D02*
D03*
X-3125000D02*
D03*
X-3075000D02*
D03*
X-3025000D02*
D03*
X-2975000D02*
D03*
X-2925000D02*
D03*
X-2875000D02*
D03*
X-2825000D02*
D03*
X-2775000D02*
D03*
X-2725000D02*
D03*
X-2675000D02*
D03*
X-2625000D02*
D03*
X-2575000D02*
D03*
X-2525000D02*
D03*
X-2475000D02*
D03*
X-2425000D02*
D03*
X-1575000Y-2860000D02*
D03*
X-1525000D02*
D03*
X-1475000D02*
D03*
X-1425000D02*
D03*
X-1375000D02*
D03*
X-1325000D02*
D03*
X-1275000D02*
D03*
X-1225000D02*
D03*
X-1175000D02*
D03*
X-1125000D02*
D03*
X-1075000D02*
D03*
X-1025000D02*
D03*
X-975000D02*
D03*
X-925000D02*
D03*
X-875000D02*
D03*
X-825000D02*
D03*
X-775000D02*
D03*
X-725000D02*
D03*
X-675000D02*
D03*
X-625000D02*
D03*
X-575000D02*
D03*
X-525000D02*
D03*
X-475000D02*
D03*
X-425000D02*
D03*
X-1575000Y-2140000D02*
D03*
X-1525000D02*
D03*
X-1475000D02*
D03*
X-1425000D02*
D03*
X-1375000D02*
D03*
X-1325000D02*
D03*
X-1275000D02*
D03*
X-1225000D02*
D03*
X-1175000D02*
D03*
X-1125000D02*
D03*
X-1075000D02*
D03*
X-1025000D02*
D03*
X-975000D02*
D03*
X-925000D02*
D03*
X-875000D02*
D03*
X-825000D02*
D03*
X-775000D02*
D03*
X-725000D02*
D03*
X-675000D02*
D03*
X-625000D02*
D03*
X-575000D02*
D03*
X-525000D02*
D03*
X-475000D02*
D03*
X-425000D02*
D03*
X425000Y-2560000D02*
D03*
X475000D02*
D03*
X525000D02*
D03*
X575000D02*
D03*
X625000D02*
D03*
X675000D02*
D03*
X725000D02*
D03*
X775000D02*
D03*
X825000D02*
D03*
X875000D02*
D03*
X925000D02*
D03*
X975000D02*
D03*
X1025000D02*
D03*
X1075000D02*
D03*
X1125000D02*
D03*
X1175000D02*
D03*
X1225000D02*
D03*
X1275000D02*
D03*
X1325000D02*
D03*
X1375000D02*
D03*
X1425000D02*
D03*
X1475000D02*
D03*
X1525000D02*
D03*
X1575000D02*
D03*
X425000Y-1840000D02*
D03*
X475000D02*
D03*
X525000D02*
D03*
X575000D02*
D03*
X625000D02*
D03*
X675000D02*
D03*
X725000D02*
D03*
X775000D02*
D03*
X825000D02*
D03*
X875000D02*
D03*
X925000D02*
D03*
X975000D02*
D03*
X1025000D02*
D03*
X1075000D02*
D03*
X1125000D02*
D03*
X1175000D02*
D03*
X1225000D02*
D03*
X1275000D02*
D03*
X1325000D02*
D03*
X1375000D02*
D03*
X1425000D02*
D03*
X1475000D02*
D03*
X1525000D02*
D03*
X1575000D02*
D03*
D71*
X-3740000Y340500D02*
D03*
Y213500D02*
D03*
Y86500D02*
D03*
Y-40500D02*
D03*
X-3260000Y340500D02*
D03*
Y213500D02*
D03*
Y86500D02*
D03*
Y-40500D02*
D03*
X-4760000Y-40500D02*
D03*
Y86500D02*
D03*
Y213500D02*
D03*
Y340500D02*
D03*
X-5240000Y-40500D02*
D03*
Y86500D02*
D03*
Y213500D02*
D03*
Y340500D02*
D03*
D72*
X-1055000Y-875000D02*
D03*
X-1055000Y-825000D02*
D03*
Y-775000D02*
D03*
Y-725000D02*
D03*
Y-675000D02*
D03*
Y-625000D02*
D03*
X-1055000Y-575000D02*
D03*
Y-525000D02*
D03*
X-1055000Y-475000D02*
D03*
Y-425000D02*
D03*
Y-375000D02*
D03*
Y-325000D02*
D03*
Y-275000D02*
D03*
X-1055000Y-225000D02*
D03*
Y-175000D02*
D03*
X-1055000Y-125000D02*
D03*
Y-75000D02*
D03*
Y-25000D02*
D03*
Y25000D02*
D03*
Y75000D02*
D03*
Y125000D02*
D03*
Y175000D02*
D03*
Y225000D02*
D03*
Y275000D02*
D03*
Y325000D02*
D03*
Y375000D02*
D03*
X-1055000Y425000D02*
D03*
Y475000D02*
D03*
Y525000D02*
D03*
X-1055000Y575000D02*
D03*
Y625000D02*
D03*
Y675000D02*
D03*
Y725000D02*
D03*
Y775000D02*
D03*
X-1055000Y825000D02*
D03*
Y875000D02*
D03*
X1055000D02*
D03*
Y825000D02*
D03*
Y775000D02*
D03*
Y725000D02*
D03*
Y675000D02*
D03*
Y625000D02*
D03*
Y575000D02*
D03*
Y525000D02*
D03*
Y475000D02*
D03*
Y425000D02*
D03*
Y375000D02*
D03*
X1055000Y325000D02*
D03*
X1055000Y275000D02*
D03*
Y225000D02*
D03*
Y175000D02*
D03*
Y125000D02*
D03*
Y75000D02*
D03*
Y25000D02*
D03*
X1055000Y-25000D02*
D03*
Y-75000D02*
D03*
X1055000Y-125000D02*
D03*
Y-175000D02*
D03*
Y-225000D02*
D03*
Y-275000D02*
D03*
Y-325000D02*
D03*
Y-375000D02*
D03*
Y-425000D02*
D03*
Y-475000D02*
D03*
Y-525000D02*
D03*
Y-575000D02*
D03*
Y-625000D02*
D03*
Y-675000D02*
D03*
Y-725000D02*
D03*
Y-775000D02*
D03*
Y-825000D02*
D03*
Y-875000D02*
D03*
D73*
X-875000Y1055000D02*
D03*
X-825000Y1055000D02*
D03*
X-775000D02*
D03*
X-725000Y1055000D02*
D03*
X-675000D02*
D03*
X-625000D02*
D03*
X-575000D02*
D03*
X-525000D02*
D03*
X-475000Y1055000D02*
D03*
X-425000D02*
D03*
X-375000D02*
D03*
X-325000Y1055000D02*
D03*
X-275000D02*
D03*
X-225000D02*
D03*
X-175000D02*
D03*
X-125000D02*
D03*
X-75000D02*
D03*
X-25000D02*
D03*
X25000D02*
D03*
X75000D02*
D03*
X125000D02*
D03*
X175000Y1055000D02*
D03*
X225000D02*
D03*
X275000D02*
D03*
X325000Y1055000D02*
D03*
X375000D02*
D03*
X425000D02*
D03*
X475000D02*
D03*
X525000D02*
D03*
X575000Y1055000D02*
D03*
X625000D02*
D03*
X675000Y1055000D02*
D03*
X725000D02*
D03*
X775000D02*
D03*
X825000D02*
D03*
X875000D02*
D03*
Y-1055000D02*
D03*
X825000D02*
D03*
X775000Y-1055000D02*
D03*
X725000Y-1055000D02*
D03*
X675000D02*
D03*
X625000D02*
D03*
X575000D02*
D03*
X525000D02*
D03*
X475000D02*
D03*
X425000D02*
D03*
X375000D02*
D03*
X325000D02*
D03*
X275000D02*
D03*
X225000D02*
D03*
X175000D02*
D03*
X125000Y-1055000D02*
D03*
X75000D02*
D03*
X25000D02*
D03*
X-25000Y-1055000D02*
D03*
X-75000D02*
D03*
X-125000D02*
D03*
X-175000D02*
D03*
X-225000D02*
D03*
X-275000Y-1055000D02*
D03*
X-325000D02*
D03*
X-375000Y-1055000D02*
D03*
X-425000D02*
D03*
X-475000D02*
D03*
X-525000D02*
D03*
X-575000D02*
D03*
X-625000D02*
D03*
X-675000D02*
D03*
X-725000D02*
D03*
X-775000D02*
D03*
X-825000D02*
D03*
X-875001D02*
D03*
D74*
X-4500000Y-2000000D02*
D03*
D75*
X-4601600Y-1847600D02*
D03*
X-4550800D02*
D03*
X-4500000D02*
D03*
X-4449200D02*
D03*
X-4398400D02*
D03*
Y-2152400D02*
D03*
X-4449200D02*
D03*
X-4500000D02*
D03*
X-4550800D02*
D03*
X-4601600D02*
D03*
D76*
X-1905000Y-2375000D02*
D03*
X-2095000D02*
D03*
X-2000000Y-2625000D02*
D03*
X95000Y-2375000D02*
D03*
X-95000D02*
D03*
X0Y-2625000D02*
D03*
D77*
X-4937000Y-3611500D02*
D03*
X-4683000D02*
D03*
X-4429000D02*
D03*
X-4175000D02*
D03*
X-3921000D02*
D03*
X-3667000D02*
D03*
X-3413000D02*
D03*
X-3159000D02*
D03*
X-2905000D02*
D03*
X-2651000D02*
D03*
X-2397000D02*
D03*
X-2143000D02*
D03*
X-1889000D02*
D03*
X-1635000D02*
D03*
X-1381000D02*
D03*
X-1127000D02*
D03*
X-873000D02*
D03*
X-619000D02*
D03*
X-365000D02*
D03*
X-111000D02*
D03*
X143000D02*
D03*
X397000D02*
D03*
X651000D02*
D03*
X905000D02*
D03*
X1159000D02*
D03*
X1413000D02*
D03*
X1667000D02*
D03*
X1921000D02*
D03*
X2175000D02*
D03*
X2429000D02*
D03*
X2683000D02*
D03*
X2937000D02*
D03*
D78*
X2265000Y-1272500D02*
D03*
Y-1337500D02*
D03*
Y-1402500D02*
D03*
Y-1467500D02*
D03*
Y-1532500D02*
D03*
Y-1597500D02*
D03*
Y-1662500D02*
D03*
Y-1727500D02*
D03*
X2835000Y-1272500D02*
D03*
Y-1337500D02*
D03*
Y-1402500D02*
D03*
Y-1467500D02*
D03*
Y-1532500D02*
D03*
Y-1597500D02*
D03*
Y-1662500D02*
D03*
Y-1727500D02*
D03*
D79*
X-2962734Y250016D02*
D03*
X-2862734D02*
D03*
X-3049984Y1500016D02*
D03*
X-2949984D02*
D03*
X-2950016Y1624984D02*
D03*
X-3050016D02*
D03*
X2500000Y-1125000D02*
D03*
X2599991Y-1125000D02*
D03*
X-3450000Y500000D02*
D03*
X-3549992Y500000D02*
D03*
X-3100000Y-1500000D02*
D03*
X-3199992Y-1500000D02*
D03*
X-2850000Y-1500000D02*
D03*
X-2949992Y-1500000D02*
D03*
X-2962750Y0D02*
D03*
X-2862759Y-0D02*
D03*
X-2862750Y375000D02*
D03*
X-2962742Y375000D02*
D03*
X-3050000Y1375000D02*
D03*
X-2950009Y1375000D02*
D03*
X-3050000Y1250000D02*
D03*
X-2950009Y1250000D02*
D03*
X-2725000Y-1500000D02*
D03*
X-2625009Y-1500000D02*
D03*
X-2450000Y1250000D02*
D03*
X-2549992Y1250000D02*
D03*
X-2260000Y-1500000D02*
D03*
X-2359992Y-1500000D02*
D03*
X-1942000Y-0D02*
D03*
X-2041992Y0D02*
D03*
X-1500000Y-1500000D02*
D03*
X-1400009Y-1500000D02*
D03*
X-800000Y-1325000D02*
D03*
X-700009Y-1325000D02*
D03*
X-700000Y1300000D02*
D03*
X-799992Y1300000D02*
D03*
X-50000D02*
D03*
X49992Y1300000D02*
D03*
X50000Y1400000D02*
D03*
X-49992Y1400000D02*
D03*
X750000Y1300000D02*
D03*
X650008Y1300000D02*
D03*
X1375000Y-625000D02*
D03*
X1275008Y-625000D02*
D03*
X1275000Y-75000D02*
D03*
X1374991Y-75000D02*
D03*
X1275000Y-175000D02*
D03*
X1374991Y-175000D02*
D03*
X1275000Y425000D02*
D03*
X1374991Y425000D02*
D03*
X1536785Y874984D02*
D03*
X1436785D02*
D03*
X-4875009Y500000D02*
D03*
X-4975000Y500000D02*
D03*
D80*
X1661817Y874984D02*
D03*
Y774984D02*
D03*
X-4199984Y-1625016D02*
D03*
Y-1725016D02*
D03*
X-4799984Y-2275016D02*
D03*
Y-2375016D02*
D03*
X-4699984Y-2275016D02*
D03*
Y-2375016D02*
D03*
X-1933984Y-1640016D02*
D03*
Y-1740016D02*
D03*
X-2049984Y-1640016D02*
D03*
Y-1740016D02*
D03*
X1750016Y-450016D02*
D03*
Y-550016D02*
D03*
X-2125016Y-2849984D02*
D03*
Y-2749984D02*
D03*
X-2000000Y-2850000D02*
D03*
Y-2750000D02*
D03*
X-3725000Y-2425000D02*
D03*
X-3725000Y-2325009D02*
D03*
X-2275000Y-2425000D02*
D03*
X-2275000Y-2325009D02*
D03*
X-1725000Y-2425000D02*
D03*
X-1725000Y-2325009D02*
D03*
X-1325000Y-500000D02*
D03*
X-1325000Y-400009D02*
D03*
X-1325000Y-200000D02*
D03*
X-1325000Y-100009D02*
D03*
X-1325000Y50000D02*
D03*
X-1325000Y149991D02*
D03*
X-275000Y-2425000D02*
D03*
X-275000Y-2325009D02*
D03*
X100000Y-1450000D02*
D03*
X100000Y-1350008D02*
D03*
X1000000Y-1449992D02*
D03*
X1000000Y-1350000D02*
D03*
X1850000Y-2025000D02*
D03*
X1850000Y-2124991D02*
D03*
X-3725000Y-2575000D02*
D03*
X-3725000Y-2674992D02*
D03*
X-2275000Y-2575000D02*
D03*
X-2275000Y-2674992D02*
D03*
X-1725000Y-2575000D02*
D03*
X-1725000Y-2674992D02*
D03*
X-275000Y-2575000D02*
D03*
X-275000Y-2674992D02*
D03*
X-100000Y-1350000D02*
D03*
X-100000Y-1449992D02*
D03*
X0Y-1350000D02*
D03*
X-1Y-1449992D02*
D03*
X275000Y-2275000D02*
D03*
X275000Y-2374991D02*
D03*
X1724999D02*
D03*
X1725000Y-2275000D02*
D03*
X450000Y-1350000D02*
D03*
X450000Y-1449992D02*
D03*
X675000Y-1350000D02*
D03*
X675000Y-1449992D02*
D03*
X300000Y1300000D02*
D03*
X300000Y1399992D02*
D03*
X1725000Y-2025000D02*
D03*
X1725000Y-2124991D02*
D03*
X-1938183Y1299984D02*
D03*
Y1199984D02*
D03*
X-1813215Y1200016D02*
D03*
Y1300016D02*
D03*
X-4300016Y-1624984D02*
D03*
Y-1724984D02*
D03*
X-4526817Y200016D02*
D03*
Y100016D02*
D03*
X3100016Y-1725016D02*
D03*
Y-1625016D02*
D03*
X-263215Y-1349984D02*
D03*
Y-1449984D02*
D03*
X-363215Y-1349984D02*
D03*
Y-1449984D02*
D03*
X1336785Y-1349984D02*
D03*
Y-1449984D02*
D03*
X1948554Y-2274984D02*
D03*
Y-2374984D02*
D03*
X1836769Y-2275000D02*
D03*
Y-2375000D02*
D03*
D81*
X-3357250Y-1217500D02*
D03*
X-3293750D02*
D03*
X-3230250D02*
D03*
X-3166750D02*
D03*
X-3103250D02*
D03*
X-3039750D02*
D03*
X-2976250D02*
D03*
X-2912750Y-1217500D02*
D03*
X-2849250Y-1217500D02*
D03*
X-2785750D02*
D03*
X-2722250Y-1217500D02*
D03*
X-2658750Y-1217500D02*
D03*
X-2595250D02*
D03*
X-2531750D02*
D03*
X-2468250D02*
D03*
X-2404750D02*
D03*
X-2341250D02*
D03*
X-2277750Y-1217500D02*
D03*
X-2214250Y-1217500D02*
D03*
X-2150750D02*
D03*
X-2087250Y-1217500D02*
D03*
X-2023750Y-1217500D02*
D03*
X-1960250D02*
D03*
X-1896750D02*
D03*
X-1833250D02*
D03*
X-1769750D02*
D03*
X-1706250D02*
D03*
X-1642750D02*
D03*
X-3357250Y-282500D02*
D03*
X-3293750D02*
D03*
X-3230250D02*
D03*
X-3166750D02*
D03*
X-3103250D02*
D03*
X-3039750D02*
D03*
X-2976250D02*
D03*
X-2912750Y-282500D02*
D03*
X-2849250Y-282500D02*
D03*
X-2785750D02*
D03*
X-2722250Y-282500D02*
D03*
X-2658750Y-282500D02*
D03*
X-2595250D02*
D03*
X-2531750D02*
D03*
X-2468250D02*
D03*
X-2404750D02*
D03*
X-2341250D02*
D03*
X-2277750Y-282500D02*
D03*
X-2214250Y-282500D02*
D03*
X-2150750D02*
D03*
X-2087250Y-282500D02*
D03*
X-2023750Y-282500D02*
D03*
X-1960250D02*
D03*
X-1896750D02*
D03*
X-1833250D02*
D03*
X-1769750D02*
D03*
X-1706250D02*
D03*
X-1642750D02*
D03*
D82*
X-4000000Y-1325000D02*
D03*
Y-1625000D02*
D03*
X-4999999Y-2675000D02*
D03*
Y-2375000D02*
D03*
X-4000000Y-2675000D02*
D03*
Y-2375000D02*
D03*
D83*
X-4650000Y-2600000D02*
D03*
X-4350000D02*
D03*
X-149979Y1699999D02*
D03*
X150021D02*
D03*
X-150000Y-2000001D02*
D03*
X150000D02*
D03*
X-4350000Y-1400001D02*
D03*
X-4650000D02*
D03*
D84*
X-5275016Y-1625000D02*
D03*
X-5425016D02*
D03*
X-5275016Y-1375000D02*
D03*
X-5425016D02*
D03*
X-4574984Y-2325000D02*
D03*
X-4424984D02*
D03*
X-4574984Y-1675000D02*
D03*
X-4424984D02*
D03*
X3225016Y930000D02*
D03*
X3375016D02*
D03*
D85*
X1700000Y1255016D02*
D03*
Y1405016D02*
D03*
X3300000Y1404984D02*
D03*
Y1254984D02*
D03*
Y1844984D02*
D03*
Y1694984D02*
D03*
X1700000Y1695016D02*
D03*
Y1845016D02*
D03*
D86*
X945000Y-2760000D02*
D03*
X865000D02*
D03*
X785000D02*
D03*
X705000D02*
D03*
Y-2940000D02*
D03*
X785000D02*
D03*
X865000D02*
D03*
X945000D02*
D03*
X595000Y-2760000D02*
D03*
X515000D02*
D03*
X435000D02*
D03*
X355000D02*
D03*
Y-2940000D02*
D03*
X435000D02*
D03*
X515000D02*
D03*
X595000D02*
D03*
X1295000Y-2760000D02*
D03*
X1215000D02*
D03*
X1135000D02*
D03*
X1055000D02*
D03*
Y-2940000D02*
D03*
X1135000D02*
D03*
X1215000D02*
D03*
X1295000D02*
D03*
X1645000Y-2760000D02*
D03*
X1565000D02*
D03*
X1485000D02*
D03*
X1405000D02*
D03*
Y-2940000D02*
D03*
X1485000D02*
D03*
X1565000D02*
D03*
X1645000D02*
D03*
D87*
X-2188199Y1512300D02*
D03*
X-2138199D02*
D03*
X-2388199D02*
D03*
X-2338199D02*
D03*
X-2288199D02*
D03*
X-2238199D02*
D03*
X-2588199D02*
D03*
X-2538199D02*
D03*
X-2488199D02*
D03*
X-2438199D02*
D03*
X-2688199D02*
D03*
X-2638199D02*
D03*
D88*
X-4000000Y-2125000D02*
D03*
Y-1875000D02*
D03*
X-5000000Y-2125000D02*
D03*
Y-1875000D02*
D03*
Y-1375000D02*
D03*
Y-1625000D02*
D03*
D89*
X-5100000Y-475000D02*
D03*
Y-925000D02*
D03*
X-3700000Y1275000D02*
D03*
Y1725000D02*
D03*
D90*
X-4075000Y750000D02*
D03*
D91*
X-4015000Y2275000D02*
D03*
X-5440000Y925000D02*
D03*
D92*
Y1650000D02*
D03*
Y2275000D02*
D03*
D93*
X-4425000Y750000D02*
D03*
X-5195000D02*
D03*
X-5085000D02*
D03*
X-4975000D02*
D03*
X-4865000D02*
D03*
X-4755000D02*
D03*
X-4645000D02*
D03*
X-4535000D02*
D03*
D94*
X-5340000D02*
D03*
D95*
X1895000Y-1362500D02*
D03*
X1800000D02*
D03*
X1705000D02*
D03*
Y-1637500D02*
D03*
X1895000D02*
D03*
D96*
X3065000Y210000D02*
D03*
Y290000D02*
D03*
Y370000D02*
D03*
Y450000D02*
D03*
Y530000D02*
D03*
Y610000D02*
D03*
X3065000Y690000D02*
D03*
Y770000D02*
D03*
X3065000Y850000D02*
D03*
Y930000D02*
D03*
Y1010000D02*
D03*
Y1090000D02*
D03*
X3065000Y1170000D02*
D03*
Y1250000D02*
D03*
X3065000Y1330000D02*
D03*
Y1410000D02*
D03*
Y1490000D02*
D03*
Y1570000D02*
D03*
Y1650000D02*
D03*
X3065000Y1730000D02*
D03*
X3065000Y1810000D02*
D03*
Y1890000D02*
D03*
Y1970000D02*
D03*
Y2050000D02*
D03*
Y2130000D02*
D03*
Y2210000D02*
D03*
Y2290000D02*
D03*
X1935000Y210000D02*
D03*
Y290000D02*
D03*
Y370000D02*
D03*
Y450000D02*
D03*
Y530000D02*
D03*
Y610000D02*
D03*
Y690000D02*
D03*
Y770000D02*
D03*
Y850000D02*
D03*
Y930000D02*
D03*
Y1010000D02*
D03*
Y1090000D02*
D03*
Y1170000D02*
D03*
Y1250000D02*
D03*
Y1330000D02*
D03*
Y1410000D02*
D03*
Y1490000D02*
D03*
Y1570000D02*
D03*
Y1650000D02*
D03*
Y1730000D02*
D03*
Y1810000D02*
D03*
Y1890000D02*
D03*
Y1970000D02*
D03*
Y2050000D02*
D03*
Y2130000D02*
D03*
Y2210000D02*
D03*
Y2290000D02*
D03*
D97*
X-5773200Y-2829000D02*
D03*
X-5773198Y2234998D02*
D03*
X3776800D02*
D03*
D98*
X-4413199Y-500000D02*
D03*
X2536801D02*
D03*
D99*
X-2133199Y1655000D02*
D03*
X-2173199Y1725000D02*
D03*
X-2253199D02*
D03*
X-2333199D02*
D03*
X-2373199Y1655000D02*
D03*
X-2293199D02*
D03*
X-2493199Y1725000D02*
D03*
X-2573199D02*
D03*
X-2533199Y1655000D02*
D03*
X-2453199D02*
D03*
X-2653199Y1725000D02*
D03*
X-2693199Y1655000D02*
D03*
X-2213199D02*
D03*
X-2613199D02*
D03*
D100*
X-1988199Y1770000D02*
D03*
X-2838199D02*
D03*
X-1988199Y2242500D02*
D03*
X-2838199D02*
D03*
D101*
X3750000Y-950000D02*
D03*
X3550000D02*
D03*
Y-750000D02*
D03*
X3750000D02*
D03*
X3550000Y-550000D02*
D03*
X3750000D02*
D03*
X3550000Y-350000D02*
D03*
X3750000D02*
D03*
X3550000Y-150000D02*
D03*
X3750000D02*
D03*
X3550000Y50000D02*
D03*
X3750000D02*
D03*
X3550000Y250000D02*
D03*
X3750000D02*
D03*
%TF.MD5,288bf895fbf2bf326ebe443626a53b2c*%
M02*
