%TF.GenerationSoftware,Altium Limited,Altium Designer,23.10.1 (27)*%
G04 Layer_Color=16711935*
%FSLAX45Y45*%
%MOMM*%
%TF.SameCoordinates,E65562DB-48BA-4528-A783-DBC4A45482EB*%
%TF.FilePolarity,Positive*%
%TF.FileFunction,Other,Mechanical_1*%
%TF.Part,Single*%
G01*
G75*
%TA.AperFunction,NonConductor*%
%ADD107C,0.15240*%
D107*
X1423199Y2446000D02*
Y2646000D01*
Y2446000D02*
X1623199D01*
Y2646000D01*
X-6173199Y-3040000D02*
Y-1900000D01*
Y-700000D02*
Y821000D01*
Y1021000D02*
Y2646000D01*
X4176801Y-3040000D02*
Y-1679000D01*
Y-1479000D02*
Y821000D01*
Y1021000D02*
Y2646000D01*
X3976801Y1021000D02*
X4176801D01*
X3976801Y821000D02*
Y1021000D01*
Y821000D02*
X4176801D01*
X-6173199D02*
X-5973199D01*
Y1021000D01*
X-6173199D02*
X-5973199D01*
X3976801Y-1479000D02*
X4176801D01*
X3976801Y-1679000D02*
Y-1479000D01*
Y-1679000D02*
X4176801D01*
X-6173199Y2646000D02*
X-3623199D01*
X-3423199D02*
X1423199D01*
X-3623199Y2446000D02*
Y2646000D01*
Y2446000D02*
X-3423199D01*
Y2646000D01*
X1623199D02*
X4176801D01*
X3166801Y-3983801D02*
Y-3040000D01*
X-5166799Y-3982599D02*
Y-3040000D01*
X-6173199D02*
X-5166799D01*
X3166801D02*
X4176801D01*
X-6173199Y-1900000D02*
X-5775000D01*
Y-700000D01*
X-6173199D02*
X-5775000D01*
X3075602Y-4075000D02*
X3166801Y-3983801D01*
X-5074398Y-4075000D02*
X3075602D01*
X-5166799Y-3982599D02*
X-5074398Y-4075000D01*
%TF.MD5,02809ed310c37a4b1b387053f0197a47*%
M02*
